<?xml version="1.0" encoding="UTF-8" standalone="no"?>
<!DOCTYPE svg PUBLIC "-//W3C//DTD SVG 1.1//EN"
 "http://www.w3.org/Graphics/SVG/1.1/DTD/svg11.dtd">
<!-- Generated by graphviz version 2.43.0 (0)
 -->
<!-- Title: %3 Pages: 1 -->
<svg width="1437pt" height="165pt"
 viewBox="0.00 0.00 1437.00 164.74" xmlns="http://www.w3.org/2000/svg" xmlns:xlink="http://www.w3.org/1999/xlink">
<g id="graph0" class="graph" transform="scale(1 1) rotate(0) translate(36 128.74)">
<title>%3</title>
<polygon fill="dimgray" stroke="transparent" points="-36,36 -36,-128.74 1401,-128.74 1401,36 -36,36"/>
<text text-anchor="middle" x="682.5" y="-77.54" font-family="Helvetica,sans-Serif" font-size="14.00">Sweep&#39;s Plan &amp; Progress</text>
<!-- start -->
<g id="node1" class="node">
<title>start</title>
</g>
<!-- fbfd82b3&#45;5454&#45;4d37&#45;b0f0&#45;770b333759bf -->
<g id="node3" class="node">
<title>fbfd82b3&#45;5454&#45;4d37&#45;b0f0&#45;770b333759bf</title>
<ellipse fill="yellow" stroke="black" cx="163.5" cy="-26.87" rx="111.03" ry="26.74"/>
<text text-anchor="middle" x="163.5" y="-30.67" font-family="Helvetica,sans-Serif" font-size="14.00">⋯ Modify</text>
<text text-anchor="middle" x="163.5" y="-15.67" font-family="Helvetica,sans-Serif" font-size="14.00">src/yield_farming.py</text>
</g>
<!-- start&#45;&gt;fbfd82b3&#45;5454&#45;4d37&#45;b0f0&#45;770b333759bf -->
<g id="edge5" class="edge">
<title>start&#45;&gt;fbfd82b3&#45;5454&#45;4d37&#45;b0f0&#45;770b333759bf</title>
<path fill="none" stroke="black" d="M1.23,-26.87C4.78,-26.87 20.96,-26.87 41.84,-26.87"/>
<polygon fill="black" stroke="black" points="42.08,-30.37 52.08,-26.87 42.08,-23.37 42.08,-30.37"/>
<text text-anchor="middle" x="26.74" y="-33.67" font-family="Helvetica,sans-Serif" font-size="14.00">Start</text>
</g>
<!-- end -->
<g id="node2" class="node">
<title>end</title>
</g>
<!-- 1ba46aa6&#45;a8d9&#45;439f&#45;9786&#45;5e9ce909aefc -->
<g id="node4" class="node">
<title>1ba46aa6&#45;a8d9&#45;439f&#45;9786&#45;5e9ce909aefc</title>
<ellipse fill="white" stroke="black" cx="421.5" cy="-26.87" rx="111.03" ry="26.74"/>
<text text-anchor="middle" x="421.5" y="-30.67" font-family="Helvetica,sans-Serif" font-size="14.00">▶ Modify</text>
<text text-anchor="middle" x="421.5" y="-15.67" font-family="Helvetica,sans-Serif" font-size="14.00">src/yield_farming.py</text>
</g>
<!-- fbfd82b3&#45;5454&#45;4d37&#45;b0f0&#45;770b333759bf&#45;&gt;1ba46aa6&#45;a8d9&#45;439f&#45;9786&#45;5e9ce909aefc -->
<g id="edge1" class="edge">
<title>fbfd82b3&#45;5454&#45;4d37&#45;b0f0&#45;770b333759bf&#45;&gt;1ba46aa6&#45;a8d9&#45;439f&#45;9786&#45;5e9ce909aefc</title>
<path fill="none" stroke="black" d="M274.61,-26.87C283.2,-26.87 291.79,-26.87 300.39,-26.87"/>
<polygon fill="black" stroke="black" points="300.47,-30.37 310.47,-26.87 300.47,-23.37 300.47,-30.37"/>
</g>
<!-- 99e46c6d&#45;a6bf&#45;4692&#45;9c9b&#45;f75981fd5770 -->
<g id="node5" class="node">
<title>99e46c6d&#45;a6bf&#45;4692&#45;9c9b&#45;f75981fd5770</title>
<ellipse fill="white" stroke="black" cx="679.5" cy="-26.87" rx="111.03" ry="26.74"/>
<text text-anchor="middle" x="679.5" y="-30.67" font-family="Helvetica,sans-Serif" font-size="14.00">▶ Modify</text>
<text text-anchor="middle" x="679.5" y="-15.67" font-family="Helvetica,sans-Serif" font-size="14.00">src/yield_farming.py</text>
</g>
<!-- 1ba46aa6&#45;a8d9&#45;439f&#45;9786&#45;5e9ce909aefc&#45;&gt;99e46c6d&#45;a6bf&#45;4692&#45;9c9b&#45;f75981fd5770 -->
<g id="edge2" class="edge">
<title>1ba46aa6&#45;a8d9&#45;439f&#45;9786&#45;5e9ce909aefc&#45;&gt;99e46c6d&#45;a6bf&#45;4692&#45;9c9b&#45;f75981fd5770</title>
<path fill="none" stroke="black" d="M532.61,-26.87C541.2,-26.87 549.79,-26.87 558.39,-26.87"/>
<polygon fill="black" stroke="black" points="558.47,-30.37 568.47,-26.87 558.47,-23.37 558.47,-30.37"/>
</g>
<!-- f7887016&#45;7eac&#45;4bc3&#45;aee2&#45;4dccd215b97b -->
<g id="node6" class="node">
<title>f7887016&#45;7eac&#45;4bc3&#45;aee2&#45;4dccd215b97b</title>
<ellipse fill="white" stroke="black" cx="937.5" cy="-26.87" rx="111.03" ry="26.74"/>
<text text-anchor="middle" x="937.5" y="-30.67" font-family="Helvetica,sans-Serif" font-size="14.00">▶ Modify</text>
<text text-anchor="middle" x="937.5" y="-15.67" font-family="Helvetica,sans-Serif" font-size="14.00">src/yield_farming.py</text>
</g>
<!-- 99e46c6d&#45;a6bf&#45;4692&#45;9c9b&#45;f75981fd5770&#45;&gt;f7887016&#45;7eac&#45;4bc3&#45;aee2&#45;4dccd215b97b -->
<g id="edge3" class="edge">
<title>99e46c6d&#45;a6bf&#45;4692&#45;9c9b&#45;f75981fd5770&#45;&gt;f7887016&#45;7eac&#45;4bc3&#45;aee2&#45;4dccd215b97b</title>
<path fill="none" stroke="black" d="M790.61,-26.87C799.2,-26.87 807.79,-26.87 816.39,-26.87"/>
<polygon fill="black" stroke="black" points="816.47,-30.37 826.47,-26.87 816.47,-23.37 816.47,-30.37"/>
</g>
<!-- 792dfe8f&#45;5baf&#45;4a59&#45;9c23&#45;1bda380b0fa8 -->
<g id="node7" class="node">
<title>792dfe8f&#45;5baf&#45;4a59&#45;9c23&#45;1bda380b0fa8</title>
<ellipse fill="white" stroke="black" cx="1195.5" cy="-26.87" rx="111.03" ry="26.74"/>
<text text-anchor="middle" x="1195.5" y="-30.67" font-family="Helvetica,sans-Serif" font-size="14.00">▶ Modify</text>
<text text-anchor="middle" x="1195.5" y="-15.67" font-family="Helvetica,sans-Serif" font-size="14.00">src/yield_farming.py</text>
</g>
<!-- f7887016&#45;7eac&#45;4bc3&#45;aee2&#45;4dccd215b97b&#45;&gt;792dfe8f&#45;5baf&#45;4a59&#45;9c23&#45;1bda380b0fa8 -->
<g id="edge4" class="edge">
<title>f7887016&#45;7eac&#45;4bc3&#45;aee2&#45;4dccd215b97b&#45;&gt;792dfe8f&#45;5baf&#45;4a59&#45;9c23&#45;1bda380b0fa8</title>
<path fill="none" stroke="black" d="M1048.61,-26.87C1057.2,-26.87 1065.79,-26.87 1074.39,-26.87"/>
<polygon fill="black" stroke="black" points="1074.47,-30.37 1084.47,-26.87 1074.47,-23.37 1074.47,-30.37"/>
</g>
<!-- 792dfe8f&#45;5baf&#45;4a59&#45;9c23&#45;1bda380b0fa8&#45;&gt;end -->
<g id="edge6" class="edge">
<title>792dfe8f&#45;5baf&#45;4a59&#45;9c23&#45;1bda380b0fa8&#45;&gt;end</title>
<path fill="none" stroke="black" d="M1306.81,-26.87C1326.08,-26.87 1343.27,-26.87 1353.77,-26.87"/>
<polygon fill="black" stroke="black" points="1353.83,-30.37 1363.83,-26.87 1353.83,-23.37 1353.83,-30.37"/>
<text text-anchor="middle" x="1335.26" y="-33.67" font-family="Helvetica,sans-Serif" font-size="14.00">Finish</text>
</g>
</g>
</svg>
