<?xml version="1.0" encoding="UTF-8" standalone="no"?>
<!DOCTYPE svg PUBLIC "-//W3C//DTD SVG 1.1//EN"
 "http://www.w3.org/Graphics/SVG/1.1/DTD/svg11.dtd">
<!-- Generated by graphviz version 2.43.0 (0)
 -->
<!-- Title: %3 Pages: 1 -->
<svg width="1814pt" height="165pt"
 viewBox="0.00 0.00 1814.00 164.74" xmlns="http://www.w3.org/2000/svg" xmlns:xlink="http://www.w3.org/1999/xlink">
<g id="graph0" class="graph" transform="scale(1 1) rotate(0) translate(36 128.74)">
<title>%3</title>
<polygon fill="dimgray" stroke="transparent" points="-36,36 -36,-128.74 1778,-128.74 1778,36 -36,36"/>
<text text-anchor="middle" x="871" y="-77.54" font-family="Helvetica,sans-Serif" font-size="14.00">Sweep&#39;s Plan &amp; Progress</text>
<!-- start -->
<g id="node1" class="node">
<title>start</title>
</g>
<!-- c5cdd92a&#45;7a02&#45;4f51&#45;817f&#45;67b049d5d360 -->
<g id="node3" class="node">
<title>c5cdd92a&#45;7a02&#45;4f51&#45;817f&#45;67b049d5d360</title>
<ellipse fill="#0ee832" stroke="black" cx="163.5" cy="-26.87" rx="111.03" ry="26.74"/>
<text text-anchor="middle" x="163.5" y="-30.67" font-family="Helvetica,sans-Serif" font-size="14.00">✓ Modify</text>
<text text-anchor="middle" x="163.5" y="-15.67" font-family="Helvetica,sans-Serif" font-size="14.00">src/yield_farming.py</text>
</g>
<!-- start&#45;&gt;c5cdd92a&#45;7a02&#45;4f51&#45;817f&#45;67b049d5d360 -->
<g id="edge6" class="edge">
<title>start&#45;&gt;c5cdd92a&#45;7a02&#45;4f51&#45;817f&#45;67b049d5d360</title>
<path fill="none" stroke="black" d="M1.23,-26.87C4.78,-26.87 20.96,-26.87 41.84,-26.87"/>
<polygon fill="black" stroke="black" points="42.08,-30.37 52.08,-26.87 42.08,-23.37 42.08,-30.37"/>
<text text-anchor="middle" x="26.74" y="-33.67" font-family="Helvetica,sans-Serif" font-size="14.00">Start</text>
</g>
<!-- end -->
<g id="node2" class="node">
<title>end</title>
</g>
<!-- 2632dc29&#45;7fa5&#45;4667&#45;88c7&#45;ed0126b52d11 -->
<g id="node4" class="node">
<title>2632dc29&#45;7fa5&#45;4667&#45;88c7&#45;ed0126b52d11</title>
<ellipse fill="#0ee832" stroke="black" cx="443.5" cy="-26.87" rx="133.79" ry="26.74"/>
<text text-anchor="middle" x="443.5" y="-30.67" font-family="Helvetica,sans-Serif" font-size="14.00">✓ Modify</text>
<text text-anchor="middle" x="443.5" y="-15.67" font-family="Helvetica,sans-Serif" font-size="14.00">src/trading_strategies.py</text>
</g>
<!-- c5cdd92a&#45;7a02&#45;4f51&#45;817f&#45;67b049d5d360&#45;&gt;2632dc29&#45;7fa5&#45;4667&#45;88c7&#45;ed0126b52d11 -->
<g id="edge1" class="edge">
<title>c5cdd92a&#45;7a02&#45;4f51&#45;817f&#45;67b049d5d360&#45;&gt;2632dc29&#45;7fa5&#45;4667&#45;88c7&#45;ed0126b52d11</title>
<path fill="none" stroke="black" d="M274.79,-26.87C283.07,-26.87 291.34,-26.87 299.62,-26.87"/>
<polygon fill="black" stroke="black" points="299.72,-30.37 309.72,-26.87 299.72,-23.37 299.72,-30.37"/>
</g>
<!-- 5e2cfdf6&#45;4cb9&#45;4339&#45;875e&#45;b711c9160102 -->
<g id="node5" class="node">
<title>5e2cfdf6&#45;4cb9&#45;4339&#45;875e&#45;b711c9160102</title>
<ellipse fill="yellow" stroke="black" cx="694.5" cy="-26.87" rx="82.05" ry="26.74"/>
<text text-anchor="middle" x="694.5" y="-30.67" font-family="Helvetica,sans-Serif" font-size="14.00">⋯ Modify</text>
<text text-anchor="middle" x="694.5" y="-15.67" font-family="Helvetica,sans-Serif" font-size="14.00">src/security.py</text>
</g>
<!-- 2632dc29&#45;7fa5&#45;4667&#45;88c7&#45;ed0126b52d11&#45;&gt;5e2cfdf6&#45;4cb9&#45;4339&#45;875e&#45;b711c9160102 -->
<g id="edge2" class="edge">
<title>2632dc29&#45;7fa5&#45;4667&#45;88c7&#45;ed0126b52d11&#45;&gt;5e2cfdf6&#45;4cb9&#45;4339&#45;875e&#45;b711c9160102</title>
<path fill="none" stroke="black" d="M577.33,-26.87C585.58,-26.87 593.82,-26.87 602.06,-26.87"/>
<polygon fill="black" stroke="black" points="602.12,-30.37 612.12,-26.87 602.12,-23.37 602.12,-30.37"/>
</g>
<!-- 3e7dd66e&#45;03f5&#45;470c&#45;a0ea&#45;29f04130571d -->
<g id="node6" class="node">
<title>3e7dd66e&#45;03f5&#45;470c&#45;a0ea&#45;29f04130571d</title>
<ellipse fill="white" stroke="black" cx="901.5" cy="-26.87" rx="89.61" ry="26.74"/>
<text text-anchor="middle" x="901.5" y="-30.67" font-family="Helvetica,sans-Serif" font-size="14.00">▶ Modify</text>
<text text-anchor="middle" x="901.5" y="-15.67" font-family="Helvetica,sans-Serif" font-size="14.00">src/reporting.py</text>
</g>
<!-- 5e2cfdf6&#45;4cb9&#45;4339&#45;875e&#45;b711c9160102&#45;&gt;3e7dd66e&#45;03f5&#45;470c&#45;a0ea&#45;29f04130571d -->
<g id="edge3" class="edge">
<title>5e2cfdf6&#45;4cb9&#45;4339&#45;875e&#45;b711c9160102&#45;&gt;3e7dd66e&#45;03f5&#45;470c&#45;a0ea&#45;29f04130571d</title>
<path fill="none" stroke="black" d="M776.57,-26.87C784.78,-26.87 792.99,-26.87 801.2,-26.87"/>
<polygon fill="black" stroke="black" points="801.22,-30.37 811.22,-26.87 801.22,-23.37 801.22,-30.37"/>
</g>
<!-- adecd200&#45;7cae&#45;4134&#45;8bf2&#45;cd10a1001be4 -->
<g id="node7" class="node">
<title>adecd200&#45;7cae&#45;4134&#45;8bf2&#45;cd10a1001be4</title>
<ellipse fill="white" stroke="black" cx="1170.5" cy="-26.87" rx="143.59" ry="26.74"/>
<text text-anchor="middle" x="1170.5" y="-30.67" font-family="Helvetica,sans-Serif" font-size="14.00">▶ Modify</text>
<text text-anchor="middle" x="1170.5" y="-15.67" font-family="Helvetica,sans-Serif" font-size="14.00">tests/test_yield_farming.py</text>
</g>
<!-- 3e7dd66e&#45;03f5&#45;470c&#45;a0ea&#45;29f04130571d&#45;&gt;adecd200&#45;7cae&#45;4134&#45;8bf2&#45;cd10a1001be4 -->
<g id="edge4" class="edge">
<title>3e7dd66e&#45;03f5&#45;470c&#45;a0ea&#45;29f04130571d&#45;&gt;adecd200&#45;7cae&#45;4134&#45;8bf2&#45;cd10a1001be4</title>
<path fill="none" stroke="black" d="M991.34,-26.87C999.72,-26.87 1008.09,-26.87 1016.47,-26.87"/>
<polygon fill="black" stroke="black" points="1016.68,-30.37 1026.68,-26.87 1016.68,-23.37 1016.68,-30.37"/>
</g>
<!-- 422d2e95&#45;338f&#45;4839&#45;98b2&#45;4bd7b4caa80c -->
<g id="node8" class="node">
<title>422d2e95&#45;338f&#45;4839&#45;98b2&#45;4bd7b4caa80c</title>
<ellipse fill="white" stroke="black" cx="1516.5" cy="-26.87" rx="166.75" ry="26.74"/>
<text text-anchor="middle" x="1516.5" y="-30.67" font-family="Helvetica,sans-Serif" font-size="14.00">▶ Modify</text>
<text text-anchor="middle" x="1516.5" y="-15.67" font-family="Helvetica,sans-Serif" font-size="14.00">tests/test_trading_strategies.py</text>
</g>
<!-- adecd200&#45;7cae&#45;4134&#45;8bf2&#45;cd10a1001be4&#45;&gt;422d2e95&#45;338f&#45;4839&#45;98b2&#45;4bd7b4caa80c -->
<g id="edge5" class="edge">
<title>adecd200&#45;7cae&#45;4134&#45;8bf2&#45;cd10a1001be4&#45;&gt;422d2e95&#45;338f&#45;4839&#45;98b2&#45;4bd7b4caa80c</title>
<path fill="none" stroke="black" d="M1314.1,-26.87C1322.44,-26.87 1330.78,-26.87 1339.12,-26.87"/>
<polygon fill="black" stroke="black" points="1339.29,-30.37 1349.29,-26.87 1339.29,-23.37 1339.29,-30.37"/>
</g>
<!-- 422d2e95&#45;338f&#45;4839&#45;98b2&#45;4bd7b4caa80c&#45;&gt;end -->
<g id="edge7" class="edge">
<title>422d2e95&#45;338f&#45;4839&#45;98b2&#45;4bd7b4caa80c&#45;&gt;end</title>
<path fill="none" stroke="black" d="M1683.56,-26.87C1703.5,-26.87 1720.42,-26.87 1730.74,-26.87"/>
<polygon fill="black" stroke="black" points="1730.86,-30.37 1740.86,-26.87 1730.86,-23.37 1730.86,-30.37"/>
<text text-anchor="middle" x="1712.19" y="-33.67" font-family="Helvetica,sans-Serif" font-size="14.00">Finish</text>
</g>
</g>
</svg>
