<?xml version="1.0" encoding="UTF-8" standalone="no"?>
<!DOCTYPE svg PUBLIC "-//W3C//DTD SVG 1.1//EN"
 "http://www.w3.org/Graphics/SVG/1.1/DTD/svg11.dtd">
<!-- Generated by graphviz version 2.43.0 (0)
 -->
<!-- Title: %3 Pages: 1 -->
<svg width="924pt" height="165pt"
 viewBox="0.00 0.00 924.00 164.74" xmlns="http://www.w3.org/2000/svg" xmlns:xlink="http://www.w3.org/1999/xlink">
<g id="graph0" class="graph" transform="scale(1 1) rotate(0) translate(36 128.74)">
<title>%3</title>
<polygon fill="dimgray" stroke="transparent" points="-36,36 -36,-128.74 888,-128.74 888,36 -36,36"/>
<text text-anchor="middle" x="426" y="-77.54" font-family="Helvetica,sans-Serif" font-size="14.00">Sweep&#39;s Plan &amp; Progress</text>
<!-- start -->
<g id="node1" class="node">
<title>start</title>
</g>
<!-- 7920f5ba&#45;82dc&#45;4c79&#45;bcff&#45;cef0453933d7 -->
<g id="node3" class="node">
<title>7920f5ba&#45;82dc&#45;4c79&#45;bcff&#45;cef0453933d7</title>
<ellipse fill="yellow" stroke="black" cx="166.5" cy="-26.87" rx="113.69" ry="26.74"/>
<text text-anchor="middle" x="166.5" y="-30.67" font-family="Helvetica,sans-Serif" font-size="14.00">⋯ Modify</text>
<text text-anchor="middle" x="166.5" y="-15.67" font-family="Helvetica,sans-Serif" font-size="14.00">src/defi_contracts.py</text>
</g>
<!-- start&#45;&gt;7920f5ba&#45;82dc&#45;4c79&#45;bcff&#45;cef0453933d7 -->
<g id="edge3" class="edge">
<title>start&#45;&gt;7920f5ba&#45;82dc&#45;4c79&#45;bcff&#45;cef0453933d7</title>
<path fill="none" stroke="black" d="M1.24,-26.87C4.85,-26.87 21.3,-26.87 42.53,-26.87"/>
<polygon fill="black" stroke="black" points="42.59,-30.37 52.59,-26.87 42.59,-23.37 42.59,-30.37"/>
<text text-anchor="middle" x="26.83" y="-33.67" font-family="Helvetica,sans-Serif" font-size="14.00">Start</text>
</g>
<!-- end -->
<g id="node2" class="node">
<title>end</title>
</g>
<!-- ee323011&#45;0af1&#45;4a35&#45;b2fa&#45;a70f58729edb -->
<g id="node4" class="node">
<title>ee323011&#45;0af1&#45;4a35&#45;b2fa&#45;a70f58729edb</title>
<ellipse fill="white" stroke="black" cx="390.5" cy="-26.87" rx="74.91" ry="26.74"/>
<text text-anchor="middle" x="390.5" y="-30.67" font-family="Helvetica,sans-Serif" font-size="14.00">▶ Modify</text>
<text text-anchor="middle" x="390.5" y="-15.67" font-family="Helvetica,sans-Serif" font-size="14.00">src/config.py</text>
</g>
<!-- 7920f5ba&#45;82dc&#45;4c79&#45;bcff&#45;cef0453933d7&#45;&gt;ee323011&#45;0af1&#45;4a35&#45;b2fa&#45;a70f58729edb -->
<g id="edge1" class="edge">
<title>7920f5ba&#45;82dc&#45;4c79&#45;bcff&#45;cef0453933d7&#45;&gt;ee323011&#45;0af1&#45;4a35&#45;b2fa&#45;a70f58729edb</title>
<path fill="none" stroke="black" d="M280.69,-26.87C288.92,-26.87 297.16,-26.87 305.39,-26.87"/>
<polygon fill="black" stroke="black" points="305.43,-30.37 315.43,-26.87 305.43,-23.37 305.43,-30.37"/>
</g>
<!-- 393117b2&#45;ea0f&#45;4504&#45;8cbe&#45;4d2786aaaeb5 -->
<g id="node5" class="node">
<title>393117b2&#45;ea0f&#45;4504&#45;8cbe&#45;4d2786aaaeb5</title>
<ellipse fill="white" stroke="black" cx="647.5" cy="-26.87" rx="146.24" ry="26.74"/>
<text text-anchor="middle" x="647.5" y="-30.67" font-family="Helvetica,sans-Serif" font-size="14.00">▶ Modify</text>
<text text-anchor="middle" x="647.5" y="-15.67" font-family="Helvetica,sans-Serif" font-size="14.00">tests/test_defi_contracts.py</text>
</g>
<!-- ee323011&#45;0af1&#45;4a35&#45;b2fa&#45;a70f58729edb&#45;&gt;393117b2&#45;ea0f&#45;4504&#45;8cbe&#45;4d2786aaaeb5 -->
<g id="edge2" class="edge">
<title>ee323011&#45;0af1&#45;4a35&#45;b2fa&#45;a70f58729edb&#45;&gt;393117b2&#45;ea0f&#45;4504&#45;8cbe&#45;4d2786aaaeb5</title>
<path fill="none" stroke="black" d="M465.54,-26.87C473.96,-26.87 482.39,-26.87 490.81,-26.87"/>
<polygon fill="black" stroke="black" points="491.08,-30.37 501.08,-26.87 491.08,-23.37 491.08,-30.37"/>
</g>
<!-- 393117b2&#45;ea0f&#45;4504&#45;8cbe&#45;4d2786aaaeb5&#45;&gt;end -->
<g id="edge4" class="edge">
<title>393117b2&#45;ea0f&#45;4504&#45;8cbe&#45;4d2786aaaeb5&#45;&gt;end</title>
<path fill="none" stroke="black" d="M794.13,-26.87C813.65,-26.87 830.45,-26.87 840.74,-26.87"/>
<polygon fill="black" stroke="black" points="840.86,-30.37 850.86,-26.87 840.86,-23.37 840.86,-30.37"/>
<text text-anchor="middle" x="822.44" y="-33.67" font-family="Helvetica,sans-Serif" font-size="14.00">Finish</text>
</g>
</g>
</svg>
