<?xml version="1.0" encoding="UTF-8" standalone="no"?>
<!DOCTYPE svg PUBLIC "-//W3C//DTD SVG 1.1//EN"
 "http://www.w3.org/Graphics/SVG/1.1/DTD/svg11.dtd">
<!-- Generated by graphviz version 2.43.0 (0)
 -->
<!-- Title: %3 Pages: 1 -->
<svg width="2080pt" height="238pt"
 viewBox="0.00 0.00 2080.00 237.74" xmlns="http://www.w3.org/2000/svg" xmlns:xlink="http://www.w3.org/1999/xlink">
<g id="graph0" class="graph" transform="scale(1 1) rotate(0) translate(36 201.74)">
<title>%3</title>
<polygon fill="dimgray" stroke="transparent" points="-36,36 -36,-201.74 2044,-201.74 2044,36 -36,36"/>
<text text-anchor="middle" x="1004" y="-150.54" font-family="Helvetica,sans-Serif" font-size="14.00">Sweep&#39;s Plan &amp; Progress</text>
<!-- start -->
<g id="node1" class="node">
<title>start</title>
</g>
<!-- 175b0dd5&#45;8741&#45;457f&#45;9560&#45;eaab1610d78a -->
<g id="node3" class="node">
<title>175b0dd5&#45;8741&#45;457f&#45;9560&#45;eaab1610d78a</title>
<ellipse fill="#0ee832" stroke="black" cx="221" cy="-99.87" rx="89.61" ry="26.74"/>
<text text-anchor="middle" x="221" y="-103.67" font-family="Helvetica,sans-Serif" font-size="14.00">✓ Modify</text>
<text text-anchor="middle" x="221" y="-88.67" font-family="Helvetica,sans-Serif" font-size="14.00">src/reporting.py</text>
</g>
<!-- start&#45;&gt;175b0dd5&#45;8741&#45;457f&#45;9560&#45;eaab1610d78a -->
<g id="edge12" class="edge">
<title>start&#45;&gt;175b0dd5&#45;8741&#45;457f&#45;9560&#45;eaab1610d78a</title>
<path fill="none" stroke="black" d="M79.91,-99.87C83.88,-99.87 100.5,-99.87 121.01,-99.87"/>
<polygon fill="black" stroke="black" points="121.01,-103.37 131.01,-99.87 121.01,-96.37 121.01,-103.37"/>
<text text-anchor="middle" x="105.35" y="-106.67" font-family="Helvetica,sans-Serif" font-size="14.00">Start</text>
</g>
<!-- end -->
<g id="node2" class="node">
<title>end</title>
</g>
<!-- 6407d420&#45;5830&#45;41cb&#45;a7c6&#45;9a85cfba0408 -->
<g id="node4" class="node">
<title>6407d420&#45;5830&#45;41cb&#45;a7c6&#45;9a85cfba0408</title>
<ellipse fill="#0ee832" stroke="black" cx="498" cy="-99.87" rx="89.61" ry="26.74"/>
<text text-anchor="middle" x="498" y="-103.67" font-family="Helvetica,sans-Serif" font-size="14.00">✓ Modify</text>
<text text-anchor="middle" x="498" y="-88.67" font-family="Helvetica,sans-Serif" font-size="14.00">src/reporting.py</text>
</g>
<!-- 175b0dd5&#45;8741&#45;457f&#45;9560&#45;eaab1610d78a&#45;&gt;6407d420&#45;5830&#45;41cb&#45;a7c6&#45;9a85cfba0408 -->
<g id="edge2" class="edge">
<title>175b0dd5&#45;8741&#45;457f&#45;9560&#45;eaab1610d78a&#45;&gt;6407d420&#45;5830&#45;41cb&#45;a7c6&#45;9a85cfba0408</title>
<path fill="none" stroke="black" d="M310.81,-99.87C339.81,-99.87 368.81,-99.87 397.8,-99.87"/>
<polygon fill="black" stroke="black" points="398.06,-103.37 408.06,-99.87 398.06,-96.37 398.06,-103.37"/>
</g>
<!-- 600098b1&#45;c033&#45;4aed&#45;8296&#45;3d16121bb0e0 -->
<g id="node9" class="node">
<title>600098b1&#45;c033&#45;4aed&#45;8296&#45;3d16121bb0e0</title>
<polygon fill="#0ee832" stroke="black" points="320,-36 0,-36 0,0 320,0 320,-36"/>
<text text-anchor="middle" x="160" y="-14.3" font-family="Helvetica,sans-Serif" font-size="14.00">✓ Run GitHub Actions for `src/reporting.py`</text>
</g>
<!-- 175b0dd5&#45;8741&#45;457f&#45;9560&#45;eaab1610d78a&#45;&gt;600098b1&#45;c033&#45;4aed&#45;8296&#45;3d16121bb0e0 -->
<g id="edge1" class="edge">
<title>175b0dd5&#45;8741&#45;457f&#45;9560&#45;eaab1610d78a&#45;&gt;600098b1&#45;c033&#45;4aed&#45;8296&#45;3d16121bb0e0</title>
<path fill="none" stroke="black" stroke-dasharray="5,2" d="M201.7,-73.6C194.54,-64.22 186.42,-53.59 179.26,-44.22"/>
<polygon fill="black" stroke="black" points="181.86,-41.86 173.01,-36.04 176.3,-46.11 181.86,-41.86"/>
</g>
<!-- 35ce2d94&#45;a57a&#45;423a&#45;9341&#45;4bb29ef4d20e -->
<g id="node5" class="node">
<title>35ce2d94&#45;a57a&#45;423a&#45;9341&#45;4bb29ef4d20e</title>
<ellipse fill="#0ee832" stroke="black" cx="836" cy="-99.87" rx="89.61" ry="26.74"/>
<text text-anchor="middle" x="836" y="-103.67" font-family="Helvetica,sans-Serif" font-size="14.00">✓ Modify</text>
<text text-anchor="middle" x="836" y="-88.67" font-family="Helvetica,sans-Serif" font-size="14.00">src/reporting.py</text>
</g>
<!-- 6407d420&#45;5830&#45;41cb&#45;a7c6&#45;9a85cfba0408&#45;&gt;35ce2d94&#45;a57a&#45;423a&#45;9341&#45;4bb29ef4d20e -->
<g id="edge4" class="edge">
<title>6407d420&#45;5830&#45;41cb&#45;a7c6&#45;9a85cfba0408&#45;&gt;35ce2d94&#45;a57a&#45;423a&#45;9341&#45;4bb29ef4d20e</title>
<path fill="none" stroke="black" d="M588.11,-99.87C637.33,-99.87 686.55,-99.87 735.77,-99.87"/>
<polygon fill="black" stroke="black" points="735.95,-103.37 745.95,-99.87 735.95,-96.37 735.95,-103.37"/>
</g>
<!-- df646248&#45;ea30&#45;4441&#45;a758&#45;36a9ae8a004d -->
<g id="node10" class="node">
<title>df646248&#45;ea30&#45;4441&#45;a758&#45;36a9ae8a004d</title>
<polygon fill="#0ee832" stroke="black" points="658,-36 338,-36 338,0 658,0 658,-36"/>
<text text-anchor="middle" x="498" y="-14.3" font-family="Helvetica,sans-Serif" font-size="14.00">✓ Run GitHub Actions for `src/reporting.py`</text>
</g>
<!-- 6407d420&#45;5830&#45;41cb&#45;a7c6&#45;9a85cfba0408&#45;&gt;df646248&#45;ea30&#45;4441&#45;a758&#45;36a9ae8a004d -->
<g id="edge3" class="edge">
<title>6407d420&#45;5830&#45;41cb&#45;a7c6&#45;9a85cfba0408&#45;&gt;df646248&#45;ea30&#45;4441&#45;a758&#45;36a9ae8a004d</title>
<path fill="none" stroke="black" stroke-dasharray="5,2" d="M498,-72.72C498,-64.27 498,-54.89 498,-46.36"/>
<polygon fill="black" stroke="black" points="501.5,-46.15 498,-36.15 494.5,-46.15 501.5,-46.15"/>
</g>
<!-- ae10d23e&#45;6ca0&#45;4277&#45;90b2&#45;f3aa7a472588 -->
<g id="node6" class="node">
<title>ae10d23e&#45;6ca0&#45;4277&#45;90b2&#45;f3aa7a472588</title>
<ellipse fill="#0ee832" stroke="black" cx="1175" cy="-99.87" rx="89.61" ry="26.74"/>
<text text-anchor="middle" x="1175" y="-103.67" font-family="Helvetica,sans-Serif" font-size="14.00">✓ Modify</text>
<text text-anchor="middle" x="1175" y="-88.67" font-family="Helvetica,sans-Serif" font-size="14.00">src/reporting.py</text>
</g>
<!-- 35ce2d94&#45;a57a&#45;423a&#45;9341&#45;4bb29ef4d20e&#45;&gt;ae10d23e&#45;6ca0&#45;4277&#45;90b2&#45;f3aa7a472588 -->
<g id="edge6" class="edge">
<title>35ce2d94&#45;a57a&#45;423a&#45;9341&#45;4bb29ef4d20e&#45;&gt;ae10d23e&#45;6ca0&#45;4277&#45;90b2&#45;f3aa7a472588</title>
<path fill="none" stroke="black" d="M926.05,-99.87C975.63,-99.87 1025.21,-99.87 1074.8,-99.87"/>
<polygon fill="black" stroke="black" points="1075.05,-103.37 1085.05,-99.87 1075.05,-96.37 1075.05,-103.37"/>
</g>
<!-- d4fd55f4&#45;94bd&#45;4328&#45;83a7&#45;f66c669c69b3 -->
<g id="node11" class="node">
<title>d4fd55f4&#45;94bd&#45;4328&#45;83a7&#45;f66c669c69b3</title>
<polygon fill="#0ee832" stroke="black" points="996,-36 676,-36 676,0 996,0 996,-36"/>
<text text-anchor="middle" x="836" y="-14.3" font-family="Helvetica,sans-Serif" font-size="14.00">✓ Run GitHub Actions for `src/reporting.py`</text>
</g>
<!-- 35ce2d94&#45;a57a&#45;423a&#45;9341&#45;4bb29ef4d20e&#45;&gt;d4fd55f4&#45;94bd&#45;4328&#45;83a7&#45;f66c669c69b3 -->
<g id="edge5" class="edge">
<title>35ce2d94&#45;a57a&#45;423a&#45;9341&#45;4bb29ef4d20e&#45;&gt;d4fd55f4&#45;94bd&#45;4328&#45;83a7&#45;f66c669c69b3</title>
<path fill="none" stroke="black" stroke-dasharray="5,2" d="M836,-72.72C836,-64.27 836,-54.89 836,-46.36"/>
<polygon fill="black" stroke="black" points="839.5,-46.15 836,-36.15 832.5,-46.15 839.5,-46.15"/>
</g>
<!-- b3e3e04d&#45;9d4b&#45;4de8&#45;a9e1&#45;2eb18bb7ba53 -->
<g id="node7" class="node">
<title>b3e3e04d&#45;9d4b&#45;4de8&#45;a9e1&#45;2eb18bb7ba53</title>
<ellipse fill="white" stroke="black" cx="1513" cy="-99.87" rx="89.61" ry="26.74"/>
<text text-anchor="middle" x="1513" y="-103.67" font-family="Helvetica,sans-Serif" font-size="14.00">▶ Modify</text>
<text text-anchor="middle" x="1513" y="-88.67" font-family="Helvetica,sans-Serif" font-size="14.00">src/reporting.py</text>
</g>
<!-- ae10d23e&#45;6ca0&#45;4277&#45;90b2&#45;f3aa7a472588&#45;&gt;b3e3e04d&#45;9d4b&#45;4de8&#45;a9e1&#45;2eb18bb7ba53 -->
<g id="edge8" class="edge">
<title>ae10d23e&#45;6ca0&#45;4277&#45;90b2&#45;f3aa7a472588&#45;&gt;b3e3e04d&#45;9d4b&#45;4de8&#45;a9e1&#45;2eb18bb7ba53</title>
<path fill="none" stroke="black" d="M1265.11,-99.87C1314.33,-99.87 1363.55,-99.87 1412.77,-99.87"/>
<polygon fill="black" stroke="black" points="1412.95,-103.37 1422.95,-99.87 1412.95,-96.37 1412.95,-103.37"/>
</g>
<!-- b1b9230f&#45;42bf&#45;4732&#45;84e0&#45;041c4d89a018 -->
<g id="node12" class="node">
<title>b1b9230f&#45;42bf&#45;4732&#45;84e0&#45;041c4d89a018</title>
<polygon fill="yellow" stroke="black" points="1336,-36 1014,-36 1014,0 1336,0 1336,-36"/>
<text text-anchor="middle" x="1175" y="-14.3" font-family="Helvetica,sans-Serif" font-size="14.00">⋯ Run GitHub Actions for `src/reporting.py`</text>
</g>
<!-- ae10d23e&#45;6ca0&#45;4277&#45;90b2&#45;f3aa7a472588&#45;&gt;b1b9230f&#45;42bf&#45;4732&#45;84e0&#45;041c4d89a018 -->
<g id="edge7" class="edge">
<title>ae10d23e&#45;6ca0&#45;4277&#45;90b2&#45;f3aa7a472588&#45;&gt;b1b9230f&#45;42bf&#45;4732&#45;84e0&#45;041c4d89a018</title>
<path fill="none" stroke="black" stroke-dasharray="5,2" d="M1175,-72.72C1175,-64.27 1175,-54.89 1175,-46.36"/>
<polygon fill="black" stroke="black" points="1178.5,-46.15 1175,-36.15 1171.5,-46.15 1178.5,-46.15"/>
</g>
<!-- 7d3b15e2&#45;43b7&#45;4f60&#45;85ee&#45;213996139226 -->
<g id="node8" class="node">
<title>7d3b15e2&#45;43b7&#45;4f60&#45;85ee&#45;213996139226</title>
<ellipse fill="white" stroke="black" cx="1789" cy="-99.87" rx="89.61" ry="26.74"/>
<text text-anchor="middle" x="1789" y="-103.67" font-family="Helvetica,sans-Serif" font-size="14.00">▶ Modify</text>
<text text-anchor="middle" x="1789" y="-88.67" font-family="Helvetica,sans-Serif" font-size="14.00">src/reporting.py</text>
</g>
<!-- b3e3e04d&#45;9d4b&#45;4de8&#45;a9e1&#45;2eb18bb7ba53&#45;&gt;7d3b15e2&#45;43b7&#45;4f60&#45;85ee&#45;213996139226 -->
<g id="edge10" class="edge">
<title>b3e3e04d&#45;9d4b&#45;4de8&#45;a9e1&#45;2eb18bb7ba53&#45;&gt;7d3b15e2&#45;43b7&#45;4f60&#45;85ee&#45;213996139226</title>
<path fill="none" stroke="black" d="M1603.02,-99.87C1631.62,-99.87 1660.21,-99.87 1688.8,-99.87"/>
<polygon fill="black" stroke="black" points="1688.92,-103.37 1698.92,-99.87 1688.92,-96.37 1688.92,-103.37"/>
</g>
<!-- 1d4ec9ea&#45;37b3&#45;41fe&#45;80c1&#45;dd709cb21ddc -->
<g id="node13" class="node">
<title>1d4ec9ea&#45;37b3&#45;41fe&#45;80c1&#45;dd709cb21ddc</title>
<polygon fill="white" stroke="black" points="1672,-36 1354,-36 1354,0 1672,0 1672,-36"/>
<text text-anchor="middle" x="1513" y="-14.3" font-family="Helvetica,sans-Serif" font-size="14.00">▶ Run GitHub Actions for `src/reporting.py`</text>
</g>
<!-- b3e3e04d&#45;9d4b&#45;4de8&#45;a9e1&#45;2eb18bb7ba53&#45;&gt;1d4ec9ea&#45;37b3&#45;41fe&#45;80c1&#45;dd709cb21ddc -->
<g id="edge9" class="edge">
<title>b3e3e04d&#45;9d4b&#45;4de8&#45;a9e1&#45;2eb18bb7ba53&#45;&gt;1d4ec9ea&#45;37b3&#45;41fe&#45;80c1&#45;dd709cb21ddc</title>
<path fill="none" stroke="black" stroke-dasharray="5,2" d="M1513,-72.72C1513,-64.27 1513,-54.89 1513,-46.36"/>
<polygon fill="black" stroke="black" points="1516.5,-46.15 1513,-36.15 1509.5,-46.15 1516.5,-46.15"/>
</g>
<!-- 7d3b15e2&#45;43b7&#45;4f60&#45;85ee&#45;213996139226&#45;&gt;end -->
<g id="edge13" class="edge">
<title>7d3b15e2&#45;43b7&#45;4f60&#45;85ee&#45;213996139226&#45;&gt;end</title>
<path fill="none" stroke="black" d="M1878.93,-99.87C1897.8,-99.87 1915.22,-99.87 1925.96,-99.87"/>
<polygon fill="black" stroke="black" points="1926.31,-103.37 1936.31,-99.87 1926.31,-96.37 1926.31,-103.37"/>
<text text-anchor="middle" x="1907.65" y="-106.67" font-family="Helvetica,sans-Serif" font-size="14.00">Finish</text>
</g>
<!-- 69728e5d&#45;b6b9&#45;4aeb&#45;9662&#45;7791ed7298f0 -->
<g id="node14" class="node">
<title>69728e5d&#45;b6b9&#45;4aeb&#45;9662&#45;7791ed7298f0</title>
<polygon fill="white" stroke="black" points="2008,-36 1690,-36 1690,0 2008,0 2008,-36"/>
<text text-anchor="middle" x="1849" y="-14.3" font-family="Helvetica,sans-Serif" font-size="14.00">▶ Run GitHub Actions for `src/reporting.py`</text>
</g>
<!-- 7d3b15e2&#45;43b7&#45;4f60&#45;85ee&#45;213996139226&#45;&gt;69728e5d&#45;b6b9&#45;4aeb&#45;9662&#45;7791ed7298f0 -->
<g id="edge11" class="edge">
<title>7d3b15e2&#45;43b7&#45;4f60&#45;85ee&#45;213996139226&#45;&gt;69728e5d&#45;b6b9&#45;4aeb&#45;9662&#45;7791ed7298f0</title>
<path fill="none" stroke="black" stroke-dasharray="5,2" d="M1807.98,-73.6C1815.03,-64.22 1823.01,-53.59 1830.06,-44.22"/>
<polygon fill="black" stroke="black" points="1832.99,-46.13 1836.2,-36.04 1827.4,-41.93 1832.99,-46.13"/>
</g>
</g>
</svg>
