<?xml version="1.0" encoding="UTF-8" standalone="no"?>
<!DOCTYPE svg PUBLIC "-//W3C//DTD SVG 1.1//EN"
 "http://www.w3.org/Graphics/SVG/1.1/DTD/svg11.dtd">
<!-- Generated by graphviz version 2.43.0 (0)
 -->
<!-- Title: %3 Pages: 1 -->
<svg width="789pt" height="165pt"
 viewBox="0.00 0.00 789.00 164.74" xmlns="http://www.w3.org/2000/svg" xmlns:xlink="http://www.w3.org/1999/xlink">
<g id="graph0" class="graph" transform="scale(1 1) rotate(0) translate(36 128.74)">
<title>%3</title>
<polygon fill="dimgray" stroke="transparent" points="-36,36 -36,-128.74 753,-128.74 753,36 -36,36"/>
<text text-anchor="middle" x="358.5" y="-77.54" font-family="Helvetica,sans-Serif" font-size="14.00">Sweep&#39;s Plan &amp; Progress</text>
<!-- start -->
<g id="node1" class="node">
<title>start</title>
</g>
<!-- 7e1de0dc&#45;e67f&#45;48a4&#45;a851&#45;094d787bf910 -->
<g id="node3" class="node">
<title>7e1de0dc&#45;e67f&#45;48a4&#45;a851&#45;094d787bf910</title>
<ellipse fill="#0ee832" stroke="black" cx="132.5" cy="-26.87" rx="79.81" ry="26.74"/>
<text text-anchor="middle" x="132.5" y="-30.67" font-family="Helvetica,sans-Serif" font-size="14.00">✓ Modify</text>
<text text-anchor="middle" x="132.5" y="-15.67" font-family="Helvetica,sans-Serif" font-size="14.00">src/oracles.py</text>
</g>
<!-- start&#45;&gt;7e1de0dc&#45;e67f&#45;48a4&#45;a851&#45;094d787bf910 -->
<g id="edge3" class="edge">
<title>start&#45;&gt;7e1de0dc&#45;e67f&#45;48a4&#45;a851&#45;094d787bf910</title>
<path fill="none" stroke="black" d="M1.34,-26.87C5.21,-26.87 21.95,-26.87 42.23,-26.87"/>
<polygon fill="black" stroke="black" points="42.44,-30.37 52.44,-26.87 42.44,-23.37 42.44,-30.37"/>
<text text-anchor="middle" x="26.8" y="-33.67" font-family="Helvetica,sans-Serif" font-size="14.00">Start</text>
</g>
<!-- end -->
<g id="node2" class="node">
<title>end</title>
</g>
<!-- 85810dbc&#45;e12d&#45;4401&#45;ba8b&#45;967fc1b0536d -->
<g id="node4" class="node">
<title>85810dbc&#45;e12d&#45;4401&#45;ba8b&#45;967fc1b0536d</title>
<ellipse fill="#ee0000" stroke="black" cx="360.5" cy="-26.87" rx="112.36" ry="26.74"/>
<text text-anchor="middle" x="360.5" y="-30.67" font-family="Helvetica,sans-Serif" font-size="14.00">✗ Modify</text>
<text text-anchor="middle" x="360.5" y="-15.67" font-family="Helvetica,sans-Serif" font-size="14.00">tests/test_oracles.py</text>
</g>
<!-- 7e1de0dc&#45;e67f&#45;48a4&#45;a851&#45;094d787bf910&#45;&gt;85810dbc&#45;e12d&#45;4401&#45;ba8b&#45;967fc1b0536d -->
<g id="edge1" class="edge">
<title>7e1de0dc&#45;e67f&#45;48a4&#45;a851&#45;094d787bf910&#45;&gt;85810dbc&#45;e12d&#45;4401&#45;ba8b&#45;967fc1b0536d</title>
<path fill="none" stroke="black" d="M212.66,-26.87C221,-26.87 229.35,-26.87 237.7,-26.87"/>
<polygon fill="black" stroke="black" points="237.88,-30.37 247.88,-26.87 237.88,-23.37 237.88,-30.37"/>
</g>
<!-- a24f8306&#45;9d8f&#45;460e&#45;8294&#45;746e8c479b10 -->
<g id="node5" class="node">
<title>a24f8306&#45;9d8f&#45;460e&#45;8294&#45;746e8c479b10</title>
<ellipse fill="#0ee832" stroke="black" cx="583.5" cy="-26.87" rx="74.91" ry="26.74"/>
<text text-anchor="middle" x="583.5" y="-30.67" font-family="Helvetica,sans-Serif" font-size="14.00">✓ Modify</text>
<text text-anchor="middle" x="583.5" y="-15.67" font-family="Helvetica,sans-Serif" font-size="14.00">src/config.py</text>
</g>
<!-- 85810dbc&#45;e12d&#45;4401&#45;ba8b&#45;967fc1b0536d&#45;&gt;a24f8306&#45;9d8f&#45;460e&#45;8294&#45;746e8c479b10 -->
<g id="edge2" class="edge">
<title>85810dbc&#45;e12d&#45;4401&#45;ba8b&#45;967fc1b0536d&#45;&gt;a24f8306&#45;9d8f&#45;460e&#45;8294&#45;746e8c479b10</title>
<path fill="none" stroke="black" d="M473.31,-26.87C481.57,-26.87 489.83,-26.87 498.09,-26.87"/>
<polygon fill="black" stroke="black" points="498.17,-30.37 508.17,-26.87 498.17,-23.37 498.17,-30.37"/>
</g>
<!-- a24f8306&#45;9d8f&#45;460e&#45;8294&#45;746e8c479b10&#45;&gt;end -->
<g id="edge4" class="edge">
<title>a24f8306&#45;9d8f&#45;460e&#45;8294&#45;746e8c479b10&#45;&gt;end</title>
<path fill="none" stroke="black" d="M658.55,-26.87C677.13,-26.87 694.81,-26.87 705.65,-26.87"/>
<polygon fill="black" stroke="black" points="705.79,-30.37 715.79,-26.87 705.79,-23.37 705.79,-30.37"/>
<text text-anchor="middle" x="687.23" y="-33.67" font-family="Helvetica,sans-Serif" font-size="14.00">Finish</text>
</g>
</g>
</svg>
