<?xml version="1.0" encoding="UTF-8" standalone="no"?>
<!DOCTYPE svg PUBLIC "-//W3C//DTD SVG 1.1//EN"
 "http://www.w3.org/Graphics/SVG/1.1/DTD/svg11.dtd">
<!-- Generated by graphviz version 2.43.0 (0)
 -->
<!-- Title: %3 Pages: 1 -->
<svg width="451pt" height="165pt"
 viewBox="0.00 0.00 451.00 164.74" xmlns="http://www.w3.org/2000/svg" xmlns:xlink="http://www.w3.org/1999/xlink">
<g id="graph0" class="graph" transform="scale(1 1) rotate(0) translate(36 128.74)">
<title>%3</title>
<polygon fill="dimgray" stroke="transparent" points="-36,36 -36,-128.74 415,-128.74 415,36 -36,36"/>
<text text-anchor="middle" x="189.5" y="-77.54" font-family="Helvetica,sans-Serif" font-size="14.00">Sweep&#39;s Plan &amp; Progress</text>
<!-- start -->
<g id="node1" class="node">
<title>start</title>
</g>
<!-- 2f5483da&#45;a3a3&#45;4e74&#45;8200&#45;d5c86e04eeff -->
<g id="node3" class="node">
<title>2f5483da&#45;a3a3&#45;4e74&#45;8200&#45;d5c86e04eeff</title>
<ellipse fill="yellow" stroke="black" cx="186.5" cy="-26.87" rx="133.79" ry="26.74"/>
<text text-anchor="middle" x="186.5" y="-30.67" font-family="Helvetica,sans-Serif" font-size="14.00">⋯ Modify</text>
<text text-anchor="middle" x="186.5" y="-15.67" font-family="Helvetica,sans-Serif" font-size="14.00">src/trading_strategies.py</text>
</g>
<!-- start&#45;&gt;2f5483da&#45;a3a3&#45;4e74&#45;8200&#45;d5c86e04eeff -->
<g id="edge1" class="edge">
<title>start&#45;&gt;2f5483da&#45;a3a3&#45;4e74&#45;8200&#45;d5c86e04eeff</title>
<path fill="none" stroke="black" d="M1.03,-26.87C4.15,-26.87 20.64,-26.87 42.6,-26.87"/>
<polygon fill="black" stroke="black" points="42.68,-30.37 52.68,-26.87 42.68,-23.37 42.68,-30.37"/>
<text text-anchor="middle" x="26.93" y="-33.67" font-family="Helvetica,sans-Serif" font-size="14.00">Start</text>
</g>
<!-- end -->
<g id="node2" class="node">
<title>end</title>
</g>
<!-- 2f5483da&#45;a3a3&#45;4e74&#45;8200&#45;d5c86e04eeff&#45;&gt;end -->
<g id="edge2" class="edge">
<title>2f5483da&#45;a3a3&#45;4e74&#45;8200&#45;d5c86e04eeff&#45;&gt;end</title>
<path fill="none" stroke="black" d="M320.37,-26.87C339.94,-26.87 357.01,-26.87 367.5,-26.87"/>
<polygon fill="black" stroke="black" points="367.84,-30.37 377.84,-26.87 367.84,-23.37 367.84,-30.37"/>
<text text-anchor="middle" x="349.07" y="-33.67" font-family="Helvetica,sans-Serif" font-size="14.00">Finish</text>
</g>
</g>
</svg>
