<?xml version="1.0" encoding="UTF-8" standalone="no"?>
<!DOCTYPE svg PUBLIC "-//W3C//DTD SVG 1.1//EN"
 "http://www.w3.org/Graphics/SVG/1.1/DTD/svg11.dtd">
<!-- Generated by graphviz version 2.43.0 (0)
 -->
<!-- Title: %3 Pages: 1 -->
<svg width="2076pt" height="238pt"
 viewBox="0.00 0.00 2076.00 237.74" xmlns="http://www.w3.org/2000/svg" xmlns:xlink="http://www.w3.org/1999/xlink">
<g id="graph0" class="graph" transform="scale(1 1) rotate(0) translate(36 201.74)">
<title>%3</title>
<polygon fill="dimgray" stroke="transparent" points="-36,36 -36,-201.74 2040,-201.74 2040,36 -36,36"/>
<text text-anchor="middle" x="1002" y="-150.54" font-family="Helvetica,sans-Serif" font-size="14.00">Sweep&#39;s Plan &amp; Progress</text>
<!-- start -->
<g id="node1" class="node">
<title>start</title>
</g>
<!-- 175b0dd5&#45;8741&#45;457f&#45;9560&#45;eaab1610d78a -->
<g id="node3" class="node">
<title>175b0dd5&#45;8741&#45;457f&#45;9560&#45;eaab1610d78a</title>
<ellipse fill="#0ee832" stroke="black" cx="222" cy="-99.87" rx="89.61" ry="26.74"/>
<text text-anchor="middle" x="222" y="-103.67" font-family="Helvetica,sans-Serif" font-size="14.00">✓ Modify</text>
<text text-anchor="middle" x="222" y="-88.67" font-family="Helvetica,sans-Serif" font-size="14.00">src/reporting.py</text>
</g>
<!-- start&#45;&gt;175b0dd5&#45;8741&#45;457f&#45;9560&#45;eaab1610d78a -->
<g id="edge12" class="edge">
<title>start&#45;&gt;175b0dd5&#45;8741&#45;457f&#45;9560&#45;eaab1610d78a</title>
<path fill="none" stroke="black" d="M80.91,-99.87C84.88,-99.87 101.5,-99.87 122.01,-99.87"/>
<polygon fill="black" stroke="black" points="122.01,-103.37 132.01,-99.87 122.01,-96.37 122.01,-103.37"/>
<text text-anchor="middle" x="106.35" y="-106.67" font-family="Helvetica,sans-Serif" font-size="14.00">Start</text>
</g>
<!-- end -->
<g id="node2" class="node">
<title>end</title>
</g>
<!-- 6407d420&#45;5830&#45;41cb&#45;a7c6&#45;9a85cfba0408 -->
<g id="node4" class="node">
<title>6407d420&#45;5830&#45;41cb&#45;a7c6&#45;9a85cfba0408</title>
<ellipse fill="#0ee832" stroke="black" cx="499" cy="-99.87" rx="89.61" ry="26.74"/>
<text text-anchor="middle" x="499" y="-103.67" font-family="Helvetica,sans-Serif" font-size="14.00">✓ Modify</text>
<text text-anchor="middle" x="499" y="-88.67" font-family="Helvetica,sans-Serif" font-size="14.00">src/reporting.py</text>
</g>
<!-- 175b0dd5&#45;8741&#45;457f&#45;9560&#45;eaab1610d78a&#45;&gt;6407d420&#45;5830&#45;41cb&#45;a7c6&#45;9a85cfba0408 -->
<g id="edge2" class="edge">
<title>175b0dd5&#45;8741&#45;457f&#45;9560&#45;eaab1610d78a&#45;&gt;6407d420&#45;5830&#45;41cb&#45;a7c6&#45;9a85cfba0408</title>
<path fill="none" stroke="black" d="M311.81,-99.87C340.81,-99.87 369.81,-99.87 398.8,-99.87"/>
<polygon fill="black" stroke="black" points="399.06,-103.37 409.06,-99.87 399.06,-96.37 399.06,-103.37"/>
</g>
<!-- 600098b1&#45;c033&#45;4aed&#45;8296&#45;3d16121bb0e0 -->
<g id="node9" class="node">
<title>600098b1&#45;c033&#45;4aed&#45;8296&#45;3d16121bb0e0</title>
<polygon fill="#0ee832" stroke="black" points="320,-36 0,-36 0,0 320,0 320,-36"/>
<text text-anchor="middle" x="160" y="-14.3" font-family="Helvetica,sans-Serif" font-size="14.00">✓ Run GitHub Actions for `src/reporting.py`</text>
</g>
<!-- 175b0dd5&#45;8741&#45;457f&#45;9560&#45;eaab1610d78a&#45;&gt;600098b1&#45;c033&#45;4aed&#45;8296&#45;3d16121bb0e0 -->
<g id="edge1" class="edge">
<title>175b0dd5&#45;8741&#45;457f&#45;9560&#45;eaab1610d78a&#45;&gt;600098b1&#45;c033&#45;4aed&#45;8296&#45;3d16121bb0e0</title>
<path fill="none" stroke="black" stroke-dasharray="5,2" d="M202.38,-73.6C195.1,-64.22 186.85,-53.59 179.58,-44.22"/>
<polygon fill="black" stroke="black" points="182.12,-41.79 173.22,-36.04 176.59,-46.08 182.12,-41.79"/>
</g>
<!-- 35ce2d94&#45;a57a&#45;423a&#45;9341&#45;4bb29ef4d20e -->
<g id="node5" class="node">
<title>35ce2d94&#45;a57a&#45;423a&#45;9341&#45;4bb29ef4d20e</title>
<ellipse fill="white" stroke="black" cx="837" cy="-99.87" rx="89.61" ry="26.74"/>
<text text-anchor="middle" x="837" y="-103.67" font-family="Helvetica,sans-Serif" font-size="14.00">▶ Modify</text>
<text text-anchor="middle" x="837" y="-88.67" font-family="Helvetica,sans-Serif" font-size="14.00">src/reporting.py</text>
</g>
<!-- 6407d420&#45;5830&#45;41cb&#45;a7c6&#45;9a85cfba0408&#45;&gt;35ce2d94&#45;a57a&#45;423a&#45;9341&#45;4bb29ef4d20e -->
<g id="edge4" class="edge">
<title>6407d420&#45;5830&#45;41cb&#45;a7c6&#45;9a85cfba0408&#45;&gt;35ce2d94&#45;a57a&#45;423a&#45;9341&#45;4bb29ef4d20e</title>
<path fill="none" stroke="black" d="M589.11,-99.87C638.33,-99.87 687.55,-99.87 736.77,-99.87"/>
<polygon fill="black" stroke="black" points="736.95,-103.37 746.95,-99.87 736.95,-96.37 736.95,-103.37"/>
</g>
<!-- df646248&#45;ea30&#45;4441&#45;a758&#45;36a9ae8a004d -->
<g id="node10" class="node">
<title>df646248&#45;ea30&#45;4441&#45;a758&#45;36a9ae8a004d</title>
<polygon fill="yellow" stroke="black" points="660,-36 338,-36 338,0 660,0 660,-36"/>
<text text-anchor="middle" x="499" y="-14.3" font-family="Helvetica,sans-Serif" font-size="14.00">⋯ Run GitHub Actions for `src/reporting.py`</text>
</g>
<!-- 6407d420&#45;5830&#45;41cb&#45;a7c6&#45;9a85cfba0408&#45;&gt;df646248&#45;ea30&#45;4441&#45;a758&#45;36a9ae8a004d -->
<g id="edge3" class="edge">
<title>6407d420&#45;5830&#45;41cb&#45;a7c6&#45;9a85cfba0408&#45;&gt;df646248&#45;ea30&#45;4441&#45;a758&#45;36a9ae8a004d</title>
<path fill="none" stroke="black" stroke-dasharray="5,2" d="M499,-72.72C499,-64.27 499,-54.89 499,-46.36"/>
<polygon fill="black" stroke="black" points="502.5,-46.15 499,-36.15 495.5,-46.15 502.5,-46.15"/>
</g>
<!-- ae10d23e&#45;6ca0&#45;4277&#45;90b2&#45;f3aa7a472588 -->
<g id="node6" class="node">
<title>ae10d23e&#45;6ca0&#45;4277&#45;90b2&#45;f3aa7a472588</title>
<ellipse fill="white" stroke="black" cx="1173" cy="-99.87" rx="89.61" ry="26.74"/>
<text text-anchor="middle" x="1173" y="-103.67" font-family="Helvetica,sans-Serif" font-size="14.00">▶ Modify</text>
<text text-anchor="middle" x="1173" y="-88.67" font-family="Helvetica,sans-Serif" font-size="14.00">src/reporting.py</text>
</g>
<!-- 35ce2d94&#45;a57a&#45;423a&#45;9341&#45;4bb29ef4d20e&#45;&gt;ae10d23e&#45;6ca0&#45;4277&#45;90b2&#45;f3aa7a472588 -->
<g id="edge6" class="edge">
<title>35ce2d94&#45;a57a&#45;423a&#45;9341&#45;4bb29ef4d20e&#45;&gt;ae10d23e&#45;6ca0&#45;4277&#45;90b2&#45;f3aa7a472588</title>
<path fill="none" stroke="black" d="M926.91,-99.87C975.62,-99.87 1024.34,-99.87 1073.05,-99.87"/>
<polygon fill="black" stroke="black" points="1073.12,-103.37 1083.12,-99.87 1073.12,-96.37 1073.12,-103.37"/>
</g>
<!-- d4fd55f4&#45;94bd&#45;4328&#45;83a7&#45;f66c669c69b3 -->
<g id="node11" class="node">
<title>d4fd55f4&#45;94bd&#45;4328&#45;83a7&#45;f66c669c69b3</title>
<polygon fill="white" stroke="black" points="996,-36 678,-36 678,0 996,0 996,-36"/>
<text text-anchor="middle" x="837" y="-14.3" font-family="Helvetica,sans-Serif" font-size="14.00">▶ Run GitHub Actions for `src/reporting.py`</text>
</g>
<!-- 35ce2d94&#45;a57a&#45;423a&#45;9341&#45;4bb29ef4d20e&#45;&gt;d4fd55f4&#45;94bd&#45;4328&#45;83a7&#45;f66c669c69b3 -->
<g id="edge5" class="edge">
<title>35ce2d94&#45;a57a&#45;423a&#45;9341&#45;4bb29ef4d20e&#45;&gt;d4fd55f4&#45;94bd&#45;4328&#45;83a7&#45;f66c669c69b3</title>
<path fill="none" stroke="black" stroke-dasharray="5,2" d="M837,-72.72C837,-64.27 837,-54.89 837,-46.36"/>
<polygon fill="black" stroke="black" points="840.5,-46.15 837,-36.15 833.5,-46.15 840.5,-46.15"/>
</g>
<!-- b3e3e04d&#45;9d4b&#45;4de8&#45;a9e1&#45;2eb18bb7ba53 -->
<g id="node7" class="node">
<title>b3e3e04d&#45;9d4b&#45;4de8&#45;a9e1&#45;2eb18bb7ba53</title>
<ellipse fill="white" stroke="black" cx="1509" cy="-99.87" rx="89.61" ry="26.74"/>
<text text-anchor="middle" x="1509" y="-103.67" font-family="Helvetica,sans-Serif" font-size="14.00">▶ Modify</text>
<text text-anchor="middle" x="1509" y="-88.67" font-family="Helvetica,sans-Serif" font-size="14.00">src/reporting.py</text>
</g>
<!-- ae10d23e&#45;6ca0&#45;4277&#45;90b2&#45;f3aa7a472588&#45;&gt;b3e3e04d&#45;9d4b&#45;4de8&#45;a9e1&#45;2eb18bb7ba53 -->
<g id="edge8" class="edge">
<title>ae10d23e&#45;6ca0&#45;4277&#45;90b2&#45;f3aa7a472588&#45;&gt;b3e3e04d&#45;9d4b&#45;4de8&#45;a9e1&#45;2eb18bb7ba53</title>
<path fill="none" stroke="black" d="M1262.91,-99.87C1311.62,-99.87 1360.34,-99.87 1409.05,-99.87"/>
<polygon fill="black" stroke="black" points="1409.12,-103.37 1419.12,-99.87 1409.12,-96.37 1409.12,-103.37"/>
</g>
<!-- b1b9230f&#45;42bf&#45;4732&#45;84e0&#45;041c4d89a018 -->
<g id="node12" class="node">
<title>b1b9230f&#45;42bf&#45;4732&#45;84e0&#45;041c4d89a018</title>
<polygon fill="white" stroke="black" points="1332,-36 1014,-36 1014,0 1332,0 1332,-36"/>
<text text-anchor="middle" x="1173" y="-14.3" font-family="Helvetica,sans-Serif" font-size="14.00">▶ Run GitHub Actions for `src/reporting.py`</text>
</g>
<!-- ae10d23e&#45;6ca0&#45;4277&#45;90b2&#45;f3aa7a472588&#45;&gt;b1b9230f&#45;42bf&#45;4732&#45;84e0&#45;041c4d89a018 -->
<g id="edge7" class="edge">
<title>ae10d23e&#45;6ca0&#45;4277&#45;90b2&#45;f3aa7a472588&#45;&gt;b1b9230f&#45;42bf&#45;4732&#45;84e0&#45;041c4d89a018</title>
<path fill="none" stroke="black" stroke-dasharray="5,2" d="M1173,-72.72C1173,-64.27 1173,-54.89 1173,-46.36"/>
<polygon fill="black" stroke="black" points="1176.5,-46.15 1173,-36.15 1169.5,-46.15 1176.5,-46.15"/>
</g>
<!-- 7d3b15e2&#45;43b7&#45;4f60&#45;85ee&#45;213996139226 -->
<g id="node8" class="node">
<title>7d3b15e2&#45;43b7&#45;4f60&#45;85ee&#45;213996139226</title>
<ellipse fill="white" stroke="black" cx="1785" cy="-99.87" rx="89.61" ry="26.74"/>
<text text-anchor="middle" x="1785" y="-103.67" font-family="Helvetica,sans-Serif" font-size="14.00">▶ Modify</text>
<text text-anchor="middle" x="1785" y="-88.67" font-family="Helvetica,sans-Serif" font-size="14.00">src/reporting.py</text>
</g>
<!-- b3e3e04d&#45;9d4b&#45;4de8&#45;a9e1&#45;2eb18bb7ba53&#45;&gt;7d3b15e2&#45;43b7&#45;4f60&#45;85ee&#45;213996139226 -->
<g id="edge10" class="edge">
<title>b3e3e04d&#45;9d4b&#45;4de8&#45;a9e1&#45;2eb18bb7ba53&#45;&gt;7d3b15e2&#45;43b7&#45;4f60&#45;85ee&#45;213996139226</title>
<path fill="none" stroke="black" d="M1599.02,-99.87C1627.62,-99.87 1656.21,-99.87 1684.8,-99.87"/>
<polygon fill="black" stroke="black" points="1684.92,-103.37 1694.92,-99.87 1684.92,-96.37 1684.92,-103.37"/>
</g>
<!-- 1d4ec9ea&#45;37b3&#45;41fe&#45;80c1&#45;dd709cb21ddc -->
<g id="node13" class="node">
<title>1d4ec9ea&#45;37b3&#45;41fe&#45;80c1&#45;dd709cb21ddc</title>
<polygon fill="white" stroke="black" points="1668,-36 1350,-36 1350,0 1668,0 1668,-36"/>
<text text-anchor="middle" x="1509" y="-14.3" font-family="Helvetica,sans-Serif" font-size="14.00">▶ Run GitHub Actions for `src/reporting.py`</text>
</g>
<!-- b3e3e04d&#45;9d4b&#45;4de8&#45;a9e1&#45;2eb18bb7ba53&#45;&gt;1d4ec9ea&#45;37b3&#45;41fe&#45;80c1&#45;dd709cb21ddc -->
<g id="edge9" class="edge">
<title>b3e3e04d&#45;9d4b&#45;4de8&#45;a9e1&#45;2eb18bb7ba53&#45;&gt;1d4ec9ea&#45;37b3&#45;41fe&#45;80c1&#45;dd709cb21ddc</title>
<path fill="none" stroke="black" stroke-dasharray="5,2" d="M1509,-72.72C1509,-64.27 1509,-54.89 1509,-46.36"/>
<polygon fill="black" stroke="black" points="1512.5,-46.15 1509,-36.15 1505.5,-46.15 1512.5,-46.15"/>
</g>
<!-- 7d3b15e2&#45;43b7&#45;4f60&#45;85ee&#45;213996139226&#45;&gt;end -->
<g id="edge13" class="edge">
<title>7d3b15e2&#45;43b7&#45;4f60&#45;85ee&#45;213996139226&#45;&gt;end</title>
<path fill="none" stroke="black" d="M1874.93,-99.87C1893.8,-99.87 1911.22,-99.87 1921.96,-99.87"/>
<polygon fill="black" stroke="black" points="1922.31,-103.37 1932.31,-99.87 1922.31,-96.37 1922.31,-103.37"/>
<text text-anchor="middle" x="1903.65" y="-106.67" font-family="Helvetica,sans-Serif" font-size="14.00">Finish</text>
</g>
<!-- 69728e5d&#45;b6b9&#45;4aeb&#45;9662&#45;7791ed7298f0 -->
<g id="node14" class="node">
<title>69728e5d&#45;b6b9&#45;4aeb&#45;9662&#45;7791ed7298f0</title>
<polygon fill="white" stroke="black" points="2004,-36 1686,-36 1686,0 2004,0 2004,-36"/>
<text text-anchor="middle" x="1845" y="-14.3" font-family="Helvetica,sans-Serif" font-size="14.00">▶ Run GitHub Actions for `src/reporting.py`</text>
</g>
<!-- 7d3b15e2&#45;43b7&#45;4f60&#45;85ee&#45;213996139226&#45;&gt;69728e5d&#45;b6b9&#45;4aeb&#45;9662&#45;7791ed7298f0 -->
<g id="edge11" class="edge">
<title>7d3b15e2&#45;43b7&#45;4f60&#45;85ee&#45;213996139226&#45;&gt;69728e5d&#45;b6b9&#45;4aeb&#45;9662&#45;7791ed7298f0</title>
<path fill="none" stroke="black" stroke-dasharray="5,2" d="M1803.98,-73.6C1811.03,-64.22 1819.01,-53.59 1826.06,-44.22"/>
<polygon fill="black" stroke="black" points="1828.99,-46.13 1832.2,-36.04 1823.4,-41.93 1828.99,-46.13"/>
</g>
</g>
</svg>
