<?xml version="1.0" encoding="UTF-8" standalone="no"?>
<!DOCTYPE svg PUBLIC "-//W3C//DTD SVG 1.1//EN"
 "http://www.w3.org/Graphics/SVG/1.1/DTD/svg11.dtd">
<!-- Generated by graphviz version 2.43.0 (0)
 -->
<!-- Title: %3 Pages: 1 -->
<svg width="380pt" height="238pt"
 viewBox="0.00 0.00 380.00 237.74" xmlns="http://www.w3.org/2000/svg" xmlns:xlink="http://www.w3.org/1999/xlink">
<g id="graph0" class="graph" transform="scale(1 1) rotate(0) translate(36 201.74)">
<title>%3</title>
<polygon fill="dimgray" stroke="transparent" points="-36,36 -36,-201.74 344,-201.74 344,36 -36,36"/>
<text text-anchor="middle" x="154" y="-150.54" font-family="Helvetica,sans-Serif" font-size="14.00">Sweep&#39;s Plan &amp; Progress</text>
<!-- start -->
<g id="node1" class="node">
<title>start</title>
</g>
<!-- fc7fb417&#45;c793&#45;4436&#45;b649&#45;ae2aec898d6a -->
<g id="node3" class="node">
<title>fc7fb417&#45;c793&#45;4436&#45;b649&#45;ae2aec898d6a</title>
<ellipse fill="yellow" stroke="black" cx="154" cy="-99.87" rx="82.05" ry="26.74"/>
<text text-anchor="middle" x="154" y="-103.67" font-family="Helvetica,sans-Serif" font-size="14.00">⋯ Modify</text>
<text text-anchor="middle" x="154" y="-88.67" font-family="Helvetica,sans-Serif" font-size="14.00">src/security.py</text>
</g>
<!-- start&#45;&gt;fc7fb417&#45;c793&#45;4436&#45;b649&#45;ae2aec898d6a -->
<g id="edge2" class="edge">
<title>start&#45;&gt;fc7fb417&#45;c793&#45;4436&#45;b649&#45;ae2aec898d6a</title>
<path fill="none" stroke="black" d="M20.86,-99.87C24.73,-99.87 41.28,-99.87 61.46,-99.87"/>
<polygon fill="black" stroke="black" points="61.63,-103.37 71.63,-99.87 61.63,-96.37 61.63,-103.37"/>
<text text-anchor="middle" x="46.24" y="-106.67" font-family="Helvetica,sans-Serif" font-size="14.00">Start</text>
</g>
<!-- end -->
<g id="node2" class="node">
<title>end</title>
</g>
<!-- fc7fb417&#45;c793&#45;4436&#45;b649&#45;ae2aec898d6a&#45;&gt;end -->
<g id="edge3" class="edge">
<title>fc7fb417&#45;c793&#45;4436&#45;b649&#45;ae2aec898d6a&#45;&gt;end</title>
<path fill="none" stroke="black" d="M236.25,-99.87C255.02,-99.87 272.58,-99.87 283.3,-99.87"/>
<polygon fill="black" stroke="black" points="283.3,-103.37 293.3,-99.87 283.3,-96.37 283.3,-103.37"/>
<text text-anchor="middle" x="264.76" y="-106.67" font-family="Helvetica,sans-Serif" font-size="14.00">Finish</text>
</g>
<!-- 3c9e0a14&#45;e3cd&#45;411a&#45;9e9d&#45;2939f6a44a7f -->
<g id="node4" class="node">
<title>3c9e0a14&#45;e3cd&#45;411a&#45;9e9d&#45;2939f6a44a7f</title>
<polygon fill="white" stroke="black" points="308,-36 0,-36 0,0 308,0 308,-36"/>
<text text-anchor="middle" x="154" y="-14.3" font-family="Helvetica,sans-Serif" font-size="14.00">▶ Run GitHub Actions for `src/security.py`</text>
</g>
<!-- fc7fb417&#45;c793&#45;4436&#45;b649&#45;ae2aec898d6a&#45;&gt;3c9e0a14&#45;e3cd&#45;411a&#45;9e9d&#45;2939f6a44a7f -->
<g id="edge1" class="edge">
<title>fc7fb417&#45;c793&#45;4436&#45;b649&#45;ae2aec898d6a&#45;&gt;3c9e0a14&#45;e3cd&#45;411a&#45;9e9d&#45;2939f6a44a7f</title>
<path fill="none" stroke="black" stroke-dasharray="5,2" d="M154,-72.72C154,-64.27 154,-54.89 154,-46.36"/>
<polygon fill="black" stroke="black" points="157.5,-46.15 154,-36.15 150.5,-46.15 157.5,-46.15"/>
</g>
</g>
</svg>
