<?xml version="1.0" encoding="UTF-8" standalone="no"?>
<!DOCTYPE svg PUBLIC "-//W3C//DTD SVG 1.1//EN"
 "http://www.w3.org/Graphics/SVG/1.1/DTD/svg11.dtd">
<!-- Generated by graphviz version 2.43.0 (0)
 -->
<!-- Title: %3 Pages: 1 -->
<svg width="345pt" height="165pt"
 viewBox="0.00 0.00 345.00 164.74" xmlns="http://www.w3.org/2000/svg" xmlns:xlink="http://www.w3.org/1999/xlink">
<g id="graph0" class="graph" transform="scale(1 1) rotate(0) translate(36 128.74)">
<title>%3</title>
<polygon fill="dimgray" stroke="transparent" points="-36,36 -36,-128.74 309,-128.74 309,36 -36,36"/>
<text text-anchor="middle" x="136.5" y="-77.54" font-family="Helvetica,sans-Serif" font-size="14.00">Sweep&#39;s Plan &amp; Progress</text>
<!-- start -->
<g id="node1" class="node">
<title>start</title>
</g>
<!-- 0f904cbe&#45;8f04&#45;4afd&#45;887c&#45;8aeb9c3010b3 -->
<g id="node3" class="node">
<title>0f904cbe&#45;8f04&#45;4afd&#45;887c&#45;8aeb9c3010b3</title>
<ellipse fill="#0ee832" stroke="black" cx="133.5" cy="-26.87" rx="80.72" ry="26.74"/>
<text text-anchor="middle" x="133.5" y="-30.67" font-family="Helvetica,sans-Serif" font-size="14.00">✓ Modify</text>
<text text-anchor="middle" x="133.5" y="-15.67" font-family="Helvetica,sans-Serif" font-size="14.00">src/staking.py</text>
</g>
<!-- start&#45;&gt;0f904cbe&#45;8f04&#45;4afd&#45;887c&#45;8aeb9c3010b3 -->
<g id="edge1" class="edge">
<title>start&#45;&gt;0f904cbe&#45;8f04&#45;4afd&#45;887c&#45;8aeb9c3010b3</title>
<path fill="none" stroke="black" d="M1.35,-26.87C5.26,-26.87 22.26,-26.87 42.83,-26.87"/>
<polygon fill="black" stroke="black" points="42.83,-30.37 52.83,-26.87 42.83,-23.37 42.83,-30.37"/>
<text text-anchor="middle" x="26.94" y="-33.67" font-family="Helvetica,sans-Serif" font-size="14.00">Start</text>
</g>
<!-- end -->
<g id="node2" class="node">
<title>end</title>
</g>
<!-- 0f904cbe&#45;8f04&#45;4afd&#45;887c&#45;8aeb9c3010b3&#45;&gt;end -->
<g id="edge2" class="edge">
<title>0f904cbe&#45;8f04&#45;4afd&#45;887c&#45;8aeb9c3010b3&#45;&gt;end</title>
<path fill="none" stroke="black" d="M214.36,-26.87C233.19,-26.87 250.88,-26.87 261.69,-26.87"/>
<polygon fill="black" stroke="black" points="261.79,-30.37 271.79,-26.87 261.79,-23.37 261.79,-30.37"/>
<text text-anchor="middle" x="243.06" y="-33.67" font-family="Helvetica,sans-Serif" font-size="14.00">Finish</text>
</g>
</g>
</svg>
