<?xml version="1.0" encoding="UTF-8" standalone="no"?>
<!DOCTYPE svg PUBLIC "-//W3C//DTD SVG 1.1//EN"
 "http://www.w3.org/Graphics/SVG/1.1/DTD/svg11.dtd">
<!-- Generated by graphviz version 2.43.0 (0)
 -->
<!-- Title: %3 Pages: 1 -->
<svg width="383pt" height="238pt"
 viewBox="0.00 0.00 383.00 237.74" xmlns="http://www.w3.org/2000/svg" xmlns:xlink="http://www.w3.org/1999/xlink">
<g id="graph0" class="graph" transform="scale(1 1) rotate(0) translate(36 201.74)">
<title>%3</title>
<polygon fill="dimgray" stroke="transparent" points="-36,36 -36,-201.74 347,-201.74 347,36 -36,36"/>
<text text-anchor="middle" x="155.5" y="-150.54" font-family="Helvetica,sans-Serif" font-size="14.00">Sweep&#39;s Plan &amp; Progress</text>
<!-- start -->
<g id="node1" class="node">
<title>start</title>
</g>
<!-- fc7fb417&#45;c793&#45;4436&#45;b649&#45;ae2aec898d6a -->
<g id="node3" class="node">
<title>fc7fb417&#45;c793&#45;4436&#45;b649&#45;ae2aec898d6a</title>
<ellipse fill="#0ee832" stroke="black" cx="155.5" cy="-99.87" rx="82.05" ry="26.74"/>
<text text-anchor="middle" x="155.5" y="-103.67" font-family="Helvetica,sans-Serif" font-size="14.00">✓ Modify</text>
<text text-anchor="middle" x="155.5" y="-88.67" font-family="Helvetica,sans-Serif" font-size="14.00">src/security.py</text>
</g>
<!-- start&#45;&gt;fc7fb417&#45;c793&#45;4436&#45;b649&#45;ae2aec898d6a -->
<g id="edge2" class="edge">
<title>start&#45;&gt;fc7fb417&#45;c793&#45;4436&#45;b649&#45;ae2aec898d6a</title>
<path fill="none" stroke="black" d="M22.36,-99.87C26.23,-99.87 42.78,-99.87 62.96,-99.87"/>
<polygon fill="black" stroke="black" points="63.13,-103.37 73.13,-99.87 63.13,-96.37 63.13,-103.37"/>
<text text-anchor="middle" x="47.74" y="-106.67" font-family="Helvetica,sans-Serif" font-size="14.00">Start</text>
</g>
<!-- end -->
<g id="node2" class="node">
<title>end</title>
</g>
<!-- fc7fb417&#45;c793&#45;4436&#45;b649&#45;ae2aec898d6a&#45;&gt;end -->
<g id="edge3" class="edge">
<title>fc7fb417&#45;c793&#45;4436&#45;b649&#45;ae2aec898d6a&#45;&gt;end</title>
<path fill="none" stroke="black" d="M237.75,-99.87C256.52,-99.87 274.08,-99.87 284.8,-99.87"/>
<polygon fill="black" stroke="black" points="284.8,-103.37 294.8,-99.87 284.8,-96.37 284.8,-103.37"/>
<text text-anchor="middle" x="266.26" y="-106.67" font-family="Helvetica,sans-Serif" font-size="14.00">Finish</text>
</g>
<!-- 3c9e0a14&#45;e3cd&#45;411a&#45;9e9d&#45;2939f6a44a7f -->
<g id="node4" class="node">
<title>3c9e0a14&#45;e3cd&#45;411a&#45;9e9d&#45;2939f6a44a7f</title>
<polygon fill="yellow" stroke="black" points="311,-36 0,-36 0,0 311,0 311,-36"/>
<text text-anchor="middle" x="155.5" y="-14.3" font-family="Helvetica,sans-Serif" font-size="14.00">⋯ Run GitHub Actions for `src/security.py`</text>
</g>
<!-- fc7fb417&#45;c793&#45;4436&#45;b649&#45;ae2aec898d6a&#45;&gt;3c9e0a14&#45;e3cd&#45;411a&#45;9e9d&#45;2939f6a44a7f -->
<g id="edge1" class="edge">
<title>fc7fb417&#45;c793&#45;4436&#45;b649&#45;ae2aec898d6a&#45;&gt;3c9e0a14&#45;e3cd&#45;411a&#45;9e9d&#45;2939f6a44a7f</title>
<path fill="none" stroke="black" stroke-dasharray="5,2" d="M155.5,-72.72C155.5,-64.27 155.5,-54.89 155.5,-46.36"/>
<polygon fill="black" stroke="black" points="159,-46.15 155.5,-36.15 152,-46.15 159,-46.15"/>
</g>
</g>
</svg>
