<?xml version="1.0" encoding="UTF-8" standalone="no"?>
<!DOCTYPE svg PUBLIC "-//W3C//DTD SVG 1.1//EN"
 "http://www.w3.org/Graphics/SVG/1.1/DTD/svg11.dtd">
<!-- Generated by graphviz version 2.43.0 (0)
 -->
<!-- Title: %3 Pages: 1 -->
<svg width="778pt" height="238pt"
 viewBox="0.00 0.00 777.50 237.74" xmlns="http://www.w3.org/2000/svg" xmlns:xlink="http://www.w3.org/1999/xlink">
<g id="graph0" class="graph" transform="scale(1 1) rotate(0) translate(36 201.74)">
<title>%3</title>
<polygon fill="dimgray" stroke="transparent" points="-36,36 -36,-201.74 741.5,-201.74 741.5,36 -36,36"/>
<text text-anchor="middle" x="352.75" y="-150.54" font-family="Helvetica,sans-Serif" font-size="14.00">Sweep&#39;s Plan &amp; Progress</text>
<!-- start -->
<g id="node1" class="node">
<title>start</title>
</g>
<!-- 0b7d95a9&#45;9d5f&#45;463a&#45;86f3&#45;2f2186655f39 -->
<g id="node3" class="node">
<title>0b7d95a9&#45;9d5f&#45;463a&#45;86f3&#45;2f2186655f39</title>
<ellipse fill="#0ee832" stroke="black" cx="216.5" cy="-99.87" rx="90.52" ry="26.74"/>
<text text-anchor="middle" x="216.5" y="-103.67" font-family="Helvetica,sans-Serif" font-size="14.00">✓ Modify</text>
<text text-anchor="middle" x="216.5" y="-88.67" font-family="Helvetica,sans-Serif" font-size="14.00">src/some_file.py</text>
</g>
<!-- start&#45;&gt;0b7d95a9&#45;9d5f&#45;463a&#45;86f3&#45;2f2186655f39 -->
<g id="edge4" class="edge">
<title>start&#45;&gt;0b7d95a9&#45;9d5f&#45;463a&#45;86f3&#45;2f2186655f39</title>
<path fill="none" stroke="black" d="M74.14,-99.87C77.56,-99.87 94.42,-99.87 115.41,-99.87"/>
<polygon fill="black" stroke="black" points="115.65,-103.37 125.65,-99.87 115.65,-96.37 115.65,-103.37"/>
<text text-anchor="middle" x="100" y="-106.67" font-family="Helvetica,sans-Serif" font-size="14.00">Start</text>
</g>
<!-- end -->
<g id="node2" class="node">
<title>end</title>
</g>
<!-- b31a5a37&#45;c9e3&#45;4d64&#45;a782&#45;90f0e432b410 -->
<g id="node4" class="node">
<title>b31a5a37&#45;c9e3&#45;4d64&#45;a782&#45;90f0e432b410</title>
<ellipse fill="white" stroke="black" cx="494.5" cy="-99.87" rx="123.99" ry="26.74"/>
<text text-anchor="middle" x="494.5" y="-103.67" font-family="Helvetica,sans-Serif" font-size="14.00">▶ Create</text>
<text text-anchor="middle" x="494.5" y="-88.67" font-family="Helvetica,sans-Serif" font-size="14.00">tests/test_some_file.py</text>
</g>
<!-- 0b7d95a9&#45;9d5f&#45;463a&#45;86f3&#45;2f2186655f39&#45;&gt;b31a5a37&#45;c9e3&#45;4d64&#45;a782&#45;90f0e432b410 -->
<g id="edge2" class="edge">
<title>0b7d95a9&#45;9d5f&#45;463a&#45;86f3&#45;2f2186655f39&#45;&gt;b31a5a37&#45;c9e3&#45;4d64&#45;a782&#45;90f0e432b410</title>
<path fill="none" stroke="black" d="M307.18,-99.87C324.81,-99.87 342.45,-99.87 360.09,-99.87"/>
<polygon fill="black" stroke="black" points="360.47,-103.37 370.47,-99.87 360.47,-96.37 360.47,-103.37"/>
</g>
<!-- b9c3fe43&#45;6a5a&#45;470c&#45;9be2&#45;373f76fd9ac2 -->
<g id="node5" class="node">
<title>b9c3fe43&#45;6a5a&#45;470c&#45;9be2&#45;373f76fd9ac2</title>
<polygon fill="#0ee832" stroke="black" points="321,-36 0,-36 0,0 321,0 321,-36"/>
<text text-anchor="middle" x="160.5" y="-14.3" font-family="Helvetica,sans-Serif" font-size="14.00">✓ Run GitHub Actions for `src/some_file.py`</text>
</g>
<!-- 0b7d95a9&#45;9d5f&#45;463a&#45;86f3&#45;2f2186655f39&#45;&gt;b9c3fe43&#45;6a5a&#45;470c&#45;9be2&#45;373f76fd9ac2 -->
<g id="edge1" class="edge">
<title>0b7d95a9&#45;9d5f&#45;463a&#45;86f3&#45;2f2186655f39&#45;&gt;b9c3fe43&#45;6a5a&#45;470c&#45;9be2&#45;373f76fd9ac2</title>
<path fill="none" stroke="black" stroke-dasharray="5,2" d="M198.47,-73.16C192.08,-64.04 184.88,-53.77 178.49,-44.65"/>
<polygon fill="black" stroke="black" points="181.26,-42.52 172.66,-36.34 175.53,-46.53 181.26,-42.52"/>
</g>
<!-- b31a5a37&#45;c9e3&#45;4d64&#45;a782&#45;90f0e432b410&#45;&gt;end -->
<g id="edge5" class="edge">
<title>b31a5a37&#45;c9e3&#45;4d64&#45;a782&#45;90f0e432b410&#45;&gt;end</title>
<path fill="none" stroke="black" d="M618.41,-99.87C638.04,-99.87 655.3,-99.87 665.8,-99.87"/>
<polygon fill="black" stroke="black" points="665.83,-103.37 675.83,-99.87 665.83,-96.37 665.83,-103.37"/>
<text text-anchor="middle" x="647.12" y="-106.67" font-family="Helvetica,sans-Serif" font-size="14.00">Finish</text>
</g>
<!-- 4ac12e87&#45;8658&#45;4250&#45;a7de&#45;c4a15cb0d26b -->
<g id="node6" class="node">
<title>4ac12e87&#45;8658&#45;4250&#45;a7de&#45;c4a15cb0d26b</title>
<polygon fill="white" stroke="black" points="705.5,-36 339.5,-36 339.5,0 705.5,0 705.5,-36"/>
<text text-anchor="middle" x="522.5" y="-14.3" font-family="Helvetica,sans-Serif" font-size="14.00">▶ Run GitHub Actions for `tests/test_some_file.py`</text>
</g>
<!-- b31a5a37&#45;c9e3&#45;4d64&#45;a782&#45;90f0e432b410&#45;&gt;4ac12e87&#45;8658&#45;4250&#45;a7de&#45;c4a15cb0d26b -->
<g id="edge3" class="edge">
<title>b31a5a37&#45;c9e3&#45;4d64&#45;a782&#45;90f0e432b410&#45;&gt;4ac12e87&#45;8658&#45;4250&#45;a7de&#45;c4a15cb0d26b</title>
<path fill="none" stroke="black" stroke-dasharray="5,2" d="M503.67,-72.72C506.69,-64.08 510.06,-54.47 513.11,-45.79"/>
<polygon fill="black" stroke="black" points="516.48,-46.74 516.49,-36.15 509.88,-44.43 516.48,-46.74"/>
</g>
</g>
</svg>
