<?xml version="1.0" encoding="UTF-8" standalone="no"?>
<!DOCTYPE svg PUBLIC "-//W3C//DTD SVG 1.1//EN"
 "http://www.w3.org/Graphics/SVG/1.1/DTD/svg11.dtd">
<!-- Generated by graphviz version 2.43.0 (0)
 -->
<!-- Title: %3 Pages: 1 -->
<svg width="471pt" height="165pt"
 viewBox="0.00 0.00 471.00 164.74" xmlns="http://www.w3.org/2000/svg" xmlns:xlink="http://www.w3.org/1999/xlink">
<g id="graph0" class="graph" transform="scale(1 1) rotate(0) translate(36 128.74)">
<title>%3</title>
<polygon fill="dimgray" stroke="transparent" points="-36,36 -36,-128.74 435,-128.74 435,36 -36,36"/>
<text text-anchor="middle" x="199.5" y="-77.54" font-family="Helvetica,sans-Serif" font-size="14.00">Sweep&#39;s Plan &amp; Progress</text>
<!-- start -->
<g id="node1" class="node">
<title>start</title>
</g>
<!-- 671cda88&#45;1fd1&#45;4687&#45;89d0&#45;b813b90c6012 -->
<g id="node3" class="node">
<title>671cda88&#45;1fd1&#45;4687&#45;89d0&#45;b813b90c6012</title>
<ellipse fill="#0ee832" stroke="black" cx="196.5" cy="-26.87" rx="143.59" ry="26.74"/>
<text text-anchor="middle" x="196.5" y="-30.67" font-family="Helvetica,sans-Serif" font-size="14.00">✓ Modify</text>
<text text-anchor="middle" x="196.5" y="-15.67" font-family="Helvetica,sans-Serif" font-size="14.00">tests/test_yield_farming.py</text>
</g>
<!-- start&#45;&gt;671cda88&#45;1fd1&#45;4687&#45;89d0&#45;b813b90c6012 -->
<g id="edge1" class="edge">
<title>start&#45;&gt;671cda88&#45;1fd1&#45;4687&#45;89d0&#45;b813b90c6012</title>
<path fill="none" stroke="black" d="M1.06,-26.87C4.23,-26.87 20.5,-26.87 42.41,-26.87"/>
<polygon fill="black" stroke="black" points="42.48,-30.37 52.48,-26.87 42.48,-23.37 42.48,-30.37"/>
<text text-anchor="middle" x="26.98" y="-33.67" font-family="Helvetica,sans-Serif" font-size="14.00">Start</text>
</g>
<!-- end -->
<g id="node2" class="node">
<title>end</title>
</g>
<!-- 671cda88&#45;1fd1&#45;4687&#45;89d0&#45;b813b90c6012&#45;&gt;end -->
<g id="edge2" class="edge">
<title>671cda88&#45;1fd1&#45;4687&#45;89d0&#45;b813b90c6012&#45;&gt;end</title>
<path fill="none" stroke="black" d="M340.07,-26.87C359.87,-26.87 377,-26.87 387.5,-26.87"/>
<polygon fill="black" stroke="black" points="387.84,-30.37 397.84,-26.87 387.84,-23.37 387.84,-30.37"/>
<text text-anchor="middle" x="369.02" y="-33.67" font-family="Helvetica,sans-Serif" font-size="14.00">Finish</text>
</g>
</g>
</svg>
