<?xml version="1.0" encoding="UTF-8" standalone="no"?>
<!DOCTYPE svg PUBLIC "-//W3C//DTD SVG 1.1//EN"
 "http://www.w3.org/Graphics/SVG/1.1/DTD/svg11.dtd">
<!-- Generated by graphviz version 2.43.0 (0)
 -->
<!-- Title: %3 Pages: 1 -->
<svg width="517pt" height="165pt"
 viewBox="0.00 0.00 517.00 164.74" xmlns="http://www.w3.org/2000/svg" xmlns:xlink="http://www.w3.org/1999/xlink">
<g id="graph0" class="graph" transform="scale(1 1) rotate(0) translate(36 128.74)">
<title>%3</title>
<polygon fill="dimgray" stroke="transparent" points="-36,36 -36,-128.74 481,-128.74 481,36 -36,36"/>
<text text-anchor="middle" x="222.5" y="-77.54" font-family="Helvetica,sans-Serif" font-size="14.00">Sweep&#39;s Plan &amp; Progress</text>
<!-- start -->
<g id="node1" class="node">
<title>start</title>
</g>
<!-- 570c42e2&#45;c6b7&#45;4c32&#45;8434&#45;dbd61cec8904 -->
<g id="node3" class="node">
<title>570c42e2&#45;c6b7&#45;4c32&#45;8434&#45;dbd61cec8904</title>
<ellipse fill="#0ee832" stroke="black" cx="219.5" cy="-26.87" rx="166.75" ry="26.74"/>
<text text-anchor="middle" x="219.5" y="-30.67" font-family="Helvetica,sans-Serif" font-size="14.00">✓ Modify</text>
<text text-anchor="middle" x="219.5" y="-15.67" font-family="Helvetica,sans-Serif" font-size="14.00">tests/test_trading_strategies.py</text>
</g>
<!-- start&#45;&gt;570c42e2&#45;c6b7&#45;4c32&#45;8434&#45;dbd61cec8904 -->
<g id="edge1" class="edge">
<title>start&#45;&gt;570c42e2&#45;c6b7&#45;4c32&#45;8434&#45;dbd61cec8904</title>
<path fill="none" stroke="black" d="M1.13,-26.87C4.43,-26.87 20.45,-26.87 42.43,-26.87"/>
<polygon fill="black" stroke="black" points="42.56,-30.37 52.56,-26.87 42.56,-23.37 42.56,-30.37"/>
<text text-anchor="middle" x="26.81" y="-33.67" font-family="Helvetica,sans-Serif" font-size="14.00">Start</text>
</g>
<!-- end -->
<g id="node2" class="node">
<title>end</title>
</g>
<!-- 570c42e2&#45;c6b7&#45;4c32&#45;8434&#45;dbd61cec8904&#45;&gt;end -->
<g id="edge2" class="edge">
<title>570c42e2&#45;c6b7&#45;4c32&#45;8434&#45;dbd61cec8904&#45;&gt;end</title>
<path fill="none" stroke="black" d="M386.56,-26.87C406.5,-26.87 423.42,-26.87 433.74,-26.87"/>
<polygon fill="black" stroke="black" points="433.86,-30.37 443.86,-26.87 433.86,-23.37 433.86,-30.37"/>
<text text-anchor="middle" x="415.19" y="-33.67" font-family="Helvetica,sans-Serif" font-size="14.00">Finish</text>
</g>
</g>
</svg>
