<?xml version="1.0" encoding="UTF-8" standalone="no"?>
<!DOCTYPE svg PUBLIC "-//W3C//DTD SVG 1.1//EN"
 "http://www.w3.org/Graphics/SVG/1.1/DTD/svg11.dtd">
<!-- Generated by graphviz version 2.43.0 (0)
 -->
<!-- Title: %3 Pages: 1 -->
<svg width="1036pt" height="238pt"
 viewBox="0.00 0.00 1035.50 237.74" xmlns="http://www.w3.org/2000/svg" xmlns:xlink="http://www.w3.org/1999/xlink">
<g id="graph0" class="graph" transform="scale(1 1) rotate(0) translate(36 201.74)">
<title>%3</title>
<polygon fill="dimgray" stroke="transparent" points="-36,36 -36,-201.74 999.5,-201.74 999.5,36 -36,36"/>
<text text-anchor="middle" x="481.75" y="-150.54" font-family="Helvetica,sans-Serif" font-size="14.00">Sweep&#39;s Plan &amp; Progress</text>
<!-- start -->
<g id="node1" class="node">
<title>start</title>
</g>
<!-- f4554e54&#45;accf&#45;4014&#45;a72b&#45;700ab1c07bfb -->
<g id="node3" class="node">
<title>f4554e54&#45;accf&#45;4014&#45;a72b&#45;700ab1c07bfb</title>
<ellipse fill="#0ee832" stroke="black" cx="219.5" cy="-99.87" rx="82.05" ry="26.74"/>
<text text-anchor="middle" x="219.5" y="-103.67" font-family="Helvetica,sans-Serif" font-size="14.00">✓ Modify</text>
<text text-anchor="middle" x="219.5" y="-88.67" font-family="Helvetica,sans-Serif" font-size="14.00">src/security.py</text>
</g>
<!-- start&#45;&gt;f4554e54&#45;accf&#45;4014&#45;a72b&#45;700ab1c07bfb -->
<g id="edge6" class="edge">
<title>start&#45;&gt;f4554e54&#45;accf&#45;4014&#45;a72b&#45;700ab1c07bfb</title>
<path fill="none" stroke="black" d="M86.36,-99.87C90.23,-99.87 106.78,-99.87 126.96,-99.87"/>
<polygon fill="black" stroke="black" points="127.13,-103.37 137.13,-99.87 127.13,-96.37 127.13,-103.37"/>
<text text-anchor="middle" x="111.74" y="-106.67" font-family="Helvetica,sans-Serif" font-size="14.00">Start</text>
</g>
<!-- end -->
<g id="node2" class="node">
<title>end</title>
</g>
<!-- 563bd55a&#45;a760&#45;4ecd&#45;87c6&#45;c42500d71720 -->
<g id="node4" class="node">
<title>563bd55a&#45;a760&#45;4ecd&#45;87c6&#45;c42500d71720</title>
<ellipse fill="white" stroke="black" cx="483.5" cy="-99.87" rx="82.05" ry="26.74"/>
<text text-anchor="middle" x="483.5" y="-103.67" font-family="Helvetica,sans-Serif" font-size="14.00">▶ Modify</text>
<text text-anchor="middle" x="483.5" y="-88.67" font-family="Helvetica,sans-Serif" font-size="14.00">src/security.py</text>
</g>
<!-- f4554e54&#45;accf&#45;4014&#45;a72b&#45;700ab1c07bfb&#45;&gt;563bd55a&#45;a760&#45;4ecd&#45;87c6&#45;c42500d71720 -->
<g id="edge2" class="edge">
<title>f4554e54&#45;accf&#45;4014&#45;a72b&#45;700ab1c07bfb&#45;&gt;563bd55a&#45;a760&#45;4ecd&#45;87c6&#45;c42500d71720</title>
<path fill="none" stroke="black" d="M301.74,-99.87C331.51,-99.87 361.28,-99.87 391.05,-99.87"/>
<polygon fill="black" stroke="black" points="391.14,-103.37 401.14,-99.87 391.14,-96.37 391.14,-103.37"/>
</g>
<!-- cb8d227b&#45;d920&#45;4b4a&#45;9235&#45;21c0f5270366 -->
<g id="node6" class="node">
<title>cb8d227b&#45;d920&#45;4b4a&#45;9235&#45;21c0f5270366</title>
<polygon fill="yellow" stroke="black" points="311,-36 0,-36 0,0 311,0 311,-36"/>
<text text-anchor="middle" x="155.5" y="-14.3" font-family="Helvetica,sans-Serif" font-size="14.00">⋯ Run GitHub Actions for `src/security.py`</text>
</g>
<!-- f4554e54&#45;accf&#45;4014&#45;a72b&#45;700ab1c07bfb&#45;&gt;cb8d227b&#45;d920&#45;4b4a&#45;9235&#45;21c0f5270366 -->
<g id="edge1" class="edge">
<title>f4554e54&#45;accf&#45;4014&#45;a72b&#45;700ab1c07bfb&#45;&gt;cb8d227b&#45;d920&#45;4b4a&#45;9235&#45;21c0f5270366</title>
<path fill="none" stroke="black" stroke-dasharray="5,2" d="M199.25,-73.6C191.66,-64.13 183.04,-53.37 175.48,-43.93"/>
<polygon fill="black" stroke="black" points="178.14,-41.65 169.15,-36.04 172.67,-46.03 178.14,-41.65"/>
</g>
<!-- da1cc2ae&#45;26c8&#45;4c54&#45;a755&#45;1fc8a5d5d40e -->
<g id="node5" class="node">
<title>da1cc2ae&#45;26c8&#45;4c54&#45;a755&#45;1fc8a5d5d40e</title>
<ellipse fill="white" stroke="black" cx="746.5" cy="-99.87" rx="82.05" ry="26.74"/>
<text text-anchor="middle" x="746.5" y="-103.67" font-family="Helvetica,sans-Serif" font-size="14.00">▶ Modify</text>
<text text-anchor="middle" x="746.5" y="-88.67" font-family="Helvetica,sans-Serif" font-size="14.00">src/security.py</text>
</g>
<!-- 563bd55a&#45;a760&#45;4ecd&#45;87c6&#45;c42500d71720&#45;&gt;da1cc2ae&#45;26c8&#45;4c54&#45;a755&#45;1fc8a5d5d40e -->
<g id="edge4" class="edge">
<title>563bd55a&#45;a760&#45;4ecd&#45;87c6&#45;c42500d71720&#45;&gt;da1cc2ae&#45;26c8&#45;4c54&#45;a755&#45;1fc8a5d5d40e</title>
<path fill="none" stroke="black" d="M565.69,-99.87C595.19,-99.87 624.7,-99.87 654.21,-99.87"/>
<polygon fill="black" stroke="black" points="654.22,-103.37 664.22,-99.87 654.22,-96.37 654.22,-103.37"/>
</g>
<!-- 0ca3ff76&#45;d8dc&#45;472c&#45;9803&#45;66aad036a7c2 -->
<g id="node7" class="node">
<title>0ca3ff76&#45;d8dc&#45;472c&#45;9803&#45;66aad036a7c2</title>
<polygon fill="white" stroke="black" points="637.5,-36 329.5,-36 329.5,0 637.5,0 637.5,-36"/>
<text text-anchor="middle" x="483.5" y="-14.3" font-family="Helvetica,sans-Serif" font-size="14.00">▶ Run GitHub Actions for `src/security.py`</text>
</g>
<!-- 563bd55a&#45;a760&#45;4ecd&#45;87c6&#45;c42500d71720&#45;&gt;0ca3ff76&#45;d8dc&#45;472c&#45;9803&#45;66aad036a7c2 -->
<g id="edge3" class="edge">
<title>563bd55a&#45;a760&#45;4ecd&#45;87c6&#45;c42500d71720&#45;&gt;0ca3ff76&#45;d8dc&#45;472c&#45;9803&#45;66aad036a7c2</title>
<path fill="none" stroke="black" stroke-dasharray="5,2" d="M483.5,-72.72C483.5,-64.27 483.5,-54.89 483.5,-46.36"/>
<polygon fill="black" stroke="black" points="487,-46.15 483.5,-36.15 480,-46.15 487,-46.15"/>
</g>
<!-- da1cc2ae&#45;26c8&#45;4c54&#45;a755&#45;1fc8a5d5d40e&#45;&gt;end -->
<g id="edge7" class="edge">
<title>da1cc2ae&#45;26c8&#45;4c54&#45;a755&#45;1fc8a5d5d40e&#45;&gt;end</title>
<path fill="none" stroke="black" d="M828.75,-99.87C847.52,-99.87 865.08,-99.87 875.8,-99.87"/>
<polygon fill="black" stroke="black" points="875.8,-103.37 885.8,-99.87 875.8,-96.37 875.8,-103.37"/>
<text text-anchor="middle" x="857.26" y="-106.67" font-family="Helvetica,sans-Serif" font-size="14.00">Finish</text>
</g>
<!-- 359ff013&#45;3d33&#45;4054&#45;a4b7&#45;b51373a23015 -->
<g id="node8" class="node">
<title>359ff013&#45;3d33&#45;4054&#45;a4b7&#45;b51373a23015</title>
<polygon fill="white" stroke="black" points="963.5,-36 655.5,-36 655.5,0 963.5,0 963.5,-36"/>
<text text-anchor="middle" x="809.5" y="-14.3" font-family="Helvetica,sans-Serif" font-size="14.00">▶ Run GitHub Actions for `src/security.py`</text>
</g>
<!-- da1cc2ae&#45;26c8&#45;4c54&#45;a755&#45;1fc8a5d5d40e&#45;&gt;359ff013&#45;3d33&#45;4054&#45;a4b7&#45;b51373a23015 -->
<g id="edge5" class="edge">
<title>da1cc2ae&#45;26c8&#45;4c54&#45;a755&#45;1fc8a5d5d40e&#45;&gt;359ff013&#45;3d33&#45;4054&#45;a4b7&#45;b51373a23015</title>
<path fill="none" stroke="black" stroke-dasharray="5,2" d="M766.43,-73.6C773.91,-64.13 782.39,-53.37 789.83,-43.93"/>
<polygon fill="black" stroke="black" points="792.62,-46.06 796.06,-36.04 787.12,-41.72 792.62,-46.06"/>
</g>
</g>
</svg>
