<?xml version="1.0" encoding="UTF-8" standalone="no"?>
<!DOCTYPE svg PUBLIC "-//W3C//DTD SVG 1.1//EN"
 "http://www.w3.org/Graphics/SVG/1.1/DTD/svg11.dtd">
<!-- Generated by graphviz version 2.43.0 (0)
 -->
<!-- Title: %3 Pages: 1 -->
<svg width="1789pt" height="165pt"
 viewBox="0.00 0.00 1789.00 164.74" xmlns="http://www.w3.org/2000/svg" xmlns:xlink="http://www.w3.org/1999/xlink">
<g id="graph0" class="graph" transform="scale(1 1) rotate(0) translate(36 128.74)">
<title>%3</title>
<polygon fill="dimgray" stroke="transparent" points="-36,36 -36,-128.74 1753,-128.74 1753,36 -36,36"/>
<text text-anchor="middle" x="858.5" y="-77.54" font-family="Helvetica,sans-Serif" font-size="14.00">Sweep&#39;s Plan &amp; Progress</text>
<!-- start -->
<g id="node1" class="node">
<title>start</title>
</g>
<!-- e7994379&#45;4e8e&#45;4009&#45;97b0&#45;44c2c572504c -->
<g id="node3" class="node">
<title>e7994379&#45;4e8e&#45;4009&#45;97b0&#45;44c2c572504c</title>
<ellipse fill="#0ee832" stroke="black" cx="134.5" cy="-26.87" rx="82.05" ry="26.74"/>
<text text-anchor="middle" x="134.5" y="-30.67" font-family="Helvetica,sans-Serif" font-size="14.00">✓ Modify</text>
<text text-anchor="middle" x="134.5" y="-15.67" font-family="Helvetica,sans-Serif" font-size="14.00">src/security.py</text>
</g>
<!-- start&#45;&gt;e7994379&#45;4e8e&#45;4009&#45;97b0&#45;44c2c572504c -->
<g id="edge5" class="edge">
<title>start&#45;&gt;e7994379&#45;4e8e&#45;4009&#45;97b0&#45;44c2c572504c</title>
<path fill="none" stroke="black" d="M1.36,-26.87C5.23,-26.87 21.78,-26.87 41.96,-26.87"/>
<polygon fill="black" stroke="black" points="42.13,-30.37 52.13,-26.87 42.13,-23.37 42.13,-30.37"/>
<text text-anchor="middle" x="26.74" y="-33.67" font-family="Helvetica,sans-Serif" font-size="14.00">Start</text>
</g>
<!-- end -->
<g id="node2" class="node">
<title>end</title>
</g>
<!-- 3cf6cf58&#45;0954&#45;4105&#45;abe7&#45;fc1fd641b5c5 -->
<g id="node4" class="node">
<title>3cf6cf58&#45;0954&#45;4105&#45;abe7&#45;fc1fd641b5c5</title>
<ellipse fill="yellow" stroke="black" cx="367.5" cy="-26.87" rx="115.02" ry="26.74"/>
<text text-anchor="middle" x="367.5" y="-30.67" font-family="Helvetica,sans-Serif" font-size="14.00">⋯ Modify</text>
<text text-anchor="middle" x="367.5" y="-15.67" font-family="Helvetica,sans-Serif" font-size="14.00">tests/test_security.py</text>
</g>
<!-- e7994379&#45;4e8e&#45;4009&#45;97b0&#45;44c2c572504c&#45;&gt;3cf6cf58&#45;0954&#45;4105&#45;abe7&#45;fc1fd641b5c5 -->
<g id="edge1" class="edge">
<title>e7994379&#45;4e8e&#45;4009&#45;97b0&#45;44c2c572504c&#45;&gt;3cf6cf58&#45;0954&#45;4105&#45;abe7&#45;fc1fd641b5c5</title>
<path fill="none" stroke="black" d="M216.87,-26.87C225.24,-26.87 233.6,-26.87 241.97,-26.87"/>
<polygon fill="black" stroke="black" points="242.17,-30.37 252.17,-26.87 242.17,-23.37 242.17,-30.37"/>
</g>
<!-- 45888631&#45;4c25&#45;4d87&#45;ac91&#45;ca73acd8d8c8 -->
<g id="node5" class="node">
<title>45888631&#45;4c25&#45;4d87&#45;ac91&#45;ca73acd8d8c8</title>
<ellipse fill="white" stroke="black" cx="736.5" cy="-26.87" rx="217.58" ry="26.74"/>
<text text-anchor="middle" x="736.5" y="-30.67" font-family="Helvetica,sans-Serif" font-size="14.00">▶ Modify</text>
<text text-anchor="middle" x="736.5" y="-15.67" font-family="Helvetica,sans-Serif" font-size="14.00">tests/test_transaction_fee_optimization.py</text>
</g>
<!-- 3cf6cf58&#45;0954&#45;4105&#45;abe7&#45;fc1fd641b5c5&#45;&gt;45888631&#45;4c25&#45;4d87&#45;ac91&#45;ca73acd8d8c8 -->
<g id="edge2" class="edge">
<title>3cf6cf58&#45;0954&#45;4105&#45;abe7&#45;fc1fd641b5c5&#45;&gt;45888631&#45;4c25&#45;4d87&#45;ac91&#45;ca73acd8d8c8</title>
<path fill="none" stroke="black" d="M482.81,-26.87C491.36,-26.87 499.91,-26.87 508.45,-26.87"/>
<polygon fill="black" stroke="black" points="508.49,-30.37 518.49,-26.87 508.49,-23.37 508.49,-30.37"/>
</g>
<!-- ea3d753b&#45;ed8e&#45;42a7&#45;b565&#45;fd667946324e -->
<g id="node6" class="node">
<title>ea3d753b&#45;ed8e&#45;42a7&#45;b565&#45;fd667946324e</title>
<ellipse fill="white" stroke="black" cx="1169.5" cy="-26.87" rx="179.71" ry="26.74"/>
<text text-anchor="middle" x="1169.5" y="-30.67" font-family="Helvetica,sans-Serif" font-size="14.00">▶ Modify</text>
<text text-anchor="middle" x="1169.5" y="-15.67" font-family="Helvetica,sans-Serif" font-size="14.00">tests/test_blockchain_networks.py</text>
</g>
<!-- 45888631&#45;4c25&#45;4d87&#45;ac91&#45;ca73acd8d8c8&#45;&gt;ea3d753b&#45;ed8e&#45;42a7&#45;b565&#45;fd667946324e -->
<g id="edge3" class="edge">
<title>45888631&#45;4c25&#45;4d87&#45;ac91&#45;ca73acd8d8c8&#45;&gt;ea3d753b&#45;ed8e&#45;42a7&#45;b565&#45;fd667946324e</title>
<path fill="none" stroke="black" d="M954.69,-26.87C962.94,-26.87 971.2,-26.87 979.45,-26.87"/>
<polygon fill="black" stroke="black" points="979.51,-30.37 989.51,-26.87 979.51,-23.37 979.51,-30.37"/>
</g>
<!-- 335814e7&#45;3f32&#45;4f1e&#45;9ad3&#45;8b9c0d2e5233 -->
<g id="node7" class="node">
<title>335814e7&#45;3f32&#45;4f1e&#45;9ad3&#45;8b9c0d2e5233</title>
<ellipse fill="white" stroke="black" cx="1521.5" cy="-26.87" rx="137.36" ry="26.74"/>
<text text-anchor="middle" x="1521.5" y="-30.67" font-family="Helvetica,sans-Serif" font-size="14.00">▶ Modify</text>
<text text-anchor="middle" x="1521.5" y="-15.67" font-family="Helvetica,sans-Serif" font-size="14.00">shared_dependencies.md</text>
</g>
<!-- ea3d753b&#45;ed8e&#45;42a7&#45;b565&#45;fd667946324e&#45;&gt;335814e7&#45;3f32&#45;4f1e&#45;9ad3&#45;8b9c0d2e5233 -->
<g id="edge4" class="edge">
<title>ea3d753b&#45;ed8e&#45;42a7&#45;b565&#45;fd667946324e&#45;&gt;335814e7&#45;3f32&#45;4f1e&#45;9ad3&#45;8b9c0d2e5233</title>
<path fill="none" stroke="black" d="M1349.28,-26.87C1357.57,-26.87 1365.86,-26.87 1374.15,-26.87"/>
<polygon fill="black" stroke="black" points="1374.26,-30.37 1384.26,-26.87 1374.26,-23.37 1374.26,-30.37"/>
</g>
<!-- 335814e7&#45;3f32&#45;4f1e&#45;9ad3&#45;8b9c0d2e5233&#45;&gt;end -->
<g id="edge6" class="edge">
<title>335814e7&#45;3f32&#45;4f1e&#45;9ad3&#45;8b9c0d2e5233&#45;&gt;end</title>
<path fill="none" stroke="black" d="M1658.79,-26.87C1678.28,-26.87 1695.21,-26.87 1705.61,-26.87"/>
<polygon fill="black" stroke="black" points="1705.85,-30.37 1715.85,-26.87 1705.85,-23.37 1705.85,-30.37"/>
<text text-anchor="middle" x="1687.34" y="-33.67" font-family="Helvetica,sans-Serif" font-size="14.00">Finish</text>
</g>
</g>
</svg>
