<?xml version="1.0" encoding="UTF-8" standalone="no"?>
<!DOCTYPE svg PUBLIC "-//W3C//DTD SVG 1.1//EN"
 "http://www.w3.org/Graphics/SVG/1.1/DTD/svg11.dtd">
<!-- Generated by graphviz version 2.43.0 (0)
 -->
<!-- Title: %3 Pages: 1 -->
<svg width="440pt" height="238pt"
 viewBox="0.00 0.00 440.00 237.74" xmlns="http://www.w3.org/2000/svg" xmlns:xlink="http://www.w3.org/1999/xlink">
<g id="graph0" class="graph" transform="scale(1 1) rotate(0) translate(36 201.74)">
<title>%3</title>
<polygon fill="dimgray" stroke="transparent" points="-36,36 -36,-201.74 404,-201.74 404,36 -36,36"/>
<text text-anchor="middle" x="184" y="-150.54" font-family="Helvetica,sans-Serif" font-size="14.00">Sweep&#39;s Plan &amp; Progress</text>
<!-- start -->
<g id="node1" class="node">
<title>start</title>
</g>
<!-- 75349f3e&#45;5c86&#45;42fa&#45;8f73&#45;081b1836bbff -->
<g id="node3" class="node">
<title>75349f3e&#45;5c86&#45;42fa&#45;8f73&#45;081b1836bbff</title>
<ellipse fill="#0ee832" stroke="black" cx="184" cy="-99.87" rx="123.99" ry="26.74"/>
<text text-anchor="middle" x="184" y="-103.67" font-family="Helvetica,sans-Serif" font-size="14.00">✓ Modify</text>
<text text-anchor="middle" x="184" y="-88.67" font-family="Helvetica,sans-Serif" font-size="14.00">src/smart_contracts.py</text>
</g>
<!-- start&#45;&gt;75349f3e&#45;5c86&#45;42fa&#45;8f73&#45;081b1836bbff -->
<g id="edge2" class="edge">
<title>start&#45;&gt;75349f3e&#45;5c86&#45;42fa&#45;8f73&#45;081b1836bbff</title>
<path fill="none" stroke="black" d="M8.5,-99.87C11.56,-99.87 28.19,-99.87 50.08,-99.87"/>
<polygon fill="black" stroke="black" points="50.12,-103.37 60.12,-99.87 50.12,-96.37 50.12,-103.37"/>
<text text-anchor="middle" x="34.38" y="-106.67" font-family="Helvetica,sans-Serif" font-size="14.00">Start</text>
</g>
<!-- end -->
<g id="node2" class="node">
<title>end</title>
</g>
<!-- 75349f3e&#45;5c86&#45;42fa&#45;8f73&#45;081b1836bbff&#45;&gt;end -->
<g id="edge3" class="edge">
<title>75349f3e&#45;5c86&#45;42fa&#45;8f73&#45;081b1836bbff&#45;&gt;end</title>
<path fill="none" stroke="black" d="M307.91,-99.87C327.54,-99.87 344.8,-99.87 355.3,-99.87"/>
<polygon fill="black" stroke="black" points="355.33,-103.37 365.33,-99.87 355.33,-96.37 355.33,-103.37"/>
<text text-anchor="middle" x="336.62" y="-106.67" font-family="Helvetica,sans-Serif" font-size="14.00">Finish</text>
</g>
<!-- 2ecc0ae1&#45;227e&#45;4ad4&#45;a8c2&#45;c479ff472203 -->
<g id="node4" class="node">
<title>2ecc0ae1&#45;227e&#45;4ad4&#45;a8c2&#45;c479ff472203</title>
<polygon fill="#0ee832" stroke="black" points="368,-36 0,-36 0,0 368,0 368,-36"/>
<text text-anchor="middle" x="184" y="-14.3" font-family="Helvetica,sans-Serif" font-size="14.00">✓ Run GitHub Actions for `src/smart_contracts.py`</text>
</g>
<!-- 75349f3e&#45;5c86&#45;42fa&#45;8f73&#45;081b1836bbff&#45;&gt;2ecc0ae1&#45;227e&#45;4ad4&#45;a8c2&#45;c479ff472203 -->
<g id="edge1" class="edge">
<title>75349f3e&#45;5c86&#45;42fa&#45;8f73&#45;081b1836bbff&#45;&gt;2ecc0ae1&#45;227e&#45;4ad4&#45;a8c2&#45;c479ff472203</title>
<path fill="none" stroke="black" stroke-dasharray="5,2" d="M184,-72.72C184,-64.27 184,-54.89 184,-46.36"/>
<polygon fill="black" stroke="black" points="187.5,-46.15 184,-36.15 180.5,-46.15 187.5,-46.15"/>
</g>
</g>
</svg>
