<?xml version="1.0" encoding="UTF-8" standalone="no"?>
<!DOCTYPE svg PUBLIC "-//W3C//DTD SVG 1.1//EN"
 "http://www.w3.org/Graphics/SVG/1.1/DTD/svg11.dtd">
<!-- Generated by graphviz version 2.43.0 (0)
 -->
<!-- Title: %3 Pages: 1 -->
<svg width="1251pt" height="165pt"
 viewBox="0.00 0.00 1251.00 164.74" xmlns="http://www.w3.org/2000/svg" xmlns:xlink="http://www.w3.org/1999/xlink">
<g id="graph0" class="graph" transform="scale(1 1) rotate(0) translate(36 128.74)">
<title>%3</title>
<polygon fill="dimgray" stroke="transparent" points="-36,36 -36,-128.74 1215,-128.74 1215,36 -36,36"/>
<text text-anchor="middle" x="589.5" y="-77.54" font-family="Helvetica,sans-Serif" font-size="14.00">Sweep&#39;s Plan &amp; Progress</text>
<!-- start -->
<g id="node1" class="node">
<title>start</title>
</g>
<!-- eb7c8c28&#45;d63f&#45;401d&#45;ab39&#45;ff77dbfe2bfa -->
<g id="node3" class="node">
<title>eb7c8c28&#45;d63f&#45;401d&#45;ab39&#45;ff77dbfe2bfa</title>
<ellipse fill="#0ee832" stroke="black" cx="163.5" cy="-26.87" rx="111.03" ry="26.74"/>
<text text-anchor="middle" x="163.5" y="-30.67" font-family="Helvetica,sans-Serif" font-size="14.00">✓ Modify</text>
<text text-anchor="middle" x="163.5" y="-15.67" font-family="Helvetica,sans-Serif" font-size="14.00">src/yield_farming.py</text>
</g>
<!-- start&#45;&gt;eb7c8c28&#45;d63f&#45;401d&#45;ab39&#45;ff77dbfe2bfa -->
<g id="edge4" class="edge">
<title>start&#45;&gt;eb7c8c28&#45;d63f&#45;401d&#45;ab39&#45;ff77dbfe2bfa</title>
<path fill="none" stroke="black" d="M1.23,-26.87C4.78,-26.87 20.96,-26.87 41.84,-26.87"/>
<polygon fill="black" stroke="black" points="42.08,-30.37 52.08,-26.87 42.08,-23.37 42.08,-30.37"/>
<text text-anchor="middle" x="26.74" y="-33.67" font-family="Helvetica,sans-Serif" font-size="14.00">Start</text>
</g>
<!-- end -->
<g id="node2" class="node">
<title>end</title>
</g>
<!-- 5bcb72d4&#45;b469&#45;4f09&#45;9c1d&#45;b8e3dc6a70b7 -->
<g id="node4" class="node">
<title>5bcb72d4&#45;b469&#45;4f09&#45;9c1d&#45;b8e3dc6a70b7</title>
<ellipse fill="#0ee832" stroke="black" cx="421.5" cy="-26.87" rx="111.03" ry="26.74"/>
<text text-anchor="middle" x="421.5" y="-30.67" font-family="Helvetica,sans-Serif" font-size="14.00">✓ Modify</text>
<text text-anchor="middle" x="421.5" y="-15.67" font-family="Helvetica,sans-Serif" font-size="14.00">src/yield_farming.py</text>
</g>
<!-- eb7c8c28&#45;d63f&#45;401d&#45;ab39&#45;ff77dbfe2bfa&#45;&gt;5bcb72d4&#45;b469&#45;4f09&#45;9c1d&#45;b8e3dc6a70b7 -->
<g id="edge1" class="edge">
<title>eb7c8c28&#45;d63f&#45;401d&#45;ab39&#45;ff77dbfe2bfa&#45;&gt;5bcb72d4&#45;b469&#45;4f09&#45;9c1d&#45;b8e3dc6a70b7</title>
<path fill="none" stroke="black" d="M274.61,-26.87C283.2,-26.87 291.79,-26.87 300.39,-26.87"/>
<polygon fill="black" stroke="black" points="300.47,-30.37 310.47,-26.87 300.47,-23.37 300.47,-30.37"/>
</g>
<!-- bd9ebd02&#45;3063&#45;4ee8&#45;ad79&#45;9c181fce658a -->
<g id="node5" class="node">
<title>bd9ebd02&#45;3063&#45;4ee8&#45;ad79&#45;9c181fce658a</title>
<ellipse fill="yellow" stroke="black" cx="702.5" cy="-26.87" rx="134.2" ry="26.74"/>
<text text-anchor="middle" x="702.5" y="-30.67" font-family="Helvetica,sans-Serif" font-size="14.00">⋯ Modify</text>
<text text-anchor="middle" x="702.5" y="-15.67" font-family="Helvetica,sans-Serif" font-size="14.00">src/impermanent_loss.py</text>
</g>
<!-- 5bcb72d4&#45;b469&#45;4f09&#45;9c1d&#45;b8e3dc6a70b7&#45;&gt;bd9ebd02&#45;3063&#45;4ee8&#45;ad79&#45;9c181fce658a -->
<g id="edge2" class="edge">
<title>5bcb72d4&#45;b469&#45;4f09&#45;9c1d&#45;b8e3dc6a70b7&#45;&gt;bd9ebd02&#45;3063&#45;4ee8&#45;ad79&#45;9c181fce658a</title>
<path fill="none" stroke="black" d="M532.64,-26.87C541.05,-26.87 549.46,-26.87 557.87,-26.87"/>
<polygon fill="black" stroke="black" points="558.14,-30.37 568.14,-26.87 558.14,-23.37 558.14,-30.37"/>
</g>
<!-- 2b0dcf02&#45;890a&#45;499d&#45;b7d2&#45;e959c3fa2773 -->
<g id="node6" class="node">
<title>2b0dcf02&#45;890a&#45;499d&#45;b7d2&#45;e959c3fa2773</title>
<ellipse fill="white" stroke="black" cx="996.5" cy="-26.87" rx="123.99" ry="26.74"/>
<text text-anchor="middle" x="996.5" y="-30.67" font-family="Helvetica,sans-Serif" font-size="14.00">▶ Modify</text>
<text text-anchor="middle" x="996.5" y="-15.67" font-family="Helvetica,sans-Serif" font-size="14.00">src/smart_contracts.py</text>
</g>
<!-- bd9ebd02&#45;3063&#45;4ee8&#45;ad79&#45;9c181fce658a&#45;&gt;2b0dcf02&#45;890a&#45;499d&#45;b7d2&#45;e959c3fa2773 -->
<g id="edge3" class="edge">
<title>bd9ebd02&#45;3063&#45;4ee8&#45;ad79&#45;9c181fce658a&#45;&gt;2b0dcf02&#45;890a&#45;499d&#45;b7d2&#45;e959c3fa2773</title>
<path fill="none" stroke="black" d="M836.87,-26.87C845.46,-26.87 854.05,-26.87 862.64,-26.87"/>
<polygon fill="black" stroke="black" points="862.72,-30.37 872.72,-26.87 862.72,-23.37 862.72,-30.37"/>
</g>
<!-- 2b0dcf02&#45;890a&#45;499d&#45;b7d2&#45;e959c3fa2773&#45;&gt;end -->
<g id="edge5" class="edge">
<title>2b0dcf02&#45;890a&#45;499d&#45;b7d2&#45;e959c3fa2773&#45;&gt;end</title>
<path fill="none" stroke="black" d="M1120.41,-26.87C1140.04,-26.87 1157.3,-26.87 1167.8,-26.87"/>
<polygon fill="black" stroke="black" points="1167.83,-30.37 1177.83,-26.87 1167.83,-23.37 1167.83,-30.37"/>
<text text-anchor="middle" x="1149.12" y="-33.67" font-family="Helvetica,sans-Serif" font-size="14.00">Finish</text>
</g>
</g>
</svg>
