<?xml version="1.0" encoding="UTF-8" standalone="no"?>
<!DOCTYPE svg PUBLIC "-//W3C//DTD SVG 1.1//EN"
 "http://www.w3.org/Graphics/SVG/1.1/DTD/svg11.dtd">
<!-- Generated by graphviz version 2.43.0 (0)
 -->
<!-- Title: %3 Pages: 1 -->
<svg width="438pt" height="238pt"
 viewBox="0.00 0.00 438.00 237.74" xmlns="http://www.w3.org/2000/svg" xmlns:xlink="http://www.w3.org/1999/xlink">
<g id="graph0" class="graph" transform="scale(1 1) rotate(0) translate(36 201.74)">
<title>%3</title>
<polygon fill="dimgray" stroke="transparent" points="-36,36 -36,-201.74 402,-201.74 402,36 -36,36"/>
<text text-anchor="middle" x="183" y="-150.54" font-family="Helvetica,sans-Serif" font-size="14.00">Sweep&#39;s Plan &amp; Progress</text>
<!-- start -->
<g id="node1" class="node">
<title>start</title>
</g>
<!-- 75349f3e&#45;5c86&#45;42fa&#45;8f73&#45;081b1836bbff -->
<g id="node3" class="node">
<title>75349f3e&#45;5c86&#45;42fa&#45;8f73&#45;081b1836bbff</title>
<ellipse fill="yellow" stroke="black" cx="183" cy="-99.87" rx="123.99" ry="26.74"/>
<text text-anchor="middle" x="183" y="-103.67" font-family="Helvetica,sans-Serif" font-size="14.00">⋯ Modify</text>
<text text-anchor="middle" x="183" y="-88.67" font-family="Helvetica,sans-Serif" font-size="14.00">src/smart_contracts.py</text>
</g>
<!-- start&#45;&gt;75349f3e&#45;5c86&#45;42fa&#45;8f73&#45;081b1836bbff -->
<g id="edge2" class="edge">
<title>start&#45;&gt;75349f3e&#45;5c86&#45;42fa&#45;8f73&#45;081b1836bbff</title>
<path fill="none" stroke="black" d="M7.5,-99.87C10.56,-99.87 27.19,-99.87 49.08,-99.87"/>
<polygon fill="black" stroke="black" points="49.12,-103.37 59.12,-99.87 49.12,-96.37 49.12,-103.37"/>
<text text-anchor="middle" x="33.38" y="-106.67" font-family="Helvetica,sans-Serif" font-size="14.00">Start</text>
</g>
<!-- end -->
<g id="node2" class="node">
<title>end</title>
</g>
<!-- 75349f3e&#45;5c86&#45;42fa&#45;8f73&#45;081b1836bbff&#45;&gt;end -->
<g id="edge3" class="edge">
<title>75349f3e&#45;5c86&#45;42fa&#45;8f73&#45;081b1836bbff&#45;&gt;end</title>
<path fill="none" stroke="black" d="M306.91,-99.87C326.54,-99.87 343.8,-99.87 354.3,-99.87"/>
<polygon fill="black" stroke="black" points="354.33,-103.37 364.33,-99.87 354.33,-96.37 354.33,-103.37"/>
<text text-anchor="middle" x="335.62" y="-106.67" font-family="Helvetica,sans-Serif" font-size="14.00">Finish</text>
</g>
<!-- 2ecc0ae1&#45;227e&#45;4ad4&#45;a8c2&#45;c479ff472203 -->
<g id="node4" class="node">
<title>2ecc0ae1&#45;227e&#45;4ad4&#45;a8c2&#45;c479ff472203</title>
<polygon fill="white" stroke="black" points="366,-36 0,-36 0,0 366,0 366,-36"/>
<text text-anchor="middle" x="183" y="-14.3" font-family="Helvetica,sans-Serif" font-size="14.00">▶ Run GitHub Actions for `src/smart_contracts.py`</text>
</g>
<!-- 75349f3e&#45;5c86&#45;42fa&#45;8f73&#45;081b1836bbff&#45;&gt;2ecc0ae1&#45;227e&#45;4ad4&#45;a8c2&#45;c479ff472203 -->
<g id="edge1" class="edge">
<title>75349f3e&#45;5c86&#45;42fa&#45;8f73&#45;081b1836bbff&#45;&gt;2ecc0ae1&#45;227e&#45;4ad4&#45;a8c2&#45;c479ff472203</title>
<path fill="none" stroke="black" stroke-dasharray="5,2" d="M183,-72.72C183,-64.27 183,-54.89 183,-46.36"/>
<polygon fill="black" stroke="black" points="186.5,-46.15 183,-36.15 179.5,-46.15 186.5,-46.15"/>
</g>
</g>
</svg>
