<?xml version="1.0" encoding="UTF-8" standalone="no"?>
<!DOCTYPE svg PUBLIC "-//W3C//DTD SVG 1.1//EN"
 "http://www.w3.org/Graphics/SVG/1.1/DTD/svg11.dtd">
<!-- Generated by graphviz version 2.43.0 (0)
 -->
<!-- Title: %3 Pages: 1 -->
<svg width="553pt" height="165pt"
 viewBox="0.00 0.00 553.00 164.74" xmlns="http://www.w3.org/2000/svg" xmlns:xlink="http://www.w3.org/1999/xlink">
<g id="graph0" class="graph" transform="scale(1 1) rotate(0) translate(36 128.74)">
<title>%3</title>
<polygon fill="dimgray" stroke="transparent" points="-36,36 -36,-128.74 517,-128.74 517,36 -36,36"/>
<text text-anchor="middle" x="240.5" y="-77.54" font-family="Helvetica,sans-Serif" font-size="14.00">Sweep&#39;s Plan &amp; Progress</text>
<!-- start -->
<g id="node1" class="node">
<title>start</title>
</g>
<!-- f1435137&#45;3265&#45;452e&#45;95e5&#45;f0b26c02d6d4 -->
<g id="node3" class="node">
<title>f1435137&#45;3265&#45;452e&#45;95e5&#45;f0b26c02d6d4</title>
<ellipse fill="#0ee832" stroke="black" cx="237.5" cy="-26.87" rx="185.02" ry="26.74"/>
<text text-anchor="middle" x="237.5" y="-30.67" font-family="Helvetica,sans-Serif" font-size="14.00">✓ Modify</text>
<text text-anchor="middle" x="237.5" y="-15.67" font-family="Helvetica,sans-Serif" font-size="14.00">src/transaction_fee_optimization.py</text>
</g>
<!-- start&#45;&gt;f1435137&#45;3265&#45;452e&#45;95e5&#45;f0b26c02d6d4 -->
<g id="edge1" class="edge">
<title>start&#45;&gt;f1435137&#45;3265&#45;452e&#45;95e5&#45;f0b26c02d6d4</title>
<path fill="none" stroke="black" d="M1.18,-26.87C4.56,-26.87 20.29,-26.87 42.15,-26.87"/>
<polygon fill="black" stroke="black" points="42.24,-30.37 52.24,-26.87 42.24,-23.37 42.24,-30.37"/>
<text text-anchor="middle" x="26.62" y="-33.67" font-family="Helvetica,sans-Serif" font-size="14.00">Start</text>
</g>
<!-- end -->
<g id="node2" class="node">
<title>end</title>
</g>
<!-- f1435137&#45;3265&#45;452e&#45;95e5&#45;f0b26c02d6d4&#45;&gt;end -->
<g id="edge2" class="edge">
<title>f1435137&#45;3265&#45;452e&#45;95e5&#45;f0b26c02d6d4&#45;&gt;end</title>
<path fill="none" stroke="black" d="M422.91,-26.87C442.69,-26.87 459.31,-26.87 469.54,-26.87"/>
<polygon fill="black" stroke="black" points="469.87,-30.37 479.87,-26.87 469.87,-23.37 469.87,-30.37"/>
<text text-anchor="middle" x="451.38" y="-33.67" font-family="Helvetica,sans-Serif" font-size="14.00">Finish</text>
</g>
</g>
</svg>
