<?xml version="1.0" encoding="UTF-8" standalone="no"?>
<!DOCTYPE svg PUBLIC "-//W3C//DTD SVG 1.1//EN"
 "http://www.w3.org/Graphics/SVG/1.1/DTD/svg11.dtd">
<!-- Generated by graphviz version 2.43.0 (0)
 -->
<!-- Title: %3 Pages: 1 -->
<svg width="747pt" height="165pt"
 viewBox="0.00 0.00 747.00 164.74" xmlns="http://www.w3.org/2000/svg" xmlns:xlink="http://www.w3.org/1999/xlink">
<g id="graph0" class="graph" transform="scale(1 1) rotate(0) translate(36 128.74)">
<title>%3</title>
<polygon fill="dimgray" stroke="transparent" points="-36,36 -36,-128.74 711,-128.74 711,36 -36,36"/>
<text text-anchor="middle" x="337.5" y="-77.54" font-family="Helvetica,sans-Serif" font-size="14.00">Sweep&#39;s Plan &amp; Progress</text>
<!-- start -->
<g id="node1" class="node">
<title>start</title>
</g>
<!-- 150075b1&#45;a0ee&#45;4d89&#45;b866&#45;027f8424ef0f -->
<g id="node3" class="node">
<title>150075b1&#45;a0ee&#45;4d89&#45;b866&#45;027f8424ef0f</title>
<ellipse fill="yellow" stroke="black" cx="134.5" cy="-26.87" rx="82.05" ry="26.74"/>
<text text-anchor="middle" x="134.5" y="-30.67" font-family="Helvetica,sans-Serif" font-size="14.00">⋯ Modify</text>
<text text-anchor="middle" x="134.5" y="-15.67" font-family="Helvetica,sans-Serif" font-size="14.00">src/security.py</text>
</g>
<!-- start&#45;&gt;150075b1&#45;a0ee&#45;4d89&#45;b866&#45;027f8424ef0f -->
<g id="edge3" class="edge">
<title>start&#45;&gt;150075b1&#45;a0ee&#45;4d89&#45;b866&#45;027f8424ef0f</title>
<path fill="none" stroke="black" d="M1.36,-26.87C5.23,-26.87 21.78,-26.87 41.96,-26.87"/>
<polygon fill="black" stroke="black" points="42.13,-30.37 52.13,-26.87 42.13,-23.37 42.13,-30.37"/>
<text text-anchor="middle" x="26.74" y="-33.67" font-family="Helvetica,sans-Serif" font-size="14.00">Start</text>
</g>
<!-- end -->
<g id="node2" class="node">
<title>end</title>
</g>
<!-- 7637c215&#45;f508&#45;4ed6&#45;84e0&#45;b21c9a037296 -->
<g id="node4" class="node">
<title>7637c215&#45;f508&#45;4ed6&#45;84e0&#45;b21c9a037296</title>
<ellipse fill="white" stroke="black" cx="334.5" cy="-26.87" rx="82.05" ry="26.74"/>
<text text-anchor="middle" x="334.5" y="-30.67" font-family="Helvetica,sans-Serif" font-size="14.00">▶ Modify</text>
<text text-anchor="middle" x="334.5" y="-15.67" font-family="Helvetica,sans-Serif" font-size="14.00">src/security.py</text>
</g>
<!-- 150075b1&#45;a0ee&#45;4d89&#45;b866&#45;027f8424ef0f&#45;&gt;7637c215&#45;f508&#45;4ed6&#45;84e0&#45;b21c9a037296 -->
<g id="edge1" class="edge">
<title>150075b1&#45;a0ee&#45;4d89&#45;b866&#45;027f8424ef0f&#45;&gt;7637c215&#45;f508&#45;4ed6&#45;84e0&#45;b21c9a037296</title>
<path fill="none" stroke="black" d="M216.53,-26.87C225.14,-26.87 233.75,-26.87 242.37,-26.87"/>
<polygon fill="black" stroke="black" points="242.47,-30.37 252.47,-26.87 242.47,-23.37 242.47,-30.37"/>
</g>
<!-- 7972a8da&#45;8877&#45;4dde&#45;95fa&#45;11bff4f2e578 -->
<g id="node5" class="node">
<title>7972a8da&#45;8877&#45;4dde&#45;95fa&#45;11bff4f2e578</title>
<ellipse fill="white" stroke="black" cx="534.5" cy="-26.87" rx="82.05" ry="26.74"/>
<text text-anchor="middle" x="534.5" y="-30.67" font-family="Helvetica,sans-Serif" font-size="14.00">▶ Modify</text>
<text text-anchor="middle" x="534.5" y="-15.67" font-family="Helvetica,sans-Serif" font-size="14.00">src/security.py</text>
</g>
<!-- 7637c215&#45;f508&#45;4ed6&#45;84e0&#45;b21c9a037296&#45;&gt;7972a8da&#45;8877&#45;4dde&#45;95fa&#45;11bff4f2e578 -->
<g id="edge2" class="edge">
<title>7637c215&#45;f508&#45;4ed6&#45;84e0&#45;b21c9a037296&#45;&gt;7972a8da&#45;8877&#45;4dde&#45;95fa&#45;11bff4f2e578</title>
<path fill="none" stroke="black" d="M416.53,-26.87C425.14,-26.87 433.75,-26.87 442.37,-26.87"/>
<polygon fill="black" stroke="black" points="442.47,-30.37 452.47,-26.87 442.47,-23.37 442.47,-30.37"/>
</g>
<!-- 7972a8da&#45;8877&#45;4dde&#45;95fa&#45;11bff4f2e578&#45;&gt;end -->
<g id="edge4" class="edge">
<title>7972a8da&#45;8877&#45;4dde&#45;95fa&#45;11bff4f2e578&#45;&gt;end</title>
<path fill="none" stroke="black" d="M616.75,-26.87C635.52,-26.87 653.08,-26.87 663.8,-26.87"/>
<polygon fill="black" stroke="black" points="663.8,-30.37 673.8,-26.87 663.8,-23.37 663.8,-30.37"/>
<text text-anchor="middle" x="645.26" y="-33.67" font-family="Helvetica,sans-Serif" font-size="14.00">Finish</text>
</g>
</g>
</svg>
