<?xml version="1.0" encoding="UTF-8" standalone="no"?>
<!DOCTYPE svg PUBLIC "-//W3C//DTD SVG 1.1//EN"
 "http://www.w3.org/Graphics/SVG/1.1/DTD/svg11.dtd">
<!-- Generated by graphviz version 2.43.0 (0)
 -->
<!-- Title: %3 Pages: 1 -->
<svg width="1032pt" height="238pt"
 viewBox="0.00 0.00 1032.00 237.74" xmlns="http://www.w3.org/2000/svg" xmlns:xlink="http://www.w3.org/1999/xlink">
<g id="graph0" class="graph" transform="scale(1 1) rotate(0) translate(36 201.74)">
<title>%3</title>
<polygon fill="dimgray" stroke="transparent" points="-36,36 -36,-201.74 996,-201.74 996,36 -36,36"/>
<text text-anchor="middle" x="480" y="-150.54" font-family="Helvetica,sans-Serif" font-size="14.00">Sweep&#39;s Plan &amp; Progress</text>
<!-- start -->
<g id="node1" class="node">
<title>start</title>
</g>
<!-- f4554e54&#45;accf&#45;4014&#45;a72b&#45;700ab1c07bfb -->
<g id="node3" class="node">
<title>f4554e54&#45;accf&#45;4014&#45;a72b&#45;700ab1c07bfb</title>
<ellipse fill="yellow" stroke="black" cx="217" cy="-99.87" rx="82.05" ry="26.74"/>
<text text-anchor="middle" x="217" y="-103.67" font-family="Helvetica,sans-Serif" font-size="14.00">⋯ Modify</text>
<text text-anchor="middle" x="217" y="-88.67" font-family="Helvetica,sans-Serif" font-size="14.00">src/security.py</text>
</g>
<!-- start&#45;&gt;f4554e54&#45;accf&#45;4014&#45;a72b&#45;700ab1c07bfb -->
<g id="edge6" class="edge">
<title>start&#45;&gt;f4554e54&#45;accf&#45;4014&#45;a72b&#45;700ab1c07bfb</title>
<path fill="none" stroke="black" d="M83.86,-99.87C87.73,-99.87 104.28,-99.87 124.46,-99.87"/>
<polygon fill="black" stroke="black" points="124.63,-103.37 134.63,-99.87 124.63,-96.37 124.63,-103.37"/>
<text text-anchor="middle" x="109.24" y="-106.67" font-family="Helvetica,sans-Serif" font-size="14.00">Start</text>
</g>
<!-- end -->
<g id="node2" class="node">
<title>end</title>
</g>
<!-- 563bd55a&#45;a760&#45;4ecd&#45;87c6&#45;c42500d71720 -->
<g id="node4" class="node">
<title>563bd55a&#45;a760&#45;4ecd&#45;87c6&#45;c42500d71720</title>
<ellipse fill="white" stroke="black" cx="480" cy="-99.87" rx="82.05" ry="26.74"/>
<text text-anchor="middle" x="480" y="-103.67" font-family="Helvetica,sans-Serif" font-size="14.00">▶ Modify</text>
<text text-anchor="middle" x="480" y="-88.67" font-family="Helvetica,sans-Serif" font-size="14.00">src/security.py</text>
</g>
<!-- f4554e54&#45;accf&#45;4014&#45;a72b&#45;700ab1c07bfb&#45;&gt;563bd55a&#45;a760&#45;4ecd&#45;87c6&#45;c42500d71720 -->
<g id="edge2" class="edge">
<title>f4554e54&#45;accf&#45;4014&#45;a72b&#45;700ab1c07bfb&#45;&gt;563bd55a&#45;a760&#45;4ecd&#45;87c6&#45;c42500d71720</title>
<path fill="none" stroke="black" d="M299.19,-99.87C328.69,-99.87 358.2,-99.87 387.71,-99.87"/>
<polygon fill="black" stroke="black" points="387.72,-103.37 397.72,-99.87 387.72,-96.37 387.72,-103.37"/>
</g>
<!-- cb8d227b&#45;d920&#45;4b4a&#45;9235&#45;21c0f5270366 -->
<g id="node6" class="node">
<title>cb8d227b&#45;d920&#45;4b4a&#45;9235&#45;21c0f5270366</title>
<polygon fill="white" stroke="black" points="308,-36 0,-36 0,0 308,0 308,-36"/>
<text text-anchor="middle" x="154" y="-14.3" font-family="Helvetica,sans-Serif" font-size="14.00">▶ Run GitHub Actions for `src/security.py`</text>
</g>
<!-- f4554e54&#45;accf&#45;4014&#45;a72b&#45;700ab1c07bfb&#45;&gt;cb8d227b&#45;d920&#45;4b4a&#45;9235&#45;21c0f5270366 -->
<g id="edge1" class="edge">
<title>f4554e54&#45;accf&#45;4014&#45;a72b&#45;700ab1c07bfb&#45;&gt;cb8d227b&#45;d920&#45;4b4a&#45;9235&#45;21c0f5270366</title>
<path fill="none" stroke="black" stroke-dasharray="5,2" d="M197.07,-73.6C189.59,-64.13 181.11,-53.37 173.67,-43.93"/>
<polygon fill="black" stroke="black" points="176.38,-41.72 167.44,-36.04 170.88,-46.06 176.38,-41.72"/>
</g>
<!-- da1cc2ae&#45;26c8&#45;4c54&#45;a755&#45;1fc8a5d5d40e -->
<g id="node5" class="node">
<title>da1cc2ae&#45;26c8&#45;4c54&#45;a755&#45;1fc8a5d5d40e</title>
<ellipse fill="white" stroke="black" cx="743" cy="-99.87" rx="82.05" ry="26.74"/>
<text text-anchor="middle" x="743" y="-103.67" font-family="Helvetica,sans-Serif" font-size="14.00">▶ Modify</text>
<text text-anchor="middle" x="743" y="-88.67" font-family="Helvetica,sans-Serif" font-size="14.00">src/security.py</text>
</g>
<!-- 563bd55a&#45;a760&#45;4ecd&#45;87c6&#45;c42500d71720&#45;&gt;da1cc2ae&#45;26c8&#45;4c54&#45;a755&#45;1fc8a5d5d40e -->
<g id="edge4" class="edge">
<title>563bd55a&#45;a760&#45;4ecd&#45;87c6&#45;c42500d71720&#45;&gt;da1cc2ae&#45;26c8&#45;4c54&#45;a755&#45;1fc8a5d5d40e</title>
<path fill="none" stroke="black" d="M562.19,-99.87C591.69,-99.87 621.2,-99.87 650.71,-99.87"/>
<polygon fill="black" stroke="black" points="650.72,-103.37 660.72,-99.87 650.72,-96.37 650.72,-103.37"/>
</g>
<!-- 0ca3ff76&#45;d8dc&#45;472c&#45;9803&#45;66aad036a7c2 -->
<g id="node7" class="node">
<title>0ca3ff76&#45;d8dc&#45;472c&#45;9803&#45;66aad036a7c2</title>
<polygon fill="white" stroke="black" points="634,-36 326,-36 326,0 634,0 634,-36"/>
<text text-anchor="middle" x="480" y="-14.3" font-family="Helvetica,sans-Serif" font-size="14.00">▶ Run GitHub Actions for `src/security.py`</text>
</g>
<!-- 563bd55a&#45;a760&#45;4ecd&#45;87c6&#45;c42500d71720&#45;&gt;0ca3ff76&#45;d8dc&#45;472c&#45;9803&#45;66aad036a7c2 -->
<g id="edge3" class="edge">
<title>563bd55a&#45;a760&#45;4ecd&#45;87c6&#45;c42500d71720&#45;&gt;0ca3ff76&#45;d8dc&#45;472c&#45;9803&#45;66aad036a7c2</title>
<path fill="none" stroke="black" stroke-dasharray="5,2" d="M480,-72.72C480,-64.27 480,-54.89 480,-46.36"/>
<polygon fill="black" stroke="black" points="483.5,-46.15 480,-36.15 476.5,-46.15 483.5,-46.15"/>
</g>
<!-- da1cc2ae&#45;26c8&#45;4c54&#45;a755&#45;1fc8a5d5d40e&#45;&gt;end -->
<g id="edge7" class="edge">
<title>da1cc2ae&#45;26c8&#45;4c54&#45;a755&#45;1fc8a5d5d40e&#45;&gt;end</title>
<path fill="none" stroke="black" d="M825.25,-99.87C844.02,-99.87 861.58,-99.87 872.3,-99.87"/>
<polygon fill="black" stroke="black" points="872.3,-103.37 882.3,-99.87 872.3,-96.37 872.3,-103.37"/>
<text text-anchor="middle" x="853.76" y="-106.67" font-family="Helvetica,sans-Serif" font-size="14.00">Finish</text>
</g>
<!-- 359ff013&#45;3d33&#45;4054&#45;a4b7&#45;b51373a23015 -->
<g id="node8" class="node">
<title>359ff013&#45;3d33&#45;4054&#45;a4b7&#45;b51373a23015</title>
<polygon fill="white" stroke="black" points="960,-36 652,-36 652,0 960,0 960,-36"/>
<text text-anchor="middle" x="806" y="-14.3" font-family="Helvetica,sans-Serif" font-size="14.00">▶ Run GitHub Actions for `src/security.py`</text>
</g>
<!-- da1cc2ae&#45;26c8&#45;4c54&#45;a755&#45;1fc8a5d5d40e&#45;&gt;359ff013&#45;3d33&#45;4054&#45;a4b7&#45;b51373a23015 -->
<g id="edge5" class="edge">
<title>da1cc2ae&#45;26c8&#45;4c54&#45;a755&#45;1fc8a5d5d40e&#45;&gt;359ff013&#45;3d33&#45;4054&#45;a4b7&#45;b51373a23015</title>
<path fill="none" stroke="black" stroke-dasharray="5,2" d="M762.93,-73.6C770.41,-64.13 778.89,-53.37 786.33,-43.93"/>
<polygon fill="black" stroke="black" points="789.12,-46.06 792.56,-36.04 783.62,-41.72 789.12,-46.06"/>
</g>
</g>
</svg>
