<?xml version="1.0" encoding="UTF-8" standalone="no"?>
<!DOCTYPE svg PUBLIC "-//W3C//DTD SVG 1.1//EN"
 "http://www.w3.org/Graphics/SVG/1.1/DTD/svg11.dtd">
<!-- Generated by graphviz version 2.43.0 (0)
 -->
<!-- Title: %3 Pages: 1 -->
<svg width="820pt" height="238pt"
 viewBox="0.00 0.00 819.50 237.74" xmlns="http://www.w3.org/2000/svg" xmlns:xlink="http://www.w3.org/1999/xlink">
<g id="graph0" class="graph" transform="scale(1 1) rotate(0) translate(36 201.74)">
<title>%3</title>
<polygon fill="dimgray" stroke="transparent" points="-36,36 -36,-201.74 783.5,-201.74 783.5,36 -36,36"/>
<text text-anchor="middle" x="373.75" y="-150.54" font-family="Helvetica,sans-Serif" font-size="14.00">Sweep&#39;s Plan &amp; Progress</text>
<!-- start -->
<g id="node1" class="node">
<title>start</title>
</g>
<!-- bf940cdd&#45;f797&#45;4eff&#45;9c42&#45;fd9ff5dd9b06 -->
<g id="node3" class="node">
<title>bf940cdd&#45;f797&#45;4eff&#45;9c42&#45;fd9ff5dd9b06</title>
<ellipse fill="yellow" stroke="black" cx="225" cy="-99.87" rx="111.03" ry="26.74"/>
<text text-anchor="middle" x="225" y="-103.67" font-family="Helvetica,sans-Serif" font-size="14.00">⋯ Modify</text>
<text text-anchor="middle" x="225" y="-88.67" font-family="Helvetica,sans-Serif" font-size="14.00">src/yield_farming.py</text>
</g>
<!-- start&#45;&gt;bf940cdd&#45;f797&#45;4eff&#45;9c42&#45;fd9ff5dd9b06 -->
<g id="edge4" class="edge">
<title>start&#45;&gt;bf940cdd&#45;f797&#45;4eff&#45;9c42&#45;fd9ff5dd9b06</title>
<path fill="none" stroke="black" d="M62.73,-99.87C66.28,-99.87 82.46,-99.87 103.34,-99.87"/>
<polygon fill="black" stroke="black" points="103.58,-103.37 113.58,-99.87 103.58,-96.37 103.58,-103.37"/>
<text text-anchor="middle" x="88.24" y="-106.67" font-family="Helvetica,sans-Serif" font-size="14.00">Start</text>
</g>
<!-- end -->
<g id="node2" class="node">
<title>end</title>
</g>
<!-- 38f13e5f&#45;fd02&#45;47a1&#45;b5bb&#45;fb6775c8277c -->
<g id="node4" class="node">
<title>38f13e5f&#45;fd02&#45;47a1&#45;b5bb&#45;fb6775c8277c</title>
<ellipse fill="white" stroke="black" cx="532" cy="-99.87" rx="134.2" ry="26.74"/>
<text text-anchor="middle" x="532" y="-103.67" font-family="Helvetica,sans-Serif" font-size="14.00">▶ Create</text>
<text text-anchor="middle" x="532" y="-88.67" font-family="Helvetica,sans-Serif" font-size="14.00">src/test_yield_farming.py</text>
</g>
<!-- bf940cdd&#45;f797&#45;4eff&#45;9c42&#45;fd9ff5dd9b06&#45;&gt;38f13e5f&#45;fd02&#45;47a1&#45;b5bb&#45;fb6775c8277c -->
<g id="edge2" class="edge">
<title>bf940cdd&#45;f797&#45;4eff&#45;9c42&#45;fd9ff5dd9b06&#45;&gt;38f13e5f&#45;fd02&#45;47a1&#45;b5bb&#45;fb6775c8277c</title>
<path fill="none" stroke="black" d="M336.23,-99.87C353.27,-99.87 370.32,-99.87 387.37,-99.87"/>
<polygon fill="black" stroke="black" points="387.41,-103.37 397.41,-99.87 387.41,-96.37 387.41,-103.37"/>
</g>
<!-- cc7b2d76&#45;b0fb&#45;40f0&#45;84d0&#45;369e704d304f -->
<g id="node5" class="node">
<title>cc7b2d76&#45;b0fb&#45;40f0&#45;84d0&#45;369e704d304f</title>
<polygon fill="white" stroke="black" points="348,-36 0,-36 0,0 348,0 348,-36"/>
<text text-anchor="middle" x="174" y="-14.3" font-family="Helvetica,sans-Serif" font-size="14.00">▶ Run GitHub Actions for `src/yield_farming.py`</text>
</g>
<!-- bf940cdd&#45;f797&#45;4eff&#45;9c42&#45;fd9ff5dd9b06&#45;&gt;cc7b2d76&#45;b0fb&#45;40f0&#45;84d0&#45;369e704d304f -->
<g id="edge1" class="edge">
<title>bf940cdd&#45;f797&#45;4eff&#45;9c42&#45;fd9ff5dd9b06&#45;&gt;cc7b2d76&#45;b0fb&#45;40f0&#45;84d0&#45;369e704d304f</title>
<path fill="none" stroke="black" stroke-dasharray="5,2" d="M208.58,-73.16C202.82,-64.13 196.34,-53.98 190.56,-44.94"/>
<polygon fill="black" stroke="black" points="193.4,-42.88 185.07,-36.34 187.5,-46.65 193.4,-42.88"/>
</g>
<!-- 38f13e5f&#45;fd02&#45;47a1&#45;b5bb&#45;fb6775c8277c&#45;&gt;end -->
<g id="edge5" class="edge">
<title>38f13e5f&#45;fd02&#45;47a1&#45;b5bb&#45;fb6775c8277c&#45;&gt;end</title>
<path fill="none" stroke="black" d="M666.39,-99.87C685.81,-99.87 702.72,-99.87 713.11,-99.87"/>
<polygon fill="black" stroke="black" points="713.35,-103.37 723.35,-99.87 713.35,-96.37 713.35,-103.37"/>
<text text-anchor="middle" x="694.93" y="-106.67" font-family="Helvetica,sans-Serif" font-size="14.00">Finish</text>
</g>
<!-- b04dcaf7&#45;9424&#45;48bc&#45;9f55&#45;6765f4e0917b -->
<g id="node6" class="node">
<title>b04dcaf7&#45;9424&#45;48bc&#45;9f55&#45;6765f4e0917b</title>
<polygon fill="white" stroke="black" points="747.5,-36 366.5,-36 366.5,0 747.5,0 747.5,-36"/>
<text text-anchor="middle" x="557" y="-14.3" font-family="Helvetica,sans-Serif" font-size="14.00">▶ Run GitHub Actions for `src/test_yield_farming.py`</text>
</g>
<!-- 38f13e5f&#45;fd02&#45;47a1&#45;b5bb&#45;fb6775c8277c&#45;&gt;b04dcaf7&#45;9424&#45;48bc&#45;9f55&#45;6765f4e0917b -->
<g id="edge3" class="edge">
<title>38f13e5f&#45;fd02&#45;47a1&#45;b5bb&#45;fb6775c8277c&#45;&gt;b04dcaf7&#45;9424&#45;48bc&#45;9f55&#45;6765f4e0917b</title>
<path fill="none" stroke="black" stroke-dasharray="5,2" d="M540.19,-72.72C542.89,-64.08 545.9,-54.47 548.61,-45.79"/>
<polygon fill="black" stroke="black" points="551.99,-46.74 551.63,-36.15 545.31,-44.64 551.99,-46.74"/>
</g>
</g>
</svg>
