<?xml version="1.0" encoding="UTF-8" standalone="no"?>
<!DOCTYPE svg PUBLIC "-//W3C//DTD SVG 1.1//EN"
 "http://www.w3.org/Graphics/SVG/1.1/DTD/svg11.dtd">
<!-- Generated by graphviz version 2.43.0 (0)
 -->
<!-- Title: %3 Pages: 1 -->
<svg width="459pt" height="165pt"
 viewBox="0.00 0.00 459.00 164.74" xmlns="http://www.w3.org/2000/svg" xmlns:xlink="http://www.w3.org/1999/xlink">
<g id="graph0" class="graph" transform="scale(1 1) rotate(0) translate(36 128.74)">
<title>%3</title>
<polygon fill="dimgray" stroke="transparent" points="-36,36 -36,-128.74 423,-128.74 423,36 -36,36"/>
<text text-anchor="middle" x="193.5" y="-77.54" font-family="Helvetica,sans-Serif" font-size="14.00">Sweep&#39;s Plan &amp; Progress</text>
<!-- start -->
<g id="node1" class="node">
<title>start</title>
</g>
<!-- 70eed965&#45;99ce&#45;4f96&#45;9a16&#45;8c5e714288e2 -->
<g id="node3" class="node">
<title>70eed965&#45;99ce&#45;4f96&#45;9a16&#45;8c5e714288e2</title>
<ellipse fill="yellow" stroke="black" cx="190.5" cy="-26.87" rx="137.77" ry="26.74"/>
<text text-anchor="middle" x="190.5" y="-30.67" font-family="Helvetica,sans-Serif" font-size="14.00">⋯ Modify</text>
<text text-anchor="middle" x="190.5" y="-15.67" font-family="Helvetica,sans-Serif" font-size="14.00">src/portfolio_balancing.py</text>
</g>
<!-- start&#45;&gt;70eed965&#45;99ce&#45;4f96&#45;9a16&#45;8c5e714288e2 -->
<g id="edge1" class="edge">
<title>start&#45;&gt;70eed965&#45;99ce&#45;4f96&#45;9a16&#45;8c5e714288e2</title>
<path fill="none" stroke="black" d="M1.05,-26.87C4.17,-26.87 20.48,-26.87 42.31,-26.87"/>
<polygon fill="black" stroke="black" points="42.34,-30.37 52.34,-26.87 42.34,-23.37 42.34,-30.37"/>
<text text-anchor="middle" x="26.81" y="-33.67" font-family="Helvetica,sans-Serif" font-size="14.00">Start</text>
</g>
<!-- end -->
<g id="node2" class="node">
<title>end</title>
</g>
<!-- 70eed965&#45;99ce&#45;4f96&#45;9a16&#45;8c5e714288e2&#45;&gt;end -->
<g id="edge2" class="edge">
<title>70eed965&#45;99ce&#45;4f96&#45;9a16&#45;8c5e714288e2&#45;&gt;end</title>
<path fill="none" stroke="black" d="M328.49,-26.87C348.08,-26.87 365.1,-26.87 375.55,-26.87"/>
<polygon fill="black" stroke="black" points="375.84,-30.37 385.84,-26.87 375.84,-23.37 375.84,-30.37"/>
<text text-anchor="middle" x="357.19" y="-33.67" font-family="Helvetica,sans-Serif" font-size="14.00">Finish</text>
</g>
</g>
</svg>
