<?xml version="1.0" encoding="UTF-8" standalone="no"?>
<!DOCTYPE svg PUBLIC "-//W3C//DTD SVG 1.1//EN"
 "http://www.w3.org/Graphics/SVG/1.1/DTD/svg11.dtd">
<!-- Generated by graphviz version 2.43.0 (0)
 -->
<!-- Title: %3 Pages: 1 -->
<svg width="1420pt" height="238pt"
 viewBox="0.00 0.00 1420.00 237.74" xmlns="http://www.w3.org/2000/svg" xmlns:xlink="http://www.w3.org/1999/xlink">
<g id="graph0" class="graph" transform="scale(1 1) rotate(0) translate(36 201.74)">
<title>%3</title>
<polygon fill="dimgray" stroke="transparent" points="-36,36 -36,-201.74 1384,-201.74 1384,36 -36,36"/>
<text text-anchor="middle" x="674" y="-150.54" font-family="Helvetica,sans-Serif" font-size="14.00">Sweep&#39;s Plan &amp; Progress</text>
<!-- start -->
<g id="node1" class="node">
<title>start</title>
</g>
<!-- 28f2ed71&#45;de81&#45;46cf&#45;aa72&#45;55b41807414f -->
<g id="node3" class="node">
<title>28f2ed71&#45;de81&#45;46cf&#45;aa72&#45;55b41807414f</title>
<ellipse fill="yellow" stroke="black" cx="212" cy="-99.87" rx="82.05" ry="26.74"/>
<text text-anchor="middle" x="212" y="-103.67" font-family="Helvetica,sans-Serif" font-size="14.00">⋯ Modify</text>
<text text-anchor="middle" x="212" y="-88.67" font-family="Helvetica,sans-Serif" font-size="14.00">src/security.py</text>
</g>
<!-- start&#45;&gt;28f2ed71&#45;de81&#45;46cf&#45;aa72&#45;55b41807414f -->
<g id="edge8" class="edge">
<title>start&#45;&gt;28f2ed71&#45;de81&#45;46cf&#45;aa72&#45;55b41807414f</title>
<path fill="none" stroke="black" d="M78.86,-99.87C82.73,-99.87 99.28,-99.87 119.46,-99.87"/>
<polygon fill="black" stroke="black" points="119.63,-103.37 129.63,-99.87 119.63,-96.37 119.63,-103.37"/>
<text text-anchor="middle" x="104.24" y="-106.67" font-family="Helvetica,sans-Serif" font-size="14.00">Start</text>
</g>
<!-- end -->
<g id="node2" class="node">
<title>end</title>
</g>
<!-- a0843c74&#45;fa28&#45;4321&#45;8d37&#45;03f80fab0051 -->
<g id="node4" class="node">
<title>a0843c74&#45;fa28&#45;4321&#45;8d37&#45;03f80fab0051</title>
<ellipse fill="white" stroke="black" cx="500" cy="-99.87" rx="111.03" ry="26.74"/>
<text text-anchor="middle" x="500" y="-103.67" font-family="Helvetica,sans-Serif" font-size="14.00">▶ Modify</text>
<text text-anchor="middle" x="500" y="-88.67" font-family="Helvetica,sans-Serif" font-size="14.00">src/yield_farming.py</text>
</g>
<!-- 28f2ed71&#45;de81&#45;46cf&#45;aa72&#45;55b41807414f&#45;&gt;a0843c74&#45;fa28&#45;4321&#45;8d37&#45;03f80fab0051 -->
<g id="edge2" class="edge">
<title>28f2ed71&#45;de81&#45;46cf&#45;aa72&#45;55b41807414f&#45;&gt;a0843c74&#45;fa28&#45;4321&#45;8d37&#45;03f80fab0051</title>
<path fill="none" stroke="black" d="M294.12,-99.87C322.18,-99.87 350.23,-99.87 378.28,-99.87"/>
<polygon fill="black" stroke="black" points="378.62,-103.37 388.62,-99.87 378.62,-96.37 378.62,-103.37"/>
</g>
<!-- 15f31b67&#45;1eba&#45;44e8&#45;9441&#45;8873ce705204 -->
<g id="node7" class="node">
<title>15f31b67&#45;1eba&#45;44e8&#45;9441&#45;8873ce705204</title>
<polygon fill="white" stroke="black" points="308,-36 0,-36 0,0 308,0 308,-36"/>
<text text-anchor="middle" x="154" y="-14.3" font-family="Helvetica,sans-Serif" font-size="14.00">▶ Run GitHub Actions for `src/security.py`</text>
</g>
<!-- 28f2ed71&#45;de81&#45;46cf&#45;aa72&#45;55b41807414f&#45;&gt;15f31b67&#45;1eba&#45;44e8&#45;9441&#45;8873ce705204 -->
<g id="edge1" class="edge">
<title>28f2ed71&#45;de81&#45;46cf&#45;aa72&#45;55b41807414f&#45;&gt;15f31b67&#45;1eba&#45;44e8&#45;9441&#45;8873ce705204</title>
<path fill="none" stroke="black" stroke-dasharray="5,2" d="M193.65,-73.6C186.84,-64.22 179.12,-53.59 172.31,-44.22"/>
<polygon fill="black" stroke="black" points="175.08,-42.07 166.37,-36.04 169.42,-46.18 175.08,-42.07"/>
</g>
<!-- 76e3d2b8&#45;20b1&#45;4403&#45;9e51&#45;c90cac2dda8e -->
<g id="node5" class="node">
<title>76e3d2b8&#45;20b1&#45;4403&#45;9e51&#45;c90cac2dda8e</title>
<ellipse fill="white" stroke="black" cx="851" cy="-99.87" rx="89.61" ry="26.74"/>
<text text-anchor="middle" x="851" y="-103.67" font-family="Helvetica,sans-Serif" font-size="14.00">▶ Modify</text>
<text text-anchor="middle" x="851" y="-88.67" font-family="Helvetica,sans-Serif" font-size="14.00">src/reporting.py</text>
</g>
<!-- a0843c74&#45;fa28&#45;4321&#45;8d37&#45;03f80fab0051&#45;&gt;76e3d2b8&#45;20b1&#45;4403&#45;9e51&#45;c90cac2dda8e -->
<g id="edge4" class="edge">
<title>a0843c74&#45;fa28&#45;4321&#45;8d37&#45;03f80fab0051&#45;&gt;76e3d2b8&#45;20b1&#45;4403&#45;9e51&#45;c90cac2dda8e</title>
<path fill="none" stroke="black" d="M611.06,-99.87C657.63,-99.87 704.2,-99.87 750.77,-99.87"/>
<polygon fill="black" stroke="black" points="751.02,-103.37 761.02,-99.87 751.02,-96.37 751.02,-103.37"/>
</g>
<!-- 5430f333&#45;dc66&#45;45eb&#45;9b2a&#45;c0578185c626 -->
<g id="node8" class="node">
<title>5430f333&#45;dc66&#45;45eb&#45;9b2a&#45;c0578185c626</title>
<polygon fill="white" stroke="black" points="674,-36 326,-36 326,0 674,0 674,-36"/>
<text text-anchor="middle" x="500" y="-14.3" font-family="Helvetica,sans-Serif" font-size="14.00">▶ Run GitHub Actions for `src/yield_farming.py`</text>
</g>
<!-- a0843c74&#45;fa28&#45;4321&#45;8d37&#45;03f80fab0051&#45;&gt;5430f333&#45;dc66&#45;45eb&#45;9b2a&#45;c0578185c626 -->
<g id="edge3" class="edge">
<title>a0843c74&#45;fa28&#45;4321&#45;8d37&#45;03f80fab0051&#45;&gt;5430f333&#45;dc66&#45;45eb&#45;9b2a&#45;c0578185c626</title>
<path fill="none" stroke="black" stroke-dasharray="5,2" d="M500,-72.72C500,-64.27 500,-54.89 500,-46.36"/>
<polygon fill="black" stroke="black" points="503.5,-46.15 500,-36.15 496.5,-46.15 503.5,-46.15"/>
</g>
<!-- f78f6894&#45;57b5&#45;4e46&#45;8f52&#45;a59ad1cf9319 -->
<g id="node6" class="node">
<title>f78f6894&#45;57b5&#45;4e46&#45;8f52&#45;a59ad1cf9319</title>
<ellipse fill="white" stroke="black" cx="1128" cy="-99.87" rx="90.52" ry="26.74"/>
<text text-anchor="middle" x="1128" y="-103.67" font-family="Helvetica,sans-Serif" font-size="14.00">▶ Modify</text>
<text text-anchor="middle" x="1128" y="-88.67" font-family="Helvetica,sans-Serif" font-size="14.00">src/some_file.py</text>
</g>
<!-- 76e3d2b8&#45;20b1&#45;4403&#45;9e51&#45;c90cac2dda8e&#45;&gt;f78f6894&#45;57b5&#45;4e46&#45;8f52&#45;a59ad1cf9319 -->
<g id="edge6" class="edge">
<title>76e3d2b8&#45;20b1&#45;4403&#45;9e51&#45;c90cac2dda8e&#45;&gt;f78f6894&#45;57b5&#45;4e46&#45;8f52&#45;a59ad1cf9319</title>
<path fill="none" stroke="black" d="M940.81,-99.87C969.59,-99.87 998.37,-99.87 1027.15,-99.87"/>
<polygon fill="black" stroke="black" points="1027.33,-103.37 1037.33,-99.87 1027.33,-96.37 1027.33,-103.37"/>
</g>
<!-- 99bcbe72&#45;5b54&#45;4c87&#45;9e47&#45;7a2fa0d2e863 -->
<g id="node9" class="node">
<title>99bcbe72&#45;5b54&#45;4c87&#45;9e47&#45;7a2fa0d2e863</title>
<polygon fill="white" stroke="black" points="1010,-36 692,-36 692,0 1010,0 1010,-36"/>
<text text-anchor="middle" x="851" y="-14.3" font-family="Helvetica,sans-Serif" font-size="14.00">▶ Run GitHub Actions for `src/reporting.py`</text>
</g>
<!-- 76e3d2b8&#45;20b1&#45;4403&#45;9e51&#45;c90cac2dda8e&#45;&gt;99bcbe72&#45;5b54&#45;4c87&#45;9e47&#45;7a2fa0d2e863 -->
<g id="edge5" class="edge">
<title>76e3d2b8&#45;20b1&#45;4403&#45;9e51&#45;c90cac2dda8e&#45;&gt;99bcbe72&#45;5b54&#45;4c87&#45;9e47&#45;7a2fa0d2e863</title>
<path fill="none" stroke="black" stroke-dasharray="5,2" d="M851,-72.72C851,-64.27 851,-54.89 851,-46.36"/>
<polygon fill="black" stroke="black" points="854.5,-46.15 851,-36.15 847.5,-46.15 854.5,-46.15"/>
</g>
<!-- f78f6894&#45;57b5&#45;4e46&#45;8f52&#45;a59ad1cf9319&#45;&gt;end -->
<g id="edge9" class="edge">
<title>f78f6894&#45;57b5&#45;4e46&#45;8f52&#45;a59ad1cf9319&#45;&gt;end</title>
<path fill="none" stroke="black" d="M1218.54,-99.87C1237.76,-99.87 1255.48,-99.87 1266.26,-99.87"/>
<polygon fill="black" stroke="black" points="1266.3,-103.37 1276.3,-99.87 1266.3,-96.37 1266.3,-103.37"/>
<text text-anchor="middle" x="1247.5" y="-106.67" font-family="Helvetica,sans-Serif" font-size="14.00">Finish</text>
</g>
<!-- 3b28c07e&#45;209d&#45;4773&#45;b6b4&#45;d1e393586de4 -->
<g id="node10" class="node">
<title>3b28c07e&#45;209d&#45;4773&#45;b6b4&#45;d1e393586de4</title>
<polygon fill="white" stroke="black" points="1348,-36 1028,-36 1028,0 1348,0 1348,-36"/>
<text text-anchor="middle" x="1188" y="-14.3" font-family="Helvetica,sans-Serif" font-size="14.00">▶ Run GitHub Actions for `src/some_file.py`</text>
</g>
<!-- f78f6894&#45;57b5&#45;4e46&#45;8f52&#45;a59ad1cf9319&#45;&gt;3b28c07e&#45;209d&#45;4773&#45;b6b4&#45;d1e393586de4 -->
<g id="edge7" class="edge">
<title>f78f6894&#45;57b5&#45;4e46&#45;8f52&#45;a59ad1cf9319&#45;&gt;3b28c07e&#45;209d&#45;4773&#45;b6b4&#45;d1e393586de4</title>
<path fill="none" stroke="black" stroke-dasharray="5,2" d="M1147.31,-73.16C1154.24,-63.94 1162.04,-53.56 1168.94,-44.37"/>
<polygon fill="black" stroke="black" points="1171.77,-46.43 1174.98,-36.34 1166.17,-42.23 1171.77,-46.43"/>
</g>
</g>
</svg>
