<?xml version="1.0" encoding="UTF-8" standalone="no"?>
<!DOCTYPE svg PUBLIC "-//W3C//DTD SVG 1.1//EN"
 "http://www.w3.org/Graphics/SVG/1.1/DTD/svg11.dtd">
<!-- Generated by graphviz version 2.43.0 (0)
 -->
<!-- Title: %3 Pages: 1 -->
<svg width="363pt" height="165pt"
 viewBox="0.00 0.00 363.00 164.74" xmlns="http://www.w3.org/2000/svg" xmlns:xlink="http://www.w3.org/1999/xlink">
<g id="graph0" class="graph" transform="scale(1 1) rotate(0) translate(36 128.74)">
<title>%3</title>
<polygon fill="dimgray" stroke="transparent" points="-36,36 -36,-128.74 327,-128.74 327,36 -36,36"/>
<text text-anchor="middle" x="145.5" y="-77.54" font-family="Helvetica,sans-Serif" font-size="14.00">Sweep&#39;s Plan &amp; Progress</text>
<!-- start -->
<g id="node1" class="node">
<title>start</title>
</g>
<!-- 0e243182&#45;d351&#45;4839&#45;abdb&#45;d6732943e64f -->
<g id="node3" class="node">
<title>0e243182&#45;d351&#45;4839&#45;abdb&#45;d6732943e64f</title>
<ellipse fill="#0ee832" stroke="black" cx="142.5" cy="-26.87" rx="89.61" ry="26.74"/>
<text text-anchor="middle" x="142.5" y="-30.67" font-family="Helvetica,sans-Serif" font-size="14.00">✓ Modify</text>
<text text-anchor="middle" x="142.5" y="-15.67" font-family="Helvetica,sans-Serif" font-size="14.00">src/reporting.py</text>
</g>
<!-- start&#45;&gt;0e243182&#45;d351&#45;4839&#45;abdb&#45;d6732943e64f -->
<g id="edge1" class="edge">
<title>start&#45;&gt;0e243182&#45;d351&#45;4839&#45;abdb&#45;d6732943e64f</title>
<path fill="none" stroke="black" d="M1.41,-26.87C5.38,-26.87 22,-26.87 42.51,-26.87"/>
<polygon fill="black" stroke="black" points="42.51,-30.37 52.51,-26.87 42.51,-23.37 42.51,-30.37"/>
<text text-anchor="middle" x="26.85" y="-33.67" font-family="Helvetica,sans-Serif" font-size="14.00">Start</text>
</g>
<!-- end -->
<g id="node2" class="node">
<title>end</title>
</g>
<!-- 0e243182&#45;d351&#45;4839&#45;abdb&#45;d6732943e64f&#45;&gt;end -->
<g id="edge2" class="edge">
<title>0e243182&#45;d351&#45;4839&#45;abdb&#45;d6732943e64f&#45;&gt;end</title>
<path fill="none" stroke="black" d="M232.43,-26.87C251.3,-26.87 268.72,-26.87 279.46,-26.87"/>
<polygon fill="black" stroke="black" points="279.81,-30.37 289.81,-26.87 279.81,-23.37 279.81,-30.37"/>
<text text-anchor="middle" x="261.15" y="-33.67" font-family="Helvetica,sans-Serif" font-size="14.00">Finish</text>
</g>
</g>
</svg>
