<?xml version="1.0" encoding="UTF-8" standalone="no"?>
<!DOCTYPE svg PUBLIC "-//W3C//DTD SVG 1.1//EN"
 "http://www.w3.org/Graphics/SVG/1.1/DTD/svg11.dtd">
<!-- Generated by graphviz version 2.43.0 (0)
 -->
<!-- Title: %3 Pages: 1 -->
<svg width="929pt" height="165pt"
 viewBox="0.00 0.00 929.00 164.74" xmlns="http://www.w3.org/2000/svg" xmlns:xlink="http://www.w3.org/1999/xlink">
<g id="graph0" class="graph" transform="scale(1 1) rotate(0) translate(36 128.74)">
<title>%3</title>
<polygon fill="dimgray" stroke="transparent" points="-36,36 -36,-128.74 893,-128.74 893,36 -36,36"/>
<text text-anchor="middle" x="428.5" y="-77.54" font-family="Helvetica,sans-Serif" font-size="14.00">Sweep&#39;s Plan &amp; Progress</text>
<!-- start -->
<g id="node1" class="node">
<title>start</title>
</g>
<!-- b51c5c76&#45;017f&#45;4a68&#45;859d&#45;29e8fd5ded4f -->
<g id="node3" class="node">
<title>b51c5c76&#45;017f&#45;4a68&#45;859d&#45;29e8fd5ded4f</title>
<ellipse fill="#0ee832" stroke="black" cx="167.5" cy="-26.87" rx="114.6" ry="26.74"/>
<text text-anchor="middle" x="167.5" y="-30.67" font-family="Helvetica,sans-Serif" font-size="14.00">✓ Modify</text>
<text text-anchor="middle" x="167.5" y="-15.67" font-family="Helvetica,sans-Serif" font-size="14.00">src/user_interface.py</text>
</g>
<!-- start&#45;&gt;b51c5c76&#45;017f&#45;4a68&#45;859d&#45;29e8fd5ded4f -->
<g id="edge3" class="edge">
<title>start&#45;&gt;b51c5c76&#45;017f&#45;4a68&#45;859d&#45;29e8fd5ded4f</title>
<path fill="none" stroke="black" d="M1.24,-26.87C4.88,-26.87 21.43,-26.87 42.78,-26.87"/>
<polygon fill="black" stroke="black" points="42.9,-30.37 52.9,-26.87 42.9,-23.37 42.9,-30.37"/>
<text text-anchor="middle" x="26.97" y="-33.67" font-family="Helvetica,sans-Serif" font-size="14.00">Start</text>
</g>
<!-- end -->
<g id="node2" class="node">
<title>end</title>
</g>
<!-- 91ec97f6&#45;e3bb&#45;48d4&#45;affc&#45;49718437f2e8 -->
<g id="node4" class="node">
<title>91ec97f6&#45;e3bb&#45;48d4&#45;affc&#45;49718437f2e8</title>
<ellipse fill="#ee0000" stroke="black" cx="465.5" cy="-26.87" rx="147.57" ry="26.74"/>
<text text-anchor="middle" x="465.5" y="-30.67" font-family="Helvetica,sans-Serif" font-size="14.00">✗ Modify</text>
<text text-anchor="middle" x="465.5" y="-15.67" font-family="Helvetica,sans-Serif" font-size="14.00">tests/test_user_interface.py</text>
</g>
<!-- b51c5c76&#45;017f&#45;4a68&#45;859d&#45;29e8fd5ded4f&#45;&gt;91ec97f6&#45;e3bb&#45;48d4&#45;affc&#45;49718437f2e8 -->
<g id="edge1" class="edge">
<title>b51c5c76&#45;017f&#45;4a68&#45;859d&#45;29e8fd5ded4f&#45;&gt;91ec97f6&#45;e3bb&#45;48d4&#45;affc&#45;49718437f2e8</title>
<path fill="none" stroke="black" d="M282.16,-26.87C290.56,-26.87 298.96,-26.87 307.36,-26.87"/>
<polygon fill="black" stroke="black" points="307.61,-30.37 317.61,-26.87 307.61,-23.37 307.61,-30.37"/>
</g>
<!-- 8213eeff&#45;e7e8&#45;4959&#45;a9eb&#45;445b8a4f9d28 -->
<g id="node5" class="node">
<title>8213eeff&#45;e7e8&#45;4959&#45;a9eb&#45;445b8a4f9d28</title>
<ellipse fill="#0ee832" stroke="black" cx="723.5" cy="-26.87" rx="74.91" ry="26.74"/>
<text text-anchor="middle" x="723.5" y="-30.67" font-family="Helvetica,sans-Serif" font-size="14.00">✓ Modify</text>
<text text-anchor="middle" x="723.5" y="-15.67" font-family="Helvetica,sans-Serif" font-size="14.00">src/config.py</text>
</g>
<!-- 91ec97f6&#45;e3bb&#45;48d4&#45;affc&#45;49718437f2e8&#45;&gt;8213eeff&#45;e7e8&#45;4959&#45;a9eb&#45;445b8a4f9d28 -->
<g id="edge2" class="edge">
<title>91ec97f6&#45;e3bb&#45;48d4&#45;affc&#45;49718437f2e8&#45;&gt;8213eeff&#45;e7e8&#45;4959&#45;a9eb&#45;445b8a4f9d28</title>
<path fill="none" stroke="black" d="M613.4,-26.87C621.65,-26.87 629.91,-26.87 638.16,-26.87"/>
<polygon fill="black" stroke="black" points="638.23,-30.37 648.23,-26.87 638.23,-23.37 638.23,-30.37"/>
</g>
<!-- 8213eeff&#45;e7e8&#45;4959&#45;a9eb&#45;445b8a4f9d28&#45;&gt;end -->
<g id="edge4" class="edge">
<title>8213eeff&#45;e7e8&#45;4959&#45;a9eb&#45;445b8a4f9d28&#45;&gt;end</title>
<path fill="none" stroke="black" d="M798.55,-26.87C817.13,-26.87 834.81,-26.87 845.65,-26.87"/>
<polygon fill="black" stroke="black" points="845.79,-30.37 855.79,-26.87 845.79,-23.37 845.79,-30.37"/>
<text text-anchor="middle" x="827.23" y="-33.67" font-family="Helvetica,sans-Serif" font-size="14.00">Finish</text>
</g>
</g>
</svg>
