<?xml version="1.0" encoding="UTF-8" standalone="no"?>
<!DOCTYPE svg PUBLIC "-//W3C//DTD SVG 1.1//EN"
 "http://www.w3.org/Graphics/SVG/1.1/DTD/svg11.dtd">
<!-- Generated by graphviz version 2.43.0 (0)
 -->
<!-- Title: %3 Pages: 1 -->
<svg width="1602pt" height="165pt"
 viewBox="0.00 0.00 1602.00 164.74" xmlns="http://www.w3.org/2000/svg" xmlns:xlink="http://www.w3.org/1999/xlink">
<g id="graph0" class="graph" transform="scale(1 1) rotate(0) translate(36 128.74)">
<title>%3</title>
<polygon fill="dimgray" stroke="transparent" points="-36,36 -36,-128.74 1566,-128.74 1566,36 -36,36"/>
<text text-anchor="middle" x="765" y="-77.54" font-family="Helvetica,sans-Serif" font-size="14.00">Sweep&#39;s Plan &amp; Progress</text>
<!-- start -->
<g id="node1" class="node">
<title>start</title>
</g>
<!-- 2b945489&#45;e9c6&#45;4641&#45;8ef1&#45;f69ab1a4571e -->
<g id="node3" class="node">
<title>2b945489&#45;e9c6&#45;4641&#45;8ef1&#45;f69ab1a4571e</title>
<ellipse fill="#ee0000" stroke="black" cx="183.5" cy="-26.87" rx="130.63" ry="26.74"/>
<text text-anchor="middle" x="183.5" y="-30.67" font-family="Helvetica,sans-Serif" font-size="14.00">✗ Modify</text>
<text text-anchor="middle" x="183.5" y="-15.67" font-family="Helvetica,sans-Serif" font-size="14.00">src/pancakeswap_api.py</text>
</g>
<!-- start&#45;&gt;2b945489&#45;e9c6&#45;4641&#45;8ef1&#45;f69ab1a4571e -->
<g id="edge5" class="edge">
<title>start&#45;&gt;2b945489&#45;e9c6&#45;4641&#45;8ef1&#45;f69ab1a4571e</title>
<path fill="none" stroke="black" d="M1.02,-26.87C4.11,-26.87 20.51,-26.87 42.31,-26.87"/>
<polygon fill="black" stroke="black" points="42.31,-30.37 52.31,-26.87 42.31,-23.37 42.31,-30.37"/>
<text text-anchor="middle" x="26.84" y="-33.67" font-family="Helvetica,sans-Serif" font-size="14.00">Start</text>
</g>
<!-- end -->
<g id="node2" class="node">
<title>end</title>
</g>
<!-- 6b6da238&#45;3039&#45;48a3&#45;aacf&#45;ad1824e4b543 -->
<g id="node4" class="node">
<title>6b6da238&#45;3039&#45;48a3&#45;aacf&#45;ad1824e4b543</title>
<ellipse fill="yellow" stroke="black" cx="480.5" cy="-26.87" rx="130.63" ry="26.74"/>
<text text-anchor="middle" x="480.5" y="-30.67" font-family="Helvetica,sans-Serif" font-size="14.00">⋯ Modify</text>
<text text-anchor="middle" x="480.5" y="-15.67" font-family="Helvetica,sans-Serif" font-size="14.00">src/pancakeswap_api.py</text>
</g>
<!-- 2b945489&#45;e9c6&#45;4641&#45;8ef1&#45;f69ab1a4571e&#45;&gt;6b6da238&#45;3039&#45;48a3&#45;aacf&#45;ad1824e4b543 -->
<g id="edge1" class="edge">
<title>2b945489&#45;e9c6&#45;4641&#45;8ef1&#45;f69ab1a4571e&#45;&gt;6b6da238&#45;3039&#45;48a3&#45;aacf&#45;ad1824e4b543</title>
<path fill="none" stroke="black" d="M314.6,-26.87C322.89,-26.87 331.18,-26.87 339.48,-26.87"/>
<polygon fill="black" stroke="black" points="339.59,-30.37 349.59,-26.87 339.59,-23.37 339.59,-30.37"/>
</g>
<!-- c960847c&#45;8aee&#45;45f8&#45;84b4&#45;6511d01b35db -->
<g id="node5" class="node">
<title>c960847c&#45;8aee&#45;45f8&#45;84b4&#45;6511d01b35db</title>
<ellipse fill="white" stroke="black" cx="810.5" cy="-26.87" rx="163.18" ry="26.74"/>
<text text-anchor="middle" x="810.5" y="-30.67" font-family="Helvetica,sans-Serif" font-size="14.00">▶ Modify</text>
<text text-anchor="middle" x="810.5" y="-15.67" font-family="Helvetica,sans-Serif" font-size="14.00">tests/test_pancakeswap_api.py</text>
</g>
<!-- 6b6da238&#45;3039&#45;48a3&#45;aacf&#45;ad1824e4b543&#45;&gt;c960847c&#45;8aee&#45;45f8&#45;84b4&#45;6511d01b35db -->
<g id="edge2" class="edge">
<title>6b6da238&#45;3039&#45;48a3&#45;aacf&#45;ad1824e4b543&#45;&gt;c960847c&#45;8aee&#45;45f8&#45;84b4&#45;6511d01b35db</title>
<path fill="none" stroke="black" d="M611.34,-26.87C619.91,-26.87 628.49,-26.87 637.06,-26.87"/>
<polygon fill="black" stroke="black" points="637.13,-30.37 647.13,-26.87 637.13,-23.37 637.13,-30.37"/>
</g>
<!-- 8439567d&#45;560a&#45;4288&#45;94ed&#45;38de95e580b5 -->
<g id="node6" class="node">
<title>8439567d&#45;560a&#45;4288&#45;94ed&#45;38de95e580b5</title>
<ellipse fill="white" stroke="black" cx="1147.5" cy="-26.87" rx="138.69" ry="26.74"/>
<text text-anchor="middle" x="1147.5" y="-30.67" font-family="Helvetica,sans-Serif" font-size="14.00">▶ Create</text>
<text text-anchor="middle" x="1147.5" y="-15.67" font-family="Helvetica,sans-Serif" font-size="14.00">src/custom_exceptions.py</text>
</g>
<!-- c960847c&#45;8aee&#45;45f8&#45;84b4&#45;6511d01b35db&#45;&gt;8439567d&#45;560a&#45;4288&#45;94ed&#45;38de95e580b5 -->
<g id="edge3" class="edge">
<title>c960847c&#45;8aee&#45;45f8&#45;84b4&#45;6511d01b35db&#45;&gt;8439567d&#45;560a&#45;4288&#45;94ed&#45;38de95e580b5</title>
<path fill="none" stroke="black" d="M974.06,-26.87C982.16,-26.87 990.26,-26.87 998.36,-26.87"/>
<polygon fill="black" stroke="black" points="998.62,-30.37 1008.62,-26.87 998.62,-23.37 998.62,-30.37"/>
</g>
<!-- 9a1e87a6&#45;9fe5&#45;4932&#45;978f&#45;761b5856fe93 -->
<g id="node7" class="node">
<title>9a1e87a6&#45;9fe5&#45;4932&#45;978f&#45;761b5856fe93</title>
<ellipse fill="white" stroke="black" cx="1396.5" cy="-26.87" rx="74.91" ry="26.74"/>
<text text-anchor="middle" x="1396.5" y="-30.67" font-family="Helvetica,sans-Serif" font-size="14.00">▶ Modify</text>
<text text-anchor="middle" x="1396.5" y="-15.67" font-family="Helvetica,sans-Serif" font-size="14.00">src/config.py</text>
</g>
<!-- 8439567d&#45;560a&#45;4288&#45;94ed&#45;38de95e580b5&#45;&gt;9a1e87a6&#45;9fe5&#45;4932&#45;978f&#45;761b5856fe93 -->
<g id="edge4" class="edge">
<title>8439567d&#45;560a&#45;4288&#45;94ed&#45;38de95e580b5&#45;&gt;9a1e87a6&#45;9fe5&#45;4932&#45;978f&#45;761b5856fe93</title>
<path fill="none" stroke="black" d="M1286.1,-26.87C1294.48,-26.87 1302.86,-26.87 1311.24,-26.87"/>
<polygon fill="black" stroke="black" points="1311.46,-30.37 1321.46,-26.87 1311.46,-23.37 1311.46,-30.37"/>
</g>
<!-- 9a1e87a6&#45;9fe5&#45;4932&#45;978f&#45;761b5856fe93&#45;&gt;end -->
<g id="edge6" class="edge">
<title>9a1e87a6&#45;9fe5&#45;4932&#45;978f&#45;761b5856fe93&#45;&gt;end</title>
<path fill="none" stroke="black" d="M1471.55,-26.87C1490.13,-26.87 1507.81,-26.87 1518.65,-26.87"/>
<polygon fill="black" stroke="black" points="1518.79,-30.37 1528.79,-26.87 1518.79,-23.37 1518.79,-30.37"/>
<text text-anchor="middle" x="1500.23" y="-33.67" font-family="Helvetica,sans-Serif" font-size="14.00">Finish</text>
</g>
</g>
</svg>
