<?xml version="1.0" encoding="UTF-8" standalone="no"?>
<!DOCTYPE svg PUBLIC "-//W3C//DTD SVG 1.1//EN"
 "http://www.w3.org/Graphics/SVG/1.1/DTD/svg11.dtd">
<!-- Generated by graphviz version 2.43.0 (0)
 -->
<!-- Title: %3 Pages: 1 -->
<svg width="381pt" height="238pt"
 viewBox="0.00 0.00 381.00 237.74" xmlns="http://www.w3.org/2000/svg" xmlns:xlink="http://www.w3.org/1999/xlink">
<g id="graph0" class="graph" transform="scale(1 1) rotate(0) translate(36 201.74)">
<title>%3</title>
<polygon fill="dimgray" stroke="transparent" points="-36,36 -36,-201.74 345,-201.74 345,36 -36,36"/>
<text text-anchor="middle" x="154.5" y="-150.54" font-family="Helvetica,sans-Serif" font-size="14.00">Sweep&#39;s Plan &amp; Progress</text>
<!-- start -->
<g id="node1" class="node">
<title>start</title>
</g>
<!-- fc7fb417&#45;c793&#45;4436&#45;b649&#45;ae2aec898d6a -->
<g id="node3" class="node">
<title>fc7fb417&#45;c793&#45;4436&#45;b649&#45;ae2aec898d6a</title>
<ellipse fill="#0ee832" stroke="black" cx="154.5" cy="-99.87" rx="82.05" ry="26.74"/>
<text text-anchor="middle" x="154.5" y="-103.67" font-family="Helvetica,sans-Serif" font-size="14.00">✓ Modify</text>
<text text-anchor="middle" x="154.5" y="-88.67" font-family="Helvetica,sans-Serif" font-size="14.00">src/security.py</text>
</g>
<!-- start&#45;&gt;fc7fb417&#45;c793&#45;4436&#45;b649&#45;ae2aec898d6a -->
<g id="edge2" class="edge">
<title>start&#45;&gt;fc7fb417&#45;c793&#45;4436&#45;b649&#45;ae2aec898d6a</title>
<path fill="none" stroke="black" d="M21.36,-99.87C25.23,-99.87 41.78,-99.87 61.96,-99.87"/>
<polygon fill="black" stroke="black" points="62.13,-103.37 72.13,-99.87 62.13,-96.37 62.13,-103.37"/>
<text text-anchor="middle" x="46.74" y="-106.67" font-family="Helvetica,sans-Serif" font-size="14.00">Start</text>
</g>
<!-- end -->
<g id="node2" class="node">
<title>end</title>
</g>
<!-- fc7fb417&#45;c793&#45;4436&#45;b649&#45;ae2aec898d6a&#45;&gt;end -->
<g id="edge3" class="edge">
<title>fc7fb417&#45;c793&#45;4436&#45;b649&#45;ae2aec898d6a&#45;&gt;end</title>
<path fill="none" stroke="black" d="M236.75,-99.87C255.52,-99.87 273.08,-99.87 283.8,-99.87"/>
<polygon fill="black" stroke="black" points="283.8,-103.37 293.8,-99.87 283.8,-96.37 283.8,-103.37"/>
<text text-anchor="middle" x="265.26" y="-106.67" font-family="Helvetica,sans-Serif" font-size="14.00">Finish</text>
</g>
<!-- 3c9e0a14&#45;e3cd&#45;411a&#45;9e9d&#45;2939f6a44a7f -->
<g id="node4" class="node">
<title>3c9e0a14&#45;e3cd&#45;411a&#45;9e9d&#45;2939f6a44a7f</title>
<polygon fill="#0ee832" stroke="black" points="309,-36 0,-36 0,0 309,0 309,-36"/>
<text text-anchor="middle" x="154.5" y="-14.3" font-family="Helvetica,sans-Serif" font-size="14.00">✓ Run GitHub Actions for `src/security.py`</text>
</g>
<!-- fc7fb417&#45;c793&#45;4436&#45;b649&#45;ae2aec898d6a&#45;&gt;3c9e0a14&#45;e3cd&#45;411a&#45;9e9d&#45;2939f6a44a7f -->
<g id="edge1" class="edge">
<title>fc7fb417&#45;c793&#45;4436&#45;b649&#45;ae2aec898d6a&#45;&gt;3c9e0a14&#45;e3cd&#45;411a&#45;9e9d&#45;2939f6a44a7f</title>
<path fill="none" stroke="black" stroke-dasharray="5,2" d="M154.5,-72.72C154.5,-64.27 154.5,-54.89 154.5,-46.36"/>
<polygon fill="black" stroke="black" points="158,-46.15 154.5,-36.15 151,-46.15 158,-46.15"/>
</g>
</g>
</svg>
