<?xml version="1.0" encoding="UTF-8" standalone="no"?>
<!DOCTYPE svg PUBLIC "-//W3C//DTD SVG 1.1//EN"
 "http://www.w3.org/Graphics/SVG/1.1/DTD/svg11.dtd">
<!-- Generated by graphviz version 2.43.0 (0)
 -->
<!-- Title: %3 Pages: 1 -->
<svg width="1058pt" height="165pt"
 viewBox="0.00 0.00 1058.00 164.74" xmlns="http://www.w3.org/2000/svg" xmlns:xlink="http://www.w3.org/1999/xlink">
<g id="graph0" class="graph" transform="scale(1 1) rotate(0) translate(36 128.74)">
<title>%3</title>
<polygon fill="dimgray" stroke="transparent" points="-36,36 -36,-128.74 1022,-128.74 1022,36 -36,36"/>
<text text-anchor="middle" x="493" y="-77.54" font-family="Helvetica,sans-Serif" font-size="14.00">Sweep&#39;s Plan &amp; Progress</text>
<!-- start -->
<g id="node1" class="node">
<title>start</title>
</g>
<!-- 7070cf71&#45;d6ee&#45;435f&#45;9bf3&#45;0a87bee36d9d -->
<g id="node3" class="node">
<title>7070cf71&#45;d6ee&#45;435f&#45;9bf3&#45;0a87bee36d9d</title>
<ellipse fill="#0ee832" stroke="black" cx="127.5" cy="-26.87" rx="74.91" ry="26.74"/>
<text text-anchor="middle" x="127.5" y="-30.67" font-family="Helvetica,sans-Serif" font-size="14.00">✓ Modify</text>
<text text-anchor="middle" x="127.5" y="-15.67" font-family="Helvetica,sans-Serif" font-size="14.00">src/config.py</text>
</g>
<!-- start&#45;&gt;7070cf71&#45;d6ee&#45;435f&#45;9bf3&#45;0a87bee36d9d -->
<g id="edge3" class="edge">
<title>start&#45;&gt;7070cf71&#45;d6ee&#45;435f&#45;9bf3&#45;0a87bee36d9d</title>
<path fill="none" stroke="black" d="M1.31,-26.87C5.12,-26.87 21.93,-26.87 42.09,-26.87"/>
<polygon fill="black" stroke="black" points="42.21,-30.37 52.21,-26.87 42.21,-23.37 42.21,-30.37"/>
<text text-anchor="middle" x="26.77" y="-33.67" font-family="Helvetica,sans-Serif" font-size="14.00">Start</text>
</g>
<!-- end -->
<g id="node2" class="node">
<title>end</title>
</g>
<!-- 377d7987&#45;5029&#45;4eec&#45;a2a3&#45;73b5ee8b00bd -->
<g id="node4" class="node">
<title>377d7987&#45;5029&#45;4eec&#45;a2a3&#45;73b5ee8b00bd</title>
<ellipse fill="#0ee832" stroke="black" cx="385.5" cy="-26.87" rx="147.16" ry="26.74"/>
<text text-anchor="middle" x="385.5" y="-30.67" font-family="Helvetica,sans-Serif" font-size="14.00">✓ Modify</text>
<text text-anchor="middle" x="385.5" y="-15.67" font-family="Helvetica,sans-Serif" font-size="14.00">src/blockchain_networks.py</text>
</g>
<!-- 7070cf71&#45;d6ee&#45;435f&#45;9bf3&#45;0a87bee36d9d&#45;&gt;377d7987&#45;5029&#45;4eec&#45;a2a3&#45;73b5ee8b00bd -->
<g id="edge1" class="edge">
<title>7070cf71&#45;d6ee&#45;435f&#45;9bf3&#45;0a87bee36d9d&#45;&gt;377d7987&#45;5029&#45;4eec&#45;a2a3&#45;73b5ee8b00bd</title>
<path fill="none" stroke="black" d="M202.58,-26.87C211.14,-26.87 219.7,-26.87 228.26,-26.87"/>
<polygon fill="black" stroke="black" points="228.31,-30.37 238.31,-26.87 228.31,-23.37 228.31,-30.37"/>
</g>
<!-- bc59140e&#45;fe58&#45;4ead&#45;b665&#45;913ee0506375 -->
<g id="node5" class="node">
<title>bc59140e&#45;fe58&#45;4ead&#45;b665&#45;913ee0506375</title>
<ellipse fill="#ee0000" stroke="black" cx="747.5" cy="-26.87" rx="179.71" ry="26.74"/>
<text text-anchor="middle" x="747.5" y="-30.67" font-family="Helvetica,sans-Serif" font-size="14.00">✗ Modify</text>
<text text-anchor="middle" x="747.5" y="-15.67" font-family="Helvetica,sans-Serif" font-size="14.00">tests/test_blockchain_networks.py</text>
</g>
<!-- 377d7987&#45;5029&#45;4eec&#45;a2a3&#45;73b5ee8b00bd&#45;&gt;bc59140e&#45;fe58&#45;4ead&#45;b665&#45;913ee0506375 -->
<g id="edge2" class="edge">
<title>377d7987&#45;5029&#45;4eec&#45;a2a3&#45;73b5ee8b00bd&#45;&gt;bc59140e&#45;fe58&#45;4ead&#45;b665&#45;913ee0506375</title>
<path fill="none" stroke="black" d="M532.92,-26.87C541.16,-26.87 549.4,-26.87 557.65,-26.87"/>
<polygon fill="black" stroke="black" points="557.7,-30.37 567.7,-26.87 557.7,-23.37 557.7,-30.37"/>
</g>
<!-- bc59140e&#45;fe58&#45;4ead&#45;b665&#45;913ee0506375&#45;&gt;end -->
<g id="edge4" class="edge">
<title>bc59140e&#45;fe58&#45;4ead&#45;b665&#45;913ee0506375&#45;&gt;end</title>
<path fill="none" stroke="black" d="M927.28,-26.87C947.44,-26.87 964.42,-26.87 974.75,-26.87"/>
<polygon fill="black" stroke="black" points="974.86,-30.37 984.86,-26.87 974.86,-23.37 974.86,-30.37"/>
<text text-anchor="middle" x="956.05" y="-33.67" font-family="Helvetica,sans-Serif" font-size="14.00">Finish</text>
</g>
</g>
</svg>
