<?xml version="1.0" encoding="UTF-8" standalone="no"?>
<!DOCTYPE svg PUBLIC "-//W3C//DTD SVG 1.1//EN"
 "http://www.w3.org/Graphics/SVG/1.1/DTD/svg11.dtd">
<!-- Generated by graphviz version 2.43.0 (0)
 -->
<!-- Title: %3 Pages: 1 -->
<svg width="321pt" height="165pt"
 viewBox="0.00 0.00 321.00 164.74" xmlns="http://www.w3.org/2000/svg" xmlns:xlink="http://www.w3.org/1999/xlink">
<g id="graph0" class="graph" transform="scale(1 1) rotate(0) translate(36 128.74)">
<title>%3</title>
<polygon fill="dimgray" stroke="transparent" points="-36,36 -36,-128.74 285,-128.74 285,36 -36,36"/>
<text text-anchor="middle" x="124.5" y="-77.54" font-family="Helvetica,sans-Serif" font-size="14.00">Sweep&#39;s Plan &amp; Progress</text>
<!-- start -->
<g id="node1" class="node">
<title>start</title>
</g>
<!-- 8054ed5f&#45;d7dc&#45;492b&#45;908f&#45;5efd561f0331 -->
<g id="node3" class="node">
<title>8054ed5f&#45;d7dc&#45;492b&#45;908f&#45;5efd561f0331</title>
<ellipse fill="yellow" stroke="black" cx="121.5" cy="-26.87" rx="69.09" ry="26.74"/>
<text text-anchor="middle" x="121.5" y="-30.67" font-family="Helvetica,sans-Serif" font-size="14.00">⋯ Modify</text>
<text text-anchor="middle" x="121.5" y="-15.67" font-family="Helvetica,sans-Serif" font-size="14.00">src/main.py</text>
</g>
<!-- start&#45;&gt;8054ed5f&#45;d7dc&#45;492b&#45;908f&#45;5efd561f0331 -->
<g id="edge1" class="edge">
<title>start&#45;&gt;8054ed5f&#45;d7dc&#45;492b&#45;908f&#45;5efd561f0331</title>
<path fill="none" stroke="black" d="M1.27,-26.87C5.03,-26.87 21.99,-26.87 42.05,-26.87"/>
<polygon fill="black" stroke="black" points="42.11,-30.37 52.11,-26.87 42.11,-23.37 42.11,-30.37"/>
<text text-anchor="middle" x="26.6" y="-33.67" font-family="Helvetica,sans-Serif" font-size="14.00">Start</text>
</g>
<!-- end -->
<g id="node2" class="node">
<title>end</title>
</g>
<!-- 8054ed5f&#45;d7dc&#45;492b&#45;908f&#45;5efd561f0331&#45;&gt;end -->
<g id="edge2" class="edge">
<title>8054ed5f&#45;d7dc&#45;492b&#45;908f&#45;5efd561f0331&#45;&gt;end</title>
<path fill="none" stroke="black" d="M190.95,-26.87C209.21,-26.87 226.81,-26.87 237.64,-26.87"/>
<polygon fill="black" stroke="black" points="237.79,-30.37 247.79,-26.87 237.79,-23.37 237.79,-30.37"/>
<text text-anchor="middle" x="219.4" y="-33.67" font-family="Helvetica,sans-Serif" font-size="14.00">Finish</text>
</g>
</g>
</svg>
