<?xml version="1.0" encoding="UTF-8" standalone="no"?>
<!DOCTYPE svg PUBLIC "-//W3C//DTD SVG 1.1//EN"
 "http://www.w3.org/Graphics/SVG/1.1/DTD/svg11.dtd">
<!-- Generated by graphviz version 2.43.0 (0)
 -->
<!-- Title: %3 Pages: 1 -->
<svg width="1425pt" height="238pt"
 viewBox="0.00 0.00 1424.50 237.74" xmlns="http://www.w3.org/2000/svg" xmlns:xlink="http://www.w3.org/1999/xlink">
<g id="graph0" class="graph" transform="scale(1 1) rotate(0) translate(36 201.74)">
<title>%3</title>
<polygon fill="dimgray" stroke="transparent" points="-36,36 -36,-201.74 1388.5,-201.74 1388.5,36 -36,36"/>
<text text-anchor="middle" x="676.25" y="-150.54" font-family="Helvetica,sans-Serif" font-size="14.00">Sweep&#39;s Plan &amp; Progress</text>
<!-- start -->
<g id="node1" class="node">
<title>start</title>
</g>
<!-- 28f2ed71&#45;de81&#45;46cf&#45;aa72&#45;55b41807414f -->
<g id="node3" class="node">
<title>28f2ed71&#45;de81&#45;46cf&#45;aa72&#45;55b41807414f</title>
<ellipse fill="#0ee832" stroke="black" cx="213.5" cy="-99.87" rx="82.05" ry="26.74"/>
<text text-anchor="middle" x="213.5" y="-103.67" font-family="Helvetica,sans-Serif" font-size="14.00">✓ Modify</text>
<text text-anchor="middle" x="213.5" y="-88.67" font-family="Helvetica,sans-Serif" font-size="14.00">src/security.py</text>
</g>
<!-- start&#45;&gt;28f2ed71&#45;de81&#45;46cf&#45;aa72&#45;55b41807414f -->
<g id="edge8" class="edge">
<title>start&#45;&gt;28f2ed71&#45;de81&#45;46cf&#45;aa72&#45;55b41807414f</title>
<path fill="none" stroke="black" d="M80.36,-99.87C84.23,-99.87 100.78,-99.87 120.96,-99.87"/>
<polygon fill="black" stroke="black" points="121.13,-103.37 131.13,-99.87 121.13,-96.37 121.13,-103.37"/>
<text text-anchor="middle" x="105.74" y="-106.67" font-family="Helvetica,sans-Serif" font-size="14.00">Start</text>
</g>
<!-- end -->
<g id="node2" class="node">
<title>end</title>
</g>
<!-- a0843c74&#45;fa28&#45;4321&#45;8d37&#45;03f80fab0051 -->
<g id="node4" class="node">
<title>a0843c74&#45;fa28&#45;4321&#45;8d37&#45;03f80fab0051</title>
<ellipse fill="#0ee832" stroke="black" cx="502.5" cy="-99.87" rx="111.03" ry="26.74"/>
<text text-anchor="middle" x="502.5" y="-103.67" font-family="Helvetica,sans-Serif" font-size="14.00">✓ Modify</text>
<text text-anchor="middle" x="502.5" y="-88.67" font-family="Helvetica,sans-Serif" font-size="14.00">src/yield_farming.py</text>
</g>
<!-- 28f2ed71&#45;de81&#45;46cf&#45;aa72&#45;55b41807414f&#45;&gt;a0843c74&#45;fa28&#45;4321&#45;8d37&#45;03f80fab0051 -->
<g id="edge2" class="edge">
<title>28f2ed71&#45;de81&#45;46cf&#45;aa72&#45;55b41807414f&#45;&gt;a0843c74&#45;fa28&#45;4321&#45;8d37&#45;03f80fab0051</title>
<path fill="none" stroke="black" d="M295.63,-99.87C324.18,-99.87 352.73,-99.87 381.29,-99.87"/>
<polygon fill="black" stroke="black" points="381.39,-103.37 391.39,-99.87 381.39,-96.37 381.39,-103.37"/>
</g>
<!-- 15f31b67&#45;1eba&#45;44e8&#45;9441&#45;8873ce705204 -->
<g id="node7" class="node">
<title>15f31b67&#45;1eba&#45;44e8&#45;9441&#45;8873ce705204</title>
<polygon fill="#0ee832" stroke="black" points="309,-36 0,-36 0,0 309,0 309,-36"/>
<text text-anchor="middle" x="154.5" y="-14.3" font-family="Helvetica,sans-Serif" font-size="14.00">✓ Run GitHub Actions for `src/security.py`</text>
</g>
<!-- 28f2ed71&#45;de81&#45;46cf&#45;aa72&#45;55b41807414f&#45;&gt;15f31b67&#45;1eba&#45;44e8&#45;9441&#45;8873ce705204 -->
<g id="edge1" class="edge">
<title>28f2ed71&#45;de81&#45;46cf&#45;aa72&#45;55b41807414f&#45;&gt;15f31b67&#45;1eba&#45;44e8&#45;9441&#45;8873ce705204</title>
<path fill="none" stroke="black" stroke-dasharray="5,2" d="M194.83,-73.6C187.9,-64.22 180.05,-53.59 173.13,-44.22"/>
<polygon fill="black" stroke="black" points="175.84,-42 167.08,-36.04 170.21,-46.16 175.84,-42"/>
</g>
<!-- 76e3d2b8&#45;20b1&#45;4403&#45;9e51&#45;c90cac2dda8e -->
<g id="node5" class="node">
<title>76e3d2b8&#45;20b1&#45;4403&#45;9e51&#45;c90cac2dda8e</title>
<ellipse fill="white" stroke="black" cx="855.5" cy="-99.87" rx="89.61" ry="26.74"/>
<text text-anchor="middle" x="855.5" y="-103.67" font-family="Helvetica,sans-Serif" font-size="14.00">▶ Modify</text>
<text text-anchor="middle" x="855.5" y="-88.67" font-family="Helvetica,sans-Serif" font-size="14.00">src/reporting.py</text>
</g>
<!-- a0843c74&#45;fa28&#45;4321&#45;8d37&#45;03f80fab0051&#45;&gt;76e3d2b8&#45;20b1&#45;4403&#45;9e51&#45;c90cac2dda8e -->
<g id="edge4" class="edge">
<title>a0843c74&#45;fa28&#45;4321&#45;8d37&#45;03f80fab0051&#45;&gt;76e3d2b8&#45;20b1&#45;4403&#45;9e51&#45;c90cac2dda8e</title>
<path fill="none" stroke="black" d="M613.85,-99.87C660.99,-99.87 708.14,-99.87 755.29,-99.87"/>
<polygon fill="black" stroke="black" points="755.35,-103.37 765.35,-99.87 755.35,-96.37 755.35,-103.37"/>
</g>
<!-- 5430f333&#45;dc66&#45;45eb&#45;9b2a&#45;c0578185c626 -->
<g id="node8" class="node">
<title>5430f333&#45;dc66&#45;45eb&#45;9b2a&#45;c0578185c626</title>
<polygon fill="yellow" stroke="black" points="678.5,-36 326.5,-36 326.5,0 678.5,0 678.5,-36"/>
<text text-anchor="middle" x="502.5" y="-14.3" font-family="Helvetica,sans-Serif" font-size="14.00">⋯ Run GitHub Actions for `src/yield_farming.py`</text>
</g>
<!-- a0843c74&#45;fa28&#45;4321&#45;8d37&#45;03f80fab0051&#45;&gt;5430f333&#45;dc66&#45;45eb&#45;9b2a&#45;c0578185c626 -->
<g id="edge3" class="edge">
<title>a0843c74&#45;fa28&#45;4321&#45;8d37&#45;03f80fab0051&#45;&gt;5430f333&#45;dc66&#45;45eb&#45;9b2a&#45;c0578185c626</title>
<path fill="none" stroke="black" stroke-dasharray="5,2" d="M502.5,-72.72C502.5,-64.27 502.5,-54.89 502.5,-46.36"/>
<polygon fill="black" stroke="black" points="506,-46.15 502.5,-36.15 499,-46.15 506,-46.15"/>
</g>
<!-- f78f6894&#45;57b5&#45;4e46&#45;8f52&#45;a59ad1cf9319 -->
<g id="node6" class="node">
<title>f78f6894&#45;57b5&#45;4e46&#45;8f52&#45;a59ad1cf9319</title>
<ellipse fill="white" stroke="black" cx="1132.5" cy="-99.87" rx="90.52" ry="26.74"/>
<text text-anchor="middle" x="1132.5" y="-103.67" font-family="Helvetica,sans-Serif" font-size="14.00">▶ Modify</text>
<text text-anchor="middle" x="1132.5" y="-88.67" font-family="Helvetica,sans-Serif" font-size="14.00">src/some_file.py</text>
</g>
<!-- 76e3d2b8&#45;20b1&#45;4403&#45;9e51&#45;c90cac2dda8e&#45;&gt;f78f6894&#45;57b5&#45;4e46&#45;8f52&#45;a59ad1cf9319 -->
<g id="edge6" class="edge">
<title>76e3d2b8&#45;20b1&#45;4403&#45;9e51&#45;c90cac2dda8e&#45;&gt;f78f6894&#45;57b5&#45;4e46&#45;8f52&#45;a59ad1cf9319</title>
<path fill="none" stroke="black" d="M945.31,-99.87C974.09,-99.87 1002.87,-99.87 1031.65,-99.87"/>
<polygon fill="black" stroke="black" points="1031.83,-103.37 1041.83,-99.87 1031.83,-96.37 1031.83,-103.37"/>
</g>
<!-- 99bcbe72&#45;5b54&#45;4c87&#45;9e47&#45;7a2fa0d2e863 -->
<g id="node9" class="node">
<title>99bcbe72&#45;5b54&#45;4c87&#45;9e47&#45;7a2fa0d2e863</title>
<polygon fill="white" stroke="black" points="1014.5,-36 696.5,-36 696.5,0 1014.5,0 1014.5,-36"/>
<text text-anchor="middle" x="855.5" y="-14.3" font-family="Helvetica,sans-Serif" font-size="14.00">▶ Run GitHub Actions for `src/reporting.py`</text>
</g>
<!-- 76e3d2b8&#45;20b1&#45;4403&#45;9e51&#45;c90cac2dda8e&#45;&gt;99bcbe72&#45;5b54&#45;4c87&#45;9e47&#45;7a2fa0d2e863 -->
<g id="edge5" class="edge">
<title>76e3d2b8&#45;20b1&#45;4403&#45;9e51&#45;c90cac2dda8e&#45;&gt;99bcbe72&#45;5b54&#45;4c87&#45;9e47&#45;7a2fa0d2e863</title>
<path fill="none" stroke="black" stroke-dasharray="5,2" d="M855.5,-72.72C855.5,-64.27 855.5,-54.89 855.5,-46.36"/>
<polygon fill="black" stroke="black" points="859,-46.15 855.5,-36.15 852,-46.15 859,-46.15"/>
</g>
<!-- f78f6894&#45;57b5&#45;4e46&#45;8f52&#45;a59ad1cf9319&#45;&gt;end -->
<g id="edge9" class="edge">
<title>f78f6894&#45;57b5&#45;4e46&#45;8f52&#45;a59ad1cf9319&#45;&gt;end</title>
<path fill="none" stroke="black" d="M1223.04,-99.87C1242.26,-99.87 1259.98,-99.87 1270.76,-99.87"/>
<polygon fill="black" stroke="black" points="1270.8,-103.37 1280.8,-99.87 1270.8,-96.37 1270.8,-103.37"/>
<text text-anchor="middle" x="1252" y="-106.67" font-family="Helvetica,sans-Serif" font-size="14.00">Finish</text>
</g>
<!-- 3b28c07e&#45;209d&#45;4773&#45;b6b4&#45;d1e393586de4 -->
<g id="node10" class="node">
<title>3b28c07e&#45;209d&#45;4773&#45;b6b4&#45;d1e393586de4</title>
<polygon fill="white" stroke="black" points="1352.5,-36 1032.5,-36 1032.5,0 1352.5,0 1352.5,-36"/>
<text text-anchor="middle" x="1192.5" y="-14.3" font-family="Helvetica,sans-Serif" font-size="14.00">▶ Run GitHub Actions for `src/some_file.py`</text>
</g>
<!-- f78f6894&#45;57b5&#45;4e46&#45;8f52&#45;a59ad1cf9319&#45;&gt;3b28c07e&#45;209d&#45;4773&#45;b6b4&#45;d1e393586de4 -->
<g id="edge7" class="edge">
<title>f78f6894&#45;57b5&#45;4e46&#45;8f52&#45;a59ad1cf9319&#45;&gt;3b28c07e&#45;209d&#45;4773&#45;b6b4&#45;d1e393586de4</title>
<path fill="none" stroke="black" stroke-dasharray="5,2" d="M1151.81,-73.16C1158.74,-63.94 1166.54,-53.56 1173.44,-44.37"/>
<polygon fill="black" stroke="black" points="1176.27,-46.43 1179.48,-36.34 1170.67,-42.23 1176.27,-46.43"/>
</g>
</g>
</svg>
