<?xml version="1.0" encoding="UTF-8" standalone="no"?>
<!DOCTYPE svg PUBLIC "-//W3C//DTD SVG 1.1//EN"
 "http://www.w3.org/Graphics/SVG/1.1/DTD/svg11.dtd">
<!-- Generated by graphviz version 2.43.0 (0)
 -->
<!-- Title: %3 Pages: 1 -->
<svg width="1037pt" height="238pt"
 viewBox="0.00 0.00 1036.50 237.74" xmlns="http://www.w3.org/2000/svg" xmlns:xlink="http://www.w3.org/1999/xlink">
<g id="graph0" class="graph" transform="scale(1 1) rotate(0) translate(36 201.74)">
<title>%3</title>
<polygon fill="dimgray" stroke="transparent" points="-36,36 -36,-201.74 1000.5,-201.74 1000.5,36 -36,36"/>
<text text-anchor="middle" x="482.25" y="-150.54" font-family="Helvetica,sans-Serif" font-size="14.00">Sweep&#39;s Plan &amp; Progress</text>
<!-- start -->
<g id="node1" class="node">
<title>start</title>
</g>
<!-- f4554e54&#45;accf&#45;4014&#45;a72b&#45;700ab1c07bfb -->
<g id="node3" class="node">
<title>f4554e54&#45;accf&#45;4014&#45;a72b&#45;700ab1c07bfb</title>
<ellipse fill="#0ee832" stroke="black" cx="218.5" cy="-99.87" rx="82.05" ry="26.74"/>
<text text-anchor="middle" x="218.5" y="-103.67" font-family="Helvetica,sans-Serif" font-size="14.00">✓ Modify</text>
<text text-anchor="middle" x="218.5" y="-88.67" font-family="Helvetica,sans-Serif" font-size="14.00">src/security.py</text>
</g>
<!-- start&#45;&gt;f4554e54&#45;accf&#45;4014&#45;a72b&#45;700ab1c07bfb -->
<g id="edge6" class="edge">
<title>start&#45;&gt;f4554e54&#45;accf&#45;4014&#45;a72b&#45;700ab1c07bfb</title>
<path fill="none" stroke="black" d="M85.36,-99.87C89.23,-99.87 105.78,-99.87 125.96,-99.87"/>
<polygon fill="black" stroke="black" points="126.13,-103.37 136.13,-99.87 126.13,-96.37 126.13,-103.37"/>
<text text-anchor="middle" x="110.74" y="-106.67" font-family="Helvetica,sans-Serif" font-size="14.00">Start</text>
</g>
<!-- end -->
<g id="node2" class="node">
<title>end</title>
</g>
<!-- 563bd55a&#45;a760&#45;4ecd&#45;87c6&#45;c42500d71720 -->
<g id="node4" class="node">
<title>563bd55a&#45;a760&#45;4ecd&#45;87c6&#45;c42500d71720</title>
<ellipse fill="#0ee832" stroke="black" cx="482.5" cy="-99.87" rx="82.05" ry="26.74"/>
<text text-anchor="middle" x="482.5" y="-103.67" font-family="Helvetica,sans-Serif" font-size="14.00">✓ Modify</text>
<text text-anchor="middle" x="482.5" y="-88.67" font-family="Helvetica,sans-Serif" font-size="14.00">src/security.py</text>
</g>
<!-- f4554e54&#45;accf&#45;4014&#45;a72b&#45;700ab1c07bfb&#45;&gt;563bd55a&#45;a760&#45;4ecd&#45;87c6&#45;c42500d71720 -->
<g id="edge2" class="edge">
<title>f4554e54&#45;accf&#45;4014&#45;a72b&#45;700ab1c07bfb&#45;&gt;563bd55a&#45;a760&#45;4ecd&#45;87c6&#45;c42500d71720</title>
<path fill="none" stroke="black" d="M300.74,-99.87C330.51,-99.87 360.28,-99.87 390.05,-99.87"/>
<polygon fill="black" stroke="black" points="390.14,-103.37 400.14,-99.87 390.14,-96.37 390.14,-103.37"/>
</g>
<!-- cb8d227b&#45;d920&#45;4b4a&#45;9235&#45;21c0f5270366 -->
<g id="node6" class="node">
<title>cb8d227b&#45;d920&#45;4b4a&#45;9235&#45;21c0f5270366</title>
<polygon fill="#0ee832" stroke="black" points="309,-36 0,-36 0,0 309,0 309,-36"/>
<text text-anchor="middle" x="154.5" y="-14.3" font-family="Helvetica,sans-Serif" font-size="14.00">✓ Run GitHub Actions for `src/security.py`</text>
</g>
<!-- f4554e54&#45;accf&#45;4014&#45;a72b&#45;700ab1c07bfb&#45;&gt;cb8d227b&#45;d920&#45;4b4a&#45;9235&#45;21c0f5270366 -->
<g id="edge1" class="edge">
<title>f4554e54&#45;accf&#45;4014&#45;a72b&#45;700ab1c07bfb&#45;&gt;cb8d227b&#45;d920&#45;4b4a&#45;9235&#45;21c0f5270366</title>
<path fill="none" stroke="black" stroke-dasharray="5,2" d="M198.25,-73.6C190.66,-64.13 182.04,-53.37 174.48,-43.93"/>
<polygon fill="black" stroke="black" points="177.14,-41.65 168.15,-36.04 171.67,-46.03 177.14,-41.65"/>
</g>
<!-- da1cc2ae&#45;26c8&#45;4c54&#45;a755&#45;1fc8a5d5d40e -->
<g id="node5" class="node">
<title>da1cc2ae&#45;26c8&#45;4c54&#45;a755&#45;1fc8a5d5d40e</title>
<ellipse fill="white" stroke="black" cx="746.5" cy="-99.87" rx="82.05" ry="26.74"/>
<text text-anchor="middle" x="746.5" y="-103.67" font-family="Helvetica,sans-Serif" font-size="14.00">▶ Modify</text>
<text text-anchor="middle" x="746.5" y="-88.67" font-family="Helvetica,sans-Serif" font-size="14.00">src/security.py</text>
</g>
<!-- 563bd55a&#45;a760&#45;4ecd&#45;87c6&#45;c42500d71720&#45;&gt;da1cc2ae&#45;26c8&#45;4c54&#45;a755&#45;1fc8a5d5d40e -->
<g id="edge4" class="edge">
<title>563bd55a&#45;a760&#45;4ecd&#45;87c6&#45;c42500d71720&#45;&gt;da1cc2ae&#45;26c8&#45;4c54&#45;a755&#45;1fc8a5d5d40e</title>
<path fill="none" stroke="black" d="M564.74,-99.87C594.51,-99.87 624.28,-99.87 654.05,-99.87"/>
<polygon fill="black" stroke="black" points="654.14,-103.37 664.14,-99.87 654.14,-96.37 654.14,-103.37"/>
</g>
<!-- 0ca3ff76&#45;d8dc&#45;472c&#45;9803&#45;66aad036a7c2 -->
<g id="node7" class="node">
<title>0ca3ff76&#45;d8dc&#45;472c&#45;9803&#45;66aad036a7c2</title>
<polygon fill="yellow" stroke="black" points="638,-36 327,-36 327,0 638,0 638,-36"/>
<text text-anchor="middle" x="482.5" y="-14.3" font-family="Helvetica,sans-Serif" font-size="14.00">⋯ Run GitHub Actions for `src/security.py`</text>
</g>
<!-- 563bd55a&#45;a760&#45;4ecd&#45;87c6&#45;c42500d71720&#45;&gt;0ca3ff76&#45;d8dc&#45;472c&#45;9803&#45;66aad036a7c2 -->
<g id="edge3" class="edge">
<title>563bd55a&#45;a760&#45;4ecd&#45;87c6&#45;c42500d71720&#45;&gt;0ca3ff76&#45;d8dc&#45;472c&#45;9803&#45;66aad036a7c2</title>
<path fill="none" stroke="black" stroke-dasharray="5,2" d="M482.5,-72.72C482.5,-64.27 482.5,-54.89 482.5,-46.36"/>
<polygon fill="black" stroke="black" points="486,-46.15 482.5,-36.15 479,-46.15 486,-46.15"/>
</g>
<!-- da1cc2ae&#45;26c8&#45;4c54&#45;a755&#45;1fc8a5d5d40e&#45;&gt;end -->
<g id="edge7" class="edge">
<title>da1cc2ae&#45;26c8&#45;4c54&#45;a755&#45;1fc8a5d5d40e&#45;&gt;end</title>
<path fill="none" stroke="black" d="M828.75,-99.87C847.52,-99.87 865.08,-99.87 875.8,-99.87"/>
<polygon fill="black" stroke="black" points="875.8,-103.37 885.8,-99.87 875.8,-96.37 875.8,-103.37"/>
<text text-anchor="middle" x="857.26" y="-106.67" font-family="Helvetica,sans-Serif" font-size="14.00">Finish</text>
</g>
<!-- 359ff013&#45;3d33&#45;4054&#45;a4b7&#45;b51373a23015 -->
<g id="node8" class="node">
<title>359ff013&#45;3d33&#45;4054&#45;a4b7&#45;b51373a23015</title>
<polygon fill="white" stroke="black" points="964.5,-36 656.5,-36 656.5,0 964.5,0 964.5,-36"/>
<text text-anchor="middle" x="810.5" y="-14.3" font-family="Helvetica,sans-Serif" font-size="14.00">▶ Run GitHub Actions for `src/security.py`</text>
</g>
<!-- da1cc2ae&#45;26c8&#45;4c54&#45;a755&#45;1fc8a5d5d40e&#45;&gt;359ff013&#45;3d33&#45;4054&#45;a4b7&#45;b51373a23015 -->
<g id="edge5" class="edge">
<title>da1cc2ae&#45;26c8&#45;4c54&#45;a755&#45;1fc8a5d5d40e&#45;&gt;359ff013&#45;3d33&#45;4054&#45;a4b7&#45;b51373a23015</title>
<path fill="none" stroke="black" stroke-dasharray="5,2" d="M766.75,-73.6C774.34,-64.13 782.96,-53.37 790.52,-43.93"/>
<polygon fill="black" stroke="black" points="793.33,-46.03 796.85,-36.04 787.86,-41.65 793.33,-46.03"/>
</g>
</g>
</svg>
