<?xml version="1.0" encoding="UTF-8" standalone="no"?>
<!DOCTYPE svg PUBLIC "-//W3C//DTD SVG 1.1//EN"
 "http://www.w3.org/Graphics/SVG/1.1/DTD/svg11.dtd">
<!-- Generated by graphviz version 2.43.0 (0)
 -->
<!-- Title: %3 Pages: 1 -->
<svg width="2074pt" height="238pt"
 viewBox="0.00 0.00 2074.00 237.74" xmlns="http://www.w3.org/2000/svg" xmlns:xlink="http://www.w3.org/1999/xlink">
<g id="graph0" class="graph" transform="scale(1 1) rotate(0) translate(36 201.74)">
<title>%3</title>
<polygon fill="dimgray" stroke="transparent" points="-36,36 -36,-201.74 2038,-201.74 2038,36 -36,36"/>
<text text-anchor="middle" x="1001" y="-150.54" font-family="Helvetica,sans-Serif" font-size="14.00">Sweep&#39;s Plan &amp; Progress</text>
<!-- start -->
<g id="node1" class="node">
<title>start</title>
</g>
<!-- 175b0dd5&#45;8741&#45;457f&#45;9560&#45;eaab1610d78a -->
<g id="node3" class="node">
<title>175b0dd5&#45;8741&#45;457f&#45;9560&#45;eaab1610d78a</title>
<ellipse fill="#0ee832" stroke="black" cx="222" cy="-99.87" rx="89.61" ry="26.74"/>
<text text-anchor="middle" x="222" y="-103.67" font-family="Helvetica,sans-Serif" font-size="14.00">✓ Modify</text>
<text text-anchor="middle" x="222" y="-88.67" font-family="Helvetica,sans-Serif" font-size="14.00">src/reporting.py</text>
</g>
<!-- start&#45;&gt;175b0dd5&#45;8741&#45;457f&#45;9560&#45;eaab1610d78a -->
<g id="edge12" class="edge">
<title>start&#45;&gt;175b0dd5&#45;8741&#45;457f&#45;9560&#45;eaab1610d78a</title>
<path fill="none" stroke="black" d="M80.91,-99.87C84.88,-99.87 101.5,-99.87 122.01,-99.87"/>
<polygon fill="black" stroke="black" points="122.01,-103.37 132.01,-99.87 122.01,-96.37 122.01,-103.37"/>
<text text-anchor="middle" x="106.35" y="-106.67" font-family="Helvetica,sans-Serif" font-size="14.00">Start</text>
</g>
<!-- end -->
<g id="node2" class="node">
<title>end</title>
</g>
<!-- 6407d420&#45;5830&#45;41cb&#45;a7c6&#45;9a85cfba0408 -->
<g id="node4" class="node">
<title>6407d420&#45;5830&#45;41cb&#45;a7c6&#45;9a85cfba0408</title>
<ellipse fill="white" stroke="black" cx="499" cy="-99.87" rx="89.61" ry="26.74"/>
<text text-anchor="middle" x="499" y="-103.67" font-family="Helvetica,sans-Serif" font-size="14.00">▶ Modify</text>
<text text-anchor="middle" x="499" y="-88.67" font-family="Helvetica,sans-Serif" font-size="14.00">src/reporting.py</text>
</g>
<!-- 175b0dd5&#45;8741&#45;457f&#45;9560&#45;eaab1610d78a&#45;&gt;6407d420&#45;5830&#45;41cb&#45;a7c6&#45;9a85cfba0408 -->
<g id="edge2" class="edge">
<title>175b0dd5&#45;8741&#45;457f&#45;9560&#45;eaab1610d78a&#45;&gt;6407d420&#45;5830&#45;41cb&#45;a7c6&#45;9a85cfba0408</title>
<path fill="none" stroke="black" d="M311.81,-99.87C340.81,-99.87 369.81,-99.87 398.8,-99.87"/>
<polygon fill="black" stroke="black" points="399.06,-103.37 409.06,-99.87 399.06,-96.37 399.06,-103.37"/>
</g>
<!-- 600098b1&#45;c033&#45;4aed&#45;8296&#45;3d16121bb0e0 -->
<g id="node9" class="node">
<title>600098b1&#45;c033&#45;4aed&#45;8296&#45;3d16121bb0e0</title>
<polygon fill="yellow" stroke="black" points="322,-36 0,-36 0,0 322,0 322,-36"/>
<text text-anchor="middle" x="161" y="-14.3" font-family="Helvetica,sans-Serif" font-size="14.00">⋯ Run GitHub Actions for `src/reporting.py`</text>
</g>
<!-- 175b0dd5&#45;8741&#45;457f&#45;9560&#45;eaab1610d78a&#45;&gt;600098b1&#45;c033&#45;4aed&#45;8296&#45;3d16121bb0e0 -->
<g id="edge1" class="edge">
<title>175b0dd5&#45;8741&#45;457f&#45;9560&#45;eaab1610d78a&#45;&gt;600098b1&#45;c033&#45;4aed&#45;8296&#45;3d16121bb0e0</title>
<path fill="none" stroke="black" stroke-dasharray="5,2" d="M202.7,-73.6C195.54,-64.22 187.42,-53.59 180.26,-44.22"/>
<polygon fill="black" stroke="black" points="182.86,-41.86 174.01,-36.04 177.3,-46.11 182.86,-41.86"/>
</g>
<!-- 35ce2d94&#45;a57a&#45;423a&#45;9341&#45;4bb29ef4d20e -->
<g id="node5" class="node">
<title>35ce2d94&#45;a57a&#45;423a&#45;9341&#45;4bb29ef4d20e</title>
<ellipse fill="white" stroke="black" cx="835" cy="-99.87" rx="89.61" ry="26.74"/>
<text text-anchor="middle" x="835" y="-103.67" font-family="Helvetica,sans-Serif" font-size="14.00">▶ Modify</text>
<text text-anchor="middle" x="835" y="-88.67" font-family="Helvetica,sans-Serif" font-size="14.00">src/reporting.py</text>
</g>
<!-- 6407d420&#45;5830&#45;41cb&#45;a7c6&#45;9a85cfba0408&#45;&gt;35ce2d94&#45;a57a&#45;423a&#45;9341&#45;4bb29ef4d20e -->
<g id="edge4" class="edge">
<title>6407d420&#45;5830&#45;41cb&#45;a7c6&#45;9a85cfba0408&#45;&gt;35ce2d94&#45;a57a&#45;423a&#45;9341&#45;4bb29ef4d20e</title>
<path fill="none" stroke="black" d="M588.91,-99.87C637.62,-99.87 686.34,-99.87 735.05,-99.87"/>
<polygon fill="black" stroke="black" points="735.12,-103.37 745.12,-99.87 735.12,-96.37 735.12,-103.37"/>
</g>
<!-- df646248&#45;ea30&#45;4441&#45;a758&#45;36a9ae8a004d -->
<g id="node10" class="node">
<title>df646248&#45;ea30&#45;4441&#45;a758&#45;36a9ae8a004d</title>
<polygon fill="white" stroke="black" points="658,-36 340,-36 340,0 658,0 658,-36"/>
<text text-anchor="middle" x="499" y="-14.3" font-family="Helvetica,sans-Serif" font-size="14.00">▶ Run GitHub Actions for `src/reporting.py`</text>
</g>
<!-- 6407d420&#45;5830&#45;41cb&#45;a7c6&#45;9a85cfba0408&#45;&gt;df646248&#45;ea30&#45;4441&#45;a758&#45;36a9ae8a004d -->
<g id="edge3" class="edge">
<title>6407d420&#45;5830&#45;41cb&#45;a7c6&#45;9a85cfba0408&#45;&gt;df646248&#45;ea30&#45;4441&#45;a758&#45;36a9ae8a004d</title>
<path fill="none" stroke="black" stroke-dasharray="5,2" d="M499,-72.72C499,-64.27 499,-54.89 499,-46.36"/>
<polygon fill="black" stroke="black" points="502.5,-46.15 499,-36.15 495.5,-46.15 502.5,-46.15"/>
</g>
<!-- ae10d23e&#45;6ca0&#45;4277&#45;90b2&#45;f3aa7a472588 -->
<g id="node6" class="node">
<title>ae10d23e&#45;6ca0&#45;4277&#45;90b2&#45;f3aa7a472588</title>
<ellipse fill="white" stroke="black" cx="1171" cy="-99.87" rx="89.61" ry="26.74"/>
<text text-anchor="middle" x="1171" y="-103.67" font-family="Helvetica,sans-Serif" font-size="14.00">▶ Modify</text>
<text text-anchor="middle" x="1171" y="-88.67" font-family="Helvetica,sans-Serif" font-size="14.00">src/reporting.py</text>
</g>
<!-- 35ce2d94&#45;a57a&#45;423a&#45;9341&#45;4bb29ef4d20e&#45;&gt;ae10d23e&#45;6ca0&#45;4277&#45;90b2&#45;f3aa7a472588 -->
<g id="edge6" class="edge">
<title>35ce2d94&#45;a57a&#45;423a&#45;9341&#45;4bb29ef4d20e&#45;&gt;ae10d23e&#45;6ca0&#45;4277&#45;90b2&#45;f3aa7a472588</title>
<path fill="none" stroke="black" d="M924.91,-99.87C973.62,-99.87 1022.34,-99.87 1071.05,-99.87"/>
<polygon fill="black" stroke="black" points="1071.12,-103.37 1081.12,-99.87 1071.12,-96.37 1071.12,-103.37"/>
</g>
<!-- d4fd55f4&#45;94bd&#45;4328&#45;83a7&#45;f66c669c69b3 -->
<g id="node11" class="node">
<title>d4fd55f4&#45;94bd&#45;4328&#45;83a7&#45;f66c669c69b3</title>
<polygon fill="white" stroke="black" points="994,-36 676,-36 676,0 994,0 994,-36"/>
<text text-anchor="middle" x="835" y="-14.3" font-family="Helvetica,sans-Serif" font-size="14.00">▶ Run GitHub Actions for `src/reporting.py`</text>
</g>
<!-- 35ce2d94&#45;a57a&#45;423a&#45;9341&#45;4bb29ef4d20e&#45;&gt;d4fd55f4&#45;94bd&#45;4328&#45;83a7&#45;f66c669c69b3 -->
<g id="edge5" class="edge">
<title>35ce2d94&#45;a57a&#45;423a&#45;9341&#45;4bb29ef4d20e&#45;&gt;d4fd55f4&#45;94bd&#45;4328&#45;83a7&#45;f66c669c69b3</title>
<path fill="none" stroke="black" stroke-dasharray="5,2" d="M835,-72.72C835,-64.27 835,-54.89 835,-46.36"/>
<polygon fill="black" stroke="black" points="838.5,-46.15 835,-36.15 831.5,-46.15 838.5,-46.15"/>
</g>
<!-- b3e3e04d&#45;9d4b&#45;4de8&#45;a9e1&#45;2eb18bb7ba53 -->
<g id="node7" class="node">
<title>b3e3e04d&#45;9d4b&#45;4de8&#45;a9e1&#45;2eb18bb7ba53</title>
<ellipse fill="white" stroke="black" cx="1507" cy="-99.87" rx="89.61" ry="26.74"/>
<text text-anchor="middle" x="1507" y="-103.67" font-family="Helvetica,sans-Serif" font-size="14.00">▶ Modify</text>
<text text-anchor="middle" x="1507" y="-88.67" font-family="Helvetica,sans-Serif" font-size="14.00">src/reporting.py</text>
</g>
<!-- ae10d23e&#45;6ca0&#45;4277&#45;90b2&#45;f3aa7a472588&#45;&gt;b3e3e04d&#45;9d4b&#45;4de8&#45;a9e1&#45;2eb18bb7ba53 -->
<g id="edge8" class="edge">
<title>ae10d23e&#45;6ca0&#45;4277&#45;90b2&#45;f3aa7a472588&#45;&gt;b3e3e04d&#45;9d4b&#45;4de8&#45;a9e1&#45;2eb18bb7ba53</title>
<path fill="none" stroke="black" d="M1260.91,-99.87C1309.62,-99.87 1358.34,-99.87 1407.05,-99.87"/>
<polygon fill="black" stroke="black" points="1407.12,-103.37 1417.12,-99.87 1407.12,-96.37 1407.12,-103.37"/>
</g>
<!-- b1b9230f&#45;42bf&#45;4732&#45;84e0&#45;041c4d89a018 -->
<g id="node12" class="node">
<title>b1b9230f&#45;42bf&#45;4732&#45;84e0&#45;041c4d89a018</title>
<polygon fill="white" stroke="black" points="1330,-36 1012,-36 1012,0 1330,0 1330,-36"/>
<text text-anchor="middle" x="1171" y="-14.3" font-family="Helvetica,sans-Serif" font-size="14.00">▶ Run GitHub Actions for `src/reporting.py`</text>
</g>
<!-- ae10d23e&#45;6ca0&#45;4277&#45;90b2&#45;f3aa7a472588&#45;&gt;b1b9230f&#45;42bf&#45;4732&#45;84e0&#45;041c4d89a018 -->
<g id="edge7" class="edge">
<title>ae10d23e&#45;6ca0&#45;4277&#45;90b2&#45;f3aa7a472588&#45;&gt;b1b9230f&#45;42bf&#45;4732&#45;84e0&#45;041c4d89a018</title>
<path fill="none" stroke="black" stroke-dasharray="5,2" d="M1171,-72.72C1171,-64.27 1171,-54.89 1171,-46.36"/>
<polygon fill="black" stroke="black" points="1174.5,-46.15 1171,-36.15 1167.5,-46.15 1174.5,-46.15"/>
</g>
<!-- 7d3b15e2&#45;43b7&#45;4f60&#45;85ee&#45;213996139226 -->
<g id="node8" class="node">
<title>7d3b15e2&#45;43b7&#45;4f60&#45;85ee&#45;213996139226</title>
<ellipse fill="white" stroke="black" cx="1783" cy="-99.87" rx="89.61" ry="26.74"/>
<text text-anchor="middle" x="1783" y="-103.67" font-family="Helvetica,sans-Serif" font-size="14.00">▶ Modify</text>
<text text-anchor="middle" x="1783" y="-88.67" font-family="Helvetica,sans-Serif" font-size="14.00">src/reporting.py</text>
</g>
<!-- b3e3e04d&#45;9d4b&#45;4de8&#45;a9e1&#45;2eb18bb7ba53&#45;&gt;7d3b15e2&#45;43b7&#45;4f60&#45;85ee&#45;213996139226 -->
<g id="edge10" class="edge">
<title>b3e3e04d&#45;9d4b&#45;4de8&#45;a9e1&#45;2eb18bb7ba53&#45;&gt;7d3b15e2&#45;43b7&#45;4f60&#45;85ee&#45;213996139226</title>
<path fill="none" stroke="black" d="M1597.02,-99.87C1625.62,-99.87 1654.21,-99.87 1682.8,-99.87"/>
<polygon fill="black" stroke="black" points="1682.92,-103.37 1692.92,-99.87 1682.92,-96.37 1682.92,-103.37"/>
</g>
<!-- 1d4ec9ea&#45;37b3&#45;41fe&#45;80c1&#45;dd709cb21ddc -->
<g id="node13" class="node">
<title>1d4ec9ea&#45;37b3&#45;41fe&#45;80c1&#45;dd709cb21ddc</title>
<polygon fill="white" stroke="black" points="1666,-36 1348,-36 1348,0 1666,0 1666,-36"/>
<text text-anchor="middle" x="1507" y="-14.3" font-family="Helvetica,sans-Serif" font-size="14.00">▶ Run GitHub Actions for `src/reporting.py`</text>
</g>
<!-- b3e3e04d&#45;9d4b&#45;4de8&#45;a9e1&#45;2eb18bb7ba53&#45;&gt;1d4ec9ea&#45;37b3&#45;41fe&#45;80c1&#45;dd709cb21ddc -->
<g id="edge9" class="edge">
<title>b3e3e04d&#45;9d4b&#45;4de8&#45;a9e1&#45;2eb18bb7ba53&#45;&gt;1d4ec9ea&#45;37b3&#45;41fe&#45;80c1&#45;dd709cb21ddc</title>
<path fill="none" stroke="black" stroke-dasharray="5,2" d="M1507,-72.72C1507,-64.27 1507,-54.89 1507,-46.36"/>
<polygon fill="black" stroke="black" points="1510.5,-46.15 1507,-36.15 1503.5,-46.15 1510.5,-46.15"/>
</g>
<!-- 7d3b15e2&#45;43b7&#45;4f60&#45;85ee&#45;213996139226&#45;&gt;end -->
<g id="edge13" class="edge">
<title>7d3b15e2&#45;43b7&#45;4f60&#45;85ee&#45;213996139226&#45;&gt;end</title>
<path fill="none" stroke="black" d="M1872.93,-99.87C1891.8,-99.87 1909.22,-99.87 1919.96,-99.87"/>
<polygon fill="black" stroke="black" points="1920.31,-103.37 1930.31,-99.87 1920.31,-96.37 1920.31,-103.37"/>
<text text-anchor="middle" x="1901.65" y="-106.67" font-family="Helvetica,sans-Serif" font-size="14.00">Finish</text>
</g>
<!-- 69728e5d&#45;b6b9&#45;4aeb&#45;9662&#45;7791ed7298f0 -->
<g id="node14" class="node">
<title>69728e5d&#45;b6b9&#45;4aeb&#45;9662&#45;7791ed7298f0</title>
<polygon fill="white" stroke="black" points="2002,-36 1684,-36 1684,0 2002,0 2002,-36"/>
<text text-anchor="middle" x="1843" y="-14.3" font-family="Helvetica,sans-Serif" font-size="14.00">▶ Run GitHub Actions for `src/reporting.py`</text>
</g>
<!-- 7d3b15e2&#45;43b7&#45;4f60&#45;85ee&#45;213996139226&#45;&gt;69728e5d&#45;b6b9&#45;4aeb&#45;9662&#45;7791ed7298f0 -->
<g id="edge11" class="edge">
<title>7d3b15e2&#45;43b7&#45;4f60&#45;85ee&#45;213996139226&#45;&gt;69728e5d&#45;b6b9&#45;4aeb&#45;9662&#45;7791ed7298f0</title>
<path fill="none" stroke="black" stroke-dasharray="5,2" d="M1801.98,-73.6C1809.03,-64.22 1817.01,-53.59 1824.06,-44.22"/>
<polygon fill="black" stroke="black" points="1826.99,-46.13 1830.2,-36.04 1821.4,-41.93 1826.99,-46.13"/>
</g>
</g>
</svg>
