<?xml version="1.0" encoding="UTF-8" standalone="no"?>
<!DOCTYPE svg PUBLIC "-//W3C//DTD SVG 1.1//EN"
 "http://www.w3.org/Graphics/SVG/1.1/DTD/svg11.dtd">
<!-- Generated by graphviz version 2.43.0 (0)
 -->
<!-- Title: %3 Pages: 1 -->
<svg width="776pt" height="238pt"
 viewBox="0.00 0.00 776.00 237.74" xmlns="http://www.w3.org/2000/svg" xmlns:xlink="http://www.w3.org/1999/xlink">
<g id="graph0" class="graph" transform="scale(1 1) rotate(0) translate(36 201.74)">
<title>%3</title>
<polygon fill="dimgray" stroke="transparent" points="-36,36 -36,-201.74 740,-201.74 740,36 -36,36"/>
<text text-anchor="middle" x="352" y="-150.54" font-family="Helvetica,sans-Serif" font-size="14.00">Sweep&#39;s Plan &amp; Progress</text>
<!-- start -->
<g id="node1" class="node">
<title>start</title>
</g>
<!-- 0b7d95a9&#45;9d5f&#45;463a&#45;86f3&#45;2f2186655f39 -->
<g id="node3" class="node">
<title>0b7d95a9&#45;9d5f&#45;463a&#45;86f3&#45;2f2186655f39</title>
<ellipse fill="yellow" stroke="black" cx="215" cy="-99.87" rx="90.52" ry="26.74"/>
<text text-anchor="middle" x="215" y="-103.67" font-family="Helvetica,sans-Serif" font-size="14.00">⋯ Modify</text>
<text text-anchor="middle" x="215" y="-88.67" font-family="Helvetica,sans-Serif" font-size="14.00">src/some_file.py</text>
</g>
<!-- start&#45;&gt;0b7d95a9&#45;9d5f&#45;463a&#45;86f3&#45;2f2186655f39 -->
<g id="edge4" class="edge">
<title>start&#45;&gt;0b7d95a9&#45;9d5f&#45;463a&#45;86f3&#45;2f2186655f39</title>
<path fill="none" stroke="black" d="M72.64,-99.87C76.06,-99.87 92.92,-99.87 113.91,-99.87"/>
<polygon fill="black" stroke="black" points="114.15,-103.37 124.15,-99.87 114.15,-96.37 114.15,-103.37"/>
<text text-anchor="middle" x="98.5" y="-106.67" font-family="Helvetica,sans-Serif" font-size="14.00">Start</text>
</g>
<!-- end -->
<g id="node2" class="node">
<title>end</title>
</g>
<!-- b31a5a37&#45;c9e3&#45;4d64&#45;a782&#45;90f0e432b410 -->
<g id="node4" class="node">
<title>b31a5a37&#45;c9e3&#45;4d64&#45;a782&#45;90f0e432b410</title>
<ellipse fill="white" stroke="black" cx="493" cy="-99.87" rx="123.99" ry="26.74"/>
<text text-anchor="middle" x="493" y="-103.67" font-family="Helvetica,sans-Serif" font-size="14.00">▶ Create</text>
<text text-anchor="middle" x="493" y="-88.67" font-family="Helvetica,sans-Serif" font-size="14.00">tests/test_some_file.py</text>
</g>
<!-- 0b7d95a9&#45;9d5f&#45;463a&#45;86f3&#45;2f2186655f39&#45;&gt;b31a5a37&#45;c9e3&#45;4d64&#45;a782&#45;90f0e432b410 -->
<g id="edge2" class="edge">
<title>0b7d95a9&#45;9d5f&#45;463a&#45;86f3&#45;2f2186655f39&#45;&gt;b31a5a37&#45;c9e3&#45;4d64&#45;a782&#45;90f0e432b410</title>
<path fill="none" stroke="black" d="M305.68,-99.87C323.31,-99.87 340.95,-99.87 358.59,-99.87"/>
<polygon fill="black" stroke="black" points="358.97,-103.37 368.97,-99.87 358.97,-96.37 358.97,-103.37"/>
</g>
<!-- b9c3fe43&#45;6a5a&#45;470c&#45;9be2&#45;373f76fd9ac2 -->
<g id="node5" class="node">
<title>b9c3fe43&#45;6a5a&#45;470c&#45;9be2&#45;373f76fd9ac2</title>
<polygon fill="white" stroke="black" points="320,-36 0,-36 0,0 320,0 320,-36"/>
<text text-anchor="middle" x="160" y="-14.3" font-family="Helvetica,sans-Serif" font-size="14.00">▶ Run GitHub Actions for `src/some_file.py`</text>
</g>
<!-- 0b7d95a9&#45;9d5f&#45;463a&#45;86f3&#45;2f2186655f39&#45;&gt;b9c3fe43&#45;6a5a&#45;470c&#45;9be2&#45;373f76fd9ac2 -->
<g id="edge1" class="edge">
<title>0b7d95a9&#45;9d5f&#45;463a&#45;86f3&#45;2f2186655f39&#45;&gt;b9c3fe43&#45;6a5a&#45;470c&#45;9be2&#45;373f76fd9ac2</title>
<path fill="none" stroke="black" stroke-dasharray="5,2" d="M197.29,-73.16C191.01,-64.04 183.95,-53.77 177.67,-44.65"/>
<polygon fill="black" stroke="black" points="180.49,-42.59 171.94,-36.34 174.73,-46.56 180.49,-42.59"/>
</g>
<!-- b31a5a37&#45;c9e3&#45;4d64&#45;a782&#45;90f0e432b410&#45;&gt;end -->
<g id="edge5" class="edge">
<title>b31a5a37&#45;c9e3&#45;4d64&#45;a782&#45;90f0e432b410&#45;&gt;end</title>
<path fill="none" stroke="black" d="M616.91,-99.87C636.54,-99.87 653.8,-99.87 664.3,-99.87"/>
<polygon fill="black" stroke="black" points="664.33,-103.37 674.33,-99.87 664.33,-96.37 664.33,-103.37"/>
<text text-anchor="middle" x="645.62" y="-106.67" font-family="Helvetica,sans-Serif" font-size="14.00">Finish</text>
</g>
<!-- 4ac12e87&#45;8658&#45;4250&#45;a7de&#45;c4a15cb0d26b -->
<g id="node6" class="node">
<title>4ac12e87&#45;8658&#45;4250&#45;a7de&#45;c4a15cb0d26b</title>
<polygon fill="white" stroke="black" points="704,-36 338,-36 338,0 704,0 704,-36"/>
<text text-anchor="middle" x="521" y="-14.3" font-family="Helvetica,sans-Serif" font-size="14.00">▶ Run GitHub Actions for `tests/test_some_file.py`</text>
</g>
<!-- b31a5a37&#45;c9e3&#45;4d64&#45;a782&#45;90f0e432b410&#45;&gt;4ac12e87&#45;8658&#45;4250&#45;a7de&#45;c4a15cb0d26b -->
<g id="edge3" class="edge">
<title>b31a5a37&#45;c9e3&#45;4d64&#45;a782&#45;90f0e432b410&#45;&gt;4ac12e87&#45;8658&#45;4250&#45;a7de&#45;c4a15cb0d26b</title>
<path fill="none" stroke="black" stroke-dasharray="5,2" d="M502.17,-72.72C505.19,-64.08 508.56,-54.47 511.61,-45.79"/>
<polygon fill="black" stroke="black" points="514.98,-46.74 514.99,-36.15 508.38,-44.43 514.98,-46.74"/>
</g>
</g>
</svg>
