<?xml version="1.0" encoding="UTF-8" standalone="no"?>
<!DOCTYPE svg PUBLIC "-//W3C//DTD SVG 1.1//EN"
 "http://www.w3.org/Graphics/SVG/1.1/DTD/svg11.dtd">
<!-- Generated by graphviz version 2.43.0 (0)
 -->
<!-- Title: %3 Pages: 1 -->
<svg width="823pt" height="238pt"
 viewBox="0.00 0.00 822.50 237.74" xmlns="http://www.w3.org/2000/svg" xmlns:xlink="http://www.w3.org/1999/xlink">
<g id="graph0" class="graph" transform="scale(1 1) rotate(0) translate(36 201.74)">
<title>%3</title>
<polygon fill="dimgray" stroke="transparent" points="-36,36 -36,-201.74 786.5,-201.74 786.5,36 -36,36"/>
<text text-anchor="middle" x="375.25" y="-150.54" font-family="Helvetica,sans-Serif" font-size="14.00">Sweep&#39;s Plan &amp; Progress</text>
<!-- start -->
<g id="node1" class="node">
<title>start</title>
</g>
<!-- bf940cdd&#45;f797&#45;4eff&#45;9c42&#45;fd9ff5dd9b06 -->
<g id="node3" class="node">
<title>bf940cdd&#45;f797&#45;4eff&#45;9c42&#45;fd9ff5dd9b06</title>
<ellipse fill="#0ee832" stroke="black" cx="227" cy="-99.87" rx="111.03" ry="26.74"/>
<text text-anchor="middle" x="227" y="-103.67" font-family="Helvetica,sans-Serif" font-size="14.00">✓ Modify</text>
<text text-anchor="middle" x="227" y="-88.67" font-family="Helvetica,sans-Serif" font-size="14.00">src/yield_farming.py</text>
</g>
<!-- start&#45;&gt;bf940cdd&#45;f797&#45;4eff&#45;9c42&#45;fd9ff5dd9b06 -->
<g id="edge4" class="edge">
<title>start&#45;&gt;bf940cdd&#45;f797&#45;4eff&#45;9c42&#45;fd9ff5dd9b06</title>
<path fill="none" stroke="black" d="M64.73,-99.87C68.28,-99.87 84.46,-99.87 105.34,-99.87"/>
<polygon fill="black" stroke="black" points="105.58,-103.37 115.58,-99.87 105.58,-96.37 105.58,-103.37"/>
<text text-anchor="middle" x="90.24" y="-106.67" font-family="Helvetica,sans-Serif" font-size="14.00">Start</text>
</g>
<!-- end -->
<g id="node2" class="node">
<title>end</title>
</g>
<!-- 38f13e5f&#45;fd02&#45;47a1&#45;b5bb&#45;fb6775c8277c -->
<g id="node4" class="node">
<title>38f13e5f&#45;fd02&#45;47a1&#45;b5bb&#45;fb6775c8277c</title>
<ellipse fill="white" stroke="black" cx="534" cy="-99.87" rx="134.2" ry="26.74"/>
<text text-anchor="middle" x="534" y="-103.67" font-family="Helvetica,sans-Serif" font-size="14.00">▶ Create</text>
<text text-anchor="middle" x="534" y="-88.67" font-family="Helvetica,sans-Serif" font-size="14.00">src/test_yield_farming.py</text>
</g>
<!-- bf940cdd&#45;f797&#45;4eff&#45;9c42&#45;fd9ff5dd9b06&#45;&gt;38f13e5f&#45;fd02&#45;47a1&#45;b5bb&#45;fb6775c8277c -->
<g id="edge2" class="edge">
<title>bf940cdd&#45;f797&#45;4eff&#45;9c42&#45;fd9ff5dd9b06&#45;&gt;38f13e5f&#45;fd02&#45;47a1&#45;b5bb&#45;fb6775c8277c</title>
<path fill="none" stroke="black" d="M338.23,-99.87C355.27,-99.87 372.32,-99.87 389.37,-99.87"/>
<polygon fill="black" stroke="black" points="389.41,-103.37 399.41,-99.87 389.41,-96.37 389.41,-103.37"/>
</g>
<!-- cc7b2d76&#45;b0fb&#45;40f0&#45;84d0&#45;369e704d304f -->
<g id="node5" class="node">
<title>cc7b2d76&#45;b0fb&#45;40f0&#45;84d0&#45;369e704d304f</title>
<polygon fill="yellow" stroke="black" points="352,-36 0,-36 0,0 352,0 352,-36"/>
<text text-anchor="middle" x="176" y="-14.3" font-family="Helvetica,sans-Serif" font-size="14.00">⋯ Run GitHub Actions for `src/yield_farming.py`</text>
</g>
<!-- bf940cdd&#45;f797&#45;4eff&#45;9c42&#45;fd9ff5dd9b06&#45;&gt;cc7b2d76&#45;b0fb&#45;40f0&#45;84d0&#45;369e704d304f -->
<g id="edge1" class="edge">
<title>bf940cdd&#45;f797&#45;4eff&#45;9c42&#45;fd9ff5dd9b06&#45;&gt;cc7b2d76&#45;b0fb&#45;40f0&#45;84d0&#45;369e704d304f</title>
<path fill="none" stroke="black" stroke-dasharray="5,2" d="M210.58,-73.16C204.82,-64.13 198.34,-53.98 192.56,-44.94"/>
<polygon fill="black" stroke="black" points="195.4,-42.88 187.07,-36.34 189.5,-46.65 195.4,-42.88"/>
</g>
<!-- 38f13e5f&#45;fd02&#45;47a1&#45;b5bb&#45;fb6775c8277c&#45;&gt;end -->
<g id="edge5" class="edge">
<title>38f13e5f&#45;fd02&#45;47a1&#45;b5bb&#45;fb6775c8277c&#45;&gt;end</title>
<path fill="none" stroke="black" d="M668.39,-99.87C687.81,-99.87 704.72,-99.87 715.11,-99.87"/>
<polygon fill="black" stroke="black" points="715.35,-103.37 725.35,-99.87 715.35,-96.37 715.35,-103.37"/>
<text text-anchor="middle" x="696.93" y="-106.67" font-family="Helvetica,sans-Serif" font-size="14.00">Finish</text>
</g>
<!-- b04dcaf7&#45;9424&#45;48bc&#45;9f55&#45;6765f4e0917b -->
<g id="node6" class="node">
<title>b04dcaf7&#45;9424&#45;48bc&#45;9f55&#45;6765f4e0917b</title>
<polygon fill="white" stroke="black" points="750.5,-36 369.5,-36 369.5,0 750.5,0 750.5,-36"/>
<text text-anchor="middle" x="560" y="-14.3" font-family="Helvetica,sans-Serif" font-size="14.00">▶ Run GitHub Actions for `src/test_yield_farming.py`</text>
</g>
<!-- 38f13e5f&#45;fd02&#45;47a1&#45;b5bb&#45;fb6775c8277c&#45;&gt;b04dcaf7&#45;9424&#45;48bc&#45;9f55&#45;6765f4e0917b -->
<g id="edge3" class="edge">
<title>38f13e5f&#45;fd02&#45;47a1&#45;b5bb&#45;fb6775c8277c&#45;&gt;b04dcaf7&#45;9424&#45;48bc&#45;9f55&#45;6765f4e0917b</title>
<path fill="none" stroke="black" stroke-dasharray="5,2" d="M542.51,-72.72C545.32,-64.08 548.45,-54.47 551.28,-45.79"/>
<polygon fill="black" stroke="black" points="554.65,-46.74 554.42,-36.15 547.99,-44.57 554.65,-46.74"/>
</g>
</g>
</svg>
