<?xml version="1.0" encoding="UTF-8" standalone="no"?>
<!DOCTYPE svg PUBLIC "-//W3C//DTD SVG 1.1//EN"
 "http://www.w3.org/Graphics/SVG/1.1/DTD/svg11.dtd">
<!-- Generated by graphviz version 2.43.0 (0)
 -->
<!-- Title: %3 Pages: 1 -->
<svg width="648pt" height="165pt"
 viewBox="0.00 0.00 648.00 164.74" xmlns="http://www.w3.org/2000/svg" xmlns:xlink="http://www.w3.org/1999/xlink">
<g id="graph0" class="graph" transform="scale(1 1) rotate(0) translate(36 128.74)">
<title>%3</title>
<polygon fill="dimgray" stroke="transparent" points="-36,36 -36,-128.74 612,-128.74 612,36 -36,36"/>
<text text-anchor="middle" x="288" y="-77.54" font-family="Helvetica,sans-Serif" font-size="14.00">Sweep&#39;s Plan &amp; Progress</text>
<!-- start -->
<g id="node1" class="node">
<title>start</title>
</g>
<!-- cad6a76f&#45;c501&#45;40af&#45;b573&#45;bd457252f3fa -->
<g id="node3" class="node">
<title>cad6a76f&#45;c501&#45;40af&#45;b573&#45;bd457252f3fa</title>
<ellipse fill="#0ee832" stroke="black" cx="143.5" cy="-26.87" rx="90.52" ry="26.74"/>
<text text-anchor="middle" x="143.5" y="-30.67" font-family="Helvetica,sans-Serif" font-size="14.00">✓ Create</text>
<text text-anchor="middle" x="143.5" y="-15.67" font-family="Helvetica,sans-Serif" font-size="14.00">src/some_file.py</text>
</g>
<!-- start&#45;&gt;cad6a76f&#45;c501&#45;40af&#45;b573&#45;bd457252f3fa -->
<g id="edge2" class="edge">
<title>start&#45;&gt;cad6a76f&#45;c501&#45;40af&#45;b573&#45;bd457252f3fa</title>
<path fill="none" stroke="black" d="M1.14,-26.87C4.56,-26.87 21.42,-26.87 42.41,-26.87"/>
<polygon fill="black" stroke="black" points="42.65,-30.37 52.65,-26.87 42.65,-23.37 42.65,-30.37"/>
<text text-anchor="middle" x="27" y="-33.67" font-family="Helvetica,sans-Serif" font-size="14.00">Start</text>
</g>
<!-- end -->
<g id="node2" class="node">
<title>end</title>
</g>
<!-- 8449ccf7&#45;2832&#45;4883&#45;9c4e&#45;58eeaefb0a5b -->
<g id="node4" class="node">
<title>8449ccf7&#45;2832&#45;4883&#45;9c4e&#45;58eeaefb0a5b</title>
<ellipse fill="#0ee832" stroke="black" cx="393.5" cy="-26.87" rx="123.99" ry="26.74"/>
<text text-anchor="middle" x="393.5" y="-30.67" font-family="Helvetica,sans-Serif" font-size="14.00">✓ Create</text>
<text text-anchor="middle" x="393.5" y="-15.67" font-family="Helvetica,sans-Serif" font-size="14.00">tests/some_test_file.py</text>
</g>
<!-- cad6a76f&#45;c501&#45;40af&#45;b573&#45;bd457252f3fa&#45;&gt;8449ccf7&#45;2832&#45;4883&#45;9c4e&#45;58eeaefb0a5b -->
<g id="edge1" class="edge">
<title>cad6a76f&#45;c501&#45;40af&#45;b573&#45;bd457252f3fa&#45;&gt;8449ccf7&#45;2832&#45;4883&#45;9c4e&#45;58eeaefb0a5b</title>
<path fill="none" stroke="black" d="M234.32,-26.87C242.65,-26.87 250.97,-26.87 259.3,-26.87"/>
<polygon fill="black" stroke="black" points="259.45,-30.37 269.45,-26.87 259.45,-23.37 259.45,-30.37"/>
</g>
<!-- 8449ccf7&#45;2832&#45;4883&#45;9c4e&#45;58eeaefb0a5b&#45;&gt;end -->
<g id="edge3" class="edge">
<title>8449ccf7&#45;2832&#45;4883&#45;9c4e&#45;58eeaefb0a5b&#45;&gt;end</title>
<path fill="none" stroke="black" d="M517.41,-26.87C537.04,-26.87 554.3,-26.87 564.8,-26.87"/>
<polygon fill="black" stroke="black" points="564.83,-30.37 574.83,-26.87 564.83,-23.37 564.83,-30.37"/>
<text text-anchor="middle" x="546.12" y="-33.67" font-family="Helvetica,sans-Serif" font-size="14.00">Finish</text>
</g>
</g>
</svg>
